<svg viewbox="0 0 504 504" xml:space="preserve" xmlns="http://www.w3.org/2000/svg"><path d="M72 146.84c0-25.02 15.79-46.35 37.95-54.58L130.21 72v16.63l49.9 24.95-8.32 16.63h-41.58v74.84c-32.15 0-58.21-26.06-58.21-58.21zm107.71 33.18c15.19-15.19 39.82-15.19 55.01 0l2.94 2.94L252 168.63l5.66 5.66-34.02 34.02 17.8 22.57-12.28 12.28-28.72-11.65-12.1 12.1-8.62-8.58c-15.2-15.19-15.2-39.82-.01-55.01zm26.87 45.34 20.67 8.39 3.5-3.5L217.94 214l-11.36 11.36zm167.21-95.15v74.84c32.15 0 58.21-26.06 58.21-58.21 0-25.02-15.79-46.35-37.95-54.58L373.79 72v16.63l-49.9 24.95 8.32 16.63h41.58zm0 168.74v74.84h-41.58l-8.32 16.63 49.9 24.95V432l20.26-20.26c22.16-8.23 37.95-29.56 37.95-54.58 0-32.15-26.06-58.21-58.21-58.21zm-243.58 74.84v-74.84c-32.15 0-58.21 26.06-58.21 58.21 0 25.02 15.79 46.35 37.95 54.58L130.21 432v-16.63l49.9-24.95-8.32-16.63h-41.58zm186.78-183.25 32-29.52c1.01-.9 1.64-2.03 1.86-3.1.22-1.07.01-2.1-.68-2.78l-.66-.66-.66-.66c-.69-.69-1.71-.9-2.78-.68-1.07.22-2.2.85-3.1 1.86l-29.52 32-126.44 126.46-32 29.52c-1.01.9-1.64 2.03-1.86 3.1-.22 1.07-.01 2.1.68 2.78l.66.66.66.66c.69.69 1.71.9 2.78.68 1.07-.22 2.2-.85 3.1-1.86l29.52-32 126.44-126.46zm7.3 133.44c-15.19 15.19-39.82 15.19-55.01 0l-2.94-2.94L252 335.37l-5.66-5.66 34.02-34.02-17.8-22.57 12.28-12.28 28.72 11.65 12.1-12.1 8.62 8.58c15.2 15.19 15.2 39.82.01 55.01zm-26.87-45.34-20.67-8.39-3.5 3.5L286.06 290l11.36-11.36z"></path></svg>