<svg viewbox="0 0 504 504" xml:space="preserve" xmlns="http://www.w3.org/2000/svg"><path d="m263.82 198.69 36.62 36.62-4.82 2.25L259 200.94l4.82-2.25zm-18.37-11.3 4.82-2.25-22.95-22.95-3.54 3.54 21.67 21.66zm34.85-16.25-54.04-54.04-3.54 3.54 52.76 52.76 4.82-2.26zm50.17 50.17-36.62-36.62-4.82 2.25 36.62 36.62 4.82-2.25zm-21.31 29.79 29.1 29.1 3.54-3.54-27.82-27.82-4.82 2.26zm77.74 26.64-42.89-42.89-4.82 2.25 44.18 44.18 3.53-3.54zm-26.41-70.44-36.62-36.62-4.82 2.25 36.62 36.62 4.82-2.25zm8.73 15.8 59.25 59.25 3.54-3.54-57.96-57.96-4.83 2.25zm-58.89-65.96L225.19 72l-3.54 3.54 83.85 83.85 4.83-2.25zm-72.77 138.48L200.94 259l-2.25 4.82 36.62 36.62 2.25-4.82zm13.54 13.55-2.25 4.82 27.82 27.82 3.54-3.54-29.11-29.1zm-80.41 14.7 36.62 36.62 2.25-4.82-36.62-36.62-2.25 4.82zm14-30.02 36.62 36.62 2.25-4.82-36.62-36.62-2.25 4.82zm50.16 50.16 42.89 42.89 3.54-3.54-44.17-44.17-2.26 4.82zm-47.46-98.55-21.66-21.66-3.54 3.54 22.95 22.95 2.25-4.83zm33.46 128.58L278.81 432l3.54-3.54-59.25-59.25-2.25 4.83zm-61.46-68.53-83.85-83.85-3.54 3.53 85.14 85.14 2.25-4.82zm-42.29-79.25 54.04 54.04 2.25-4.82-52.76-52.76-3.53 3.54zM432 206.13l-4.41 3.03a87.163 87.163 0 0 1-26.03 12.14l-4.43 1.23-4.1-2.32a48.88 48.88 0 0 0-15.16-5.52l-1.75-.32-95.05 44.32 13.1 13.1a901.21 901.21 0 0 1 74.13 84.02l27.16 34.85c1.06 1.36.94 3.3-.28 4.52a3.414 3.414 0 0 1-4.52.29l-35.3-27.32a901.434 901.434 0 0 1-83.34-73.6l-13.38-13.38-44.28 94.95.32 1.75c.99 5.34 2.85 10.44 5.52 15.16l2.32 4.1-1.23 4.43a87.05 87.05 0 0 1-12.14 26.03l-3.03 4.41-2.39-.28c-6.46-.74-12.62-3.62-17.34-8.09l-1.68-1.6.99-4.08a119.36 119.36 0 0 1 18.03-40.07l2.99-4.3 45.9-98.44-42.75-42.75c-.47-.47-.92-.94-1.39-1.41L160 334.93l.32 1.75c.99 5.34 2.85 10.44 5.52 15.16l2.32 4.1-1.23 4.43a87.05 87.05 0 0 1-12.14 26.03l-3.03 4.41-2.39-.28a30.36 30.36 0 0 1-17.34-8.09l-1.68-1.6.99-4.08a119.36 119.36 0 0 1 18.03-40.07l2.99-4.3 50.13-107.51c-23.59-24.16-46-49.82-66.69-76.44l-27.14-34.99a3.41 3.41 0 0 1 .29-4.52 3.421 3.421 0 0 1 4.52-.28l35.29 27.43c26.48 20.62 52 42.94 76.04 66.43l107.61-50.18 4.3-2.98a119.557 119.557 0 0 1 40.07-18.03l4.08-.99 1.59 1.68c4.47 4.72 7.34 10.88 8.09 17.34l.28 2.39-4.41 3.03a87.05 87.05 0 0 1-26.03 12.14l-4.43 1.23-4.1-2.32a48.88 48.88 0 0 0-15.16-5.52l-1.75-.32-104.05 48.52c.37.37.75.74 1.13 1.11l43.03 43.03 98.54-45.95 4.3-2.98a119.557 119.557 0 0 1 40.07-18.03l4.08-.99 1.59 1.68c4.47 4.72 7.34 10.88 8.09 17.34l.28 2.42zm-218.21-4.92c-2.42-2.38-7.82-6.79-13.66-10.57-5.83-3.78-12.1-6.92-16.26-6.77-.01 4.24 3.08 10.57 6.76 16.43s7.95 11.28 10.32 13.71L243 255.34 255.35 243l-41.56-41.79zm76.2 101.84c2.43 2.37 7.84 6.64 13.71 10.32 5.87 3.68 12.19 6.76 16.43 6.76.15-4.16-2.99-10.43-6.77-16.26s-8.19-11.23-10.57-13.66L261 248.65 248.66 261l41.33 42.05z"></path></svg>