<svg viewbox="0 0 504 504" xml:space="preserve" xmlns="http://www.w3.org/2000/svg"><path d="M392.01 252 281.55 362.45c-1.96-1.84-4.08-3.5-6.36-4.96L380.69 252 275.2 146.5c2.27-1.46 4.4-3.12 6.36-4.96L392.01 252zM286.35 367.79c1.13 1.48 2.16 3.04 3.09 4.66 9.02-.86 18.27.51 26.53 4.12 6.68 2.92 14 4.37 21.32 4.37s14.65-1.46 21.32-4.37c1.17-.51 2.44-1 3.76-1.46l-3.89-3.89c-.64.25-1.27.51-1.87.77-12.1 5.29-26.54 5.29-38.64 0-9.83-4.3-20.95-5.69-31.62-4.2zm-4.43-100.97c0-.05-.02-2.55-.55-6.23l-24.09 24.09c1.45.87 2.66 2.09 3.54 3.54l21.11-21.11v-.29zm36.05 79.63c-3.24-1.41-6.61-2.5-10.06-3.29l-4.25 4.25c4.24.7 8.39 1.9 12.31 3.62 8.24 3.6 17.46 4.96 26.46 4.12l-4.75-4.75c-6.77.06-13.54-1.25-19.71-3.95zm31.26-77.05h5v-11.6h-5v11.6zm-98.74 29.14c.99.29 2.03.29 3.02 0l11.72 11.72 3.54-3.54L257.05 295c.54-1.8.12-3.83-1.3-5.25a5.281 5.281 0 0 0-7.48 0c-1.42 1.42-1.84 3.45-1.3 5.25l-11.72 11.72 3.54 3.54 11.7-11.72zM145.5 371.23l-3.88 3.88c1.26.44 2.52.93 3.77 1.47 13.45 5.78 29.39 5.78 42.63-.01 8.26-3.61 17.51-4.98 26.53-4.12.93-1.62 1.96-3.18 3.09-4.66-10.67-1.49-21.79-.1-31.62 4.2-12 5.24-26.45 5.24-38.66-.01-.61-.27-1.24-.51-1.86-.75zm182.87-189.94 75.46-75.46-5.66-5.66-75.46 75.46 5.66 5.66zm-178.6 88.11h5v-11.6h-5v11.6zm67.88-133.19a42.746 42.746 0 0 1-3.09-4.66c-9.02.86-18.27-.51-26.53-4.12-6.68-2.92-14-4.37-21.32-4.37s-14.65 1.46-21.32 4.37c-1.17.51-2.44 1-3.76 1.46l3.89 3.89c.64-.25 1.27-.51 1.87-.77 12.1-5.29 26.54-5.29 38.64 0 9.83 4.3 20.95 5.69 31.62 4.2zM228.8 357.5 123.31 252l105.5-105.5c-2.27-1.46-4.4-3.12-6.36-4.96l-94.03 94.03L111.99 252l110.45 110.45c1.96-1.84 4.09-3.5 6.36-4.95zm-42.77-199.95c3.24 1.41 6.61 2.5 10.06 3.29l4.25-4.25c-4.24-.7-8.39-1.9-12.31-3.62-8.24-3.6-17.46-4.96-26.46-4.12l4.75 4.75c6.77-.06 13.54 1.25 19.71 3.95zm168.2 77.05h-5v11.6h5v-11.6zM252 196.98c-1.32 0-2.59.08-3.81.21-4.54 5.45-10.78 15.61-13.4 32.19 4.5-2.74 10.14-4.46 17.21-4.46s12.71 1.72 17.21 4.46c-2.62-16.58-8.86-26.74-13.4-32.19a33.42 33.42 0 0 0-3.81-.21zm-51.66 150.44-4.25-4.25c-3.45.78-6.83 1.87-10.06 3.29-6.16 2.69-12.94 4-19.7 3.95l-4.76 4.76c1.71.16 3.42.25 5.14.25 7.32 0 14.65-1.46 21.32-4.37 3.92-1.73 8.07-2.93 12.31-3.63zM154.77 234.6h-5v11.6h5v-11.6zm65.76-9.68h-3.46c-5.57 0-10.08 5.22-10.08 13.54v15.19c0 8.36 4.51 13.18 10.08 13.18 0 0 0-20.64 12.07-32.95 1.68-16.35 6.62-27.55 11.35-34.8-10.66 4.27-16.65 14.54-19.96 25.84zm66.39 41.9c5.57 0 10.08-4.82 10.08-13.18v-15.19c0-8.32-4.51-13.54-10.08-13.54h-3.46c-3.31-11.3-9.3-21.57-19.97-25.84 4.73 7.25 9.67 18.45 11.35 34.8 12.08 12.31 12.08 32.95 12.08 32.95zm-40.2 17.86-24.09-24.09c-.53 3.68-.56 6.18-.56 6.23v.29l21.11 21.11c.88-1.45 2.09-2.67 3.54-3.54zm-71.09 38.03-75.46 75.46 5.66 5.66 75.46-75.46-5.66-5.66zm180.98 100.33c-12.1 5.29-26.54 5.29-38.64 0-9.57-4.18-20.35-5.6-30.76-4.31a42.917 42.917 0 0 1-5.11 5.98c11.21-2.65 23.34-1.69 33.87 2.9 6.68 2.92 14 4.37 21.32 4.37s14.65-1.46 21.32-4.37c5.49-2.4 12.74-4.34 20.6-4.85l5.1-5.1c-10.57-.15-20.53 2.25-27.7 5.38zm-66.46-29.19c0 21.04-17.11 38.15-38.15 38.15s-38.15-17.11-38.15-38.15S230.96 355.7 252 355.7s38.15 17.11 38.15 38.15zm-35.27-.25c1.34 1.78 4.48 5.52 9.54 9.19 2.19-3.2 11.44-18.17 6.67-36.01a33.037 33.037 0 0 0-13.74-5.64c3.76 15.91-.67 28.35-2.47 32.46zm-34.12-10.82c13.5-9.88 28.71-9.51 33.04-9.16.01-3.92-.45-8.27-1.7-12.92h-.1c-14.4 0-26.67 9.23-31.24 22.08zm.23 22.78c11.91-11.2 24.9-13.58 29.35-14.08.87-2.05 2.54-6.64 3.19-12.86-3.87-.3-21.47-.82-34.54 12.24-.09.99-.14 1.98-.14 2.99 0 4.12.76 8.06 2.14 11.71zm37.04 20.88c-15.3-6.75-22.58-20.11-24.45-24.03a49.428 49.428 0 0 0-10.33 7.92C228.98 420.28 239.72 427 252 427c2.06 0 4.07-.2 6.03-.56zm19.6-11.59c-15.65-4.71-24.2-14.77-26.85-18.37-2.21.27-7.02 1.12-12.73 3.67 1.68 3.5 10.02 19 27.86 23.79 4.56-2.13 8.57-5.25 11.72-9.09zm3.01-4.34a32.95 32.95 0 0 0 4.51-16.66c0-8.19-2.99-15.69-7.94-21.49 1.79 16.62-6.13 29.59-8.59 33.16a49.6 49.6 0 0 0 12.02 4.99zM145.4 402.1c13.45 5.78 29.39 5.78 42.63-.01 6.58-2.87 13.79-4.32 21-4.37-.11-1.28-.18-2.57-.18-3.88 0-.37.02-.74.03-1.11-7.85.06-15.69 1.65-22.85 4.77-12 5.24-26.45 5.24-38.66-.01-7.51-3.23-15.2-4.93-23.03-5.12l-5.1 5.1c8.94-.55 17.68.99 26.16 4.63zm213.1-269.33 3.88-3.88a56.4 56.4 0 0 1-3.77-1.47c-13.45-5.78-29.39-5.78-42.63.01-8.26 3.61-17.51 4.98-26.53 4.12-.93 1.62-1.96 3.18-3.09 4.66 10.67 1.49 21.79.1 31.62-4.2 12-5.24 26.45-5.24 38.66.01.61.27 1.24.51 1.86.75zm-10.77 67.88 8 8V193h41.16v118h-41.16v-15.65l-8 8V319h57.16V185h-57.16v15.65zm8.88 196.86c-12.1 5.29-26.54 5.29-38.64 0-7.16-3.13-15-4.71-22.85-4.77.01.37.03.74.03 1.11 0 1.31-.07 2.6-.18 3.88 7.22.04 14.42 1.49 21 4.37 6.68 2.92 14 4.37 21.32 4.37s14.65-1.46 21.32-4.37c6.68-2.92 15.96-5.14 25.8-4.95l-4.89-4.89c-8.76.48-16.83 2.6-22.91 5.25zm53.27-176.54v8H424v46h-14.12v8H432v-62h-22.12zm-87.17 107.4 75.46 75.46 5.66-5.66-75.46-75.46-5.66 5.66zm-136.68 94.67c-12.1 5.29-26.54 5.29-38.67-.01-8.93-3.78-18.07-5.44-27.36-5.03l4.99 4.99c6.92.28 13.73 1.82 20.39 4.64 13.35 5.83 29.3 5.83 42.65 0 10.53-4.6 22.66-5.55 33.87-2.9a43 43 0 0 1-5.11-5.99c-10.41-1.3-21.2.12-30.76 4.3zM317.97 80.96c12.1-5.29 26.54-5.29 38.67.01 8.93 3.78 18.07 5.44 27.36 5.03l-4.99-4.99c-6.92-.28-13.73-1.82-20.39-4.64-13.35-5.83-29.3-5.83-42.65 0-10.53 4.6-22.66 5.55-33.87 2.9a43 43 0 0 1 5.11 5.99c10.42 1.3 21.2-.12 30.76-4.3zm-104.12 29.19C213.85 89.11 230.97 72 252 72s38.15 17.11 38.15 38.15S273.04 148.3 252 148.3s-38.15-17.11-38.15-38.15zm35.27.25c-1.34-1.78-4.48-5.52-9.54-9.19-2.19 3.2-11.44 18.17-6.67 36.01 4.02 2.84 8.68 4.81 13.74 5.64-3.76-15.91.68-28.35 2.47-32.46zm34.12 10.82c-13.5 9.88-28.71 9.51-33.04 9.16-.01 3.92.45 8.27 1.7 12.92h.1c14.4 0 26.68-9.23 31.24-22.08zm-.23-22.78c-11.91 11.2-24.9 13.58-29.35 14.08-.87 2.05-2.54 6.64-3.19 12.86 3.87.3 21.47.82 34.54-12.24.09-.99.14-1.98.14-2.99 0-4.12-.76-8.06-2.14-11.71zm-37.03-20.88c15.3 6.75 22.58 20.11 24.45 24.03 3.39-1.95 6.93-4.52 10.33-7.92C275.02 83.72 264.29 77 252 77c-2.06 0-4.07.2-6.02.56zm-19.61 11.59c15.65 4.71 24.2 14.77 26.85 18.37 2.21-.27 7.02-1.12 12.73-3.67-1.68-3.5-10.02-19-27.86-23.79a33.606 33.606 0 0 0-11.72 9.09zm-3.01 4.34a32.95 32.95 0 0 0-4.51 16.66c0 8.19 2.99 15.69 7.94 21.49-1.79-16.62 6.13-29.59 8.59-33.16a49.432 49.432 0 0 0-12.02-4.99zm135.25 8.41c-13.45-5.78-29.39-5.78-42.63.01-6.58 2.87-13.79 4.32-21 4.37.11 1.28.18 2.57.18 3.88 0 .37-.02.74-.03 1.11 7.85-.06 15.69-1.65 22.85-4.77 12-5.24 26.45-5.24 38.66.01 7.51 3.23 15.2 4.93 23.03 5.12l5.1-5.1c-8.94.55-17.69-.99-26.16-4.63zm-54.95 54.68 4.25 4.25c3.45-.78 6.83-1.87 10.06-3.29 6.16-2.69 12.94-4 19.7-3.95l4.76-4.76c-1.71-.16-3.42-.25-5.14-.25-7.32 0-14.65 1.46-21.32 4.37-3.92 1.73-8.07 2.93-12.31 3.63zM156.27 303.35l-8-8V311h-41.16V193h41.16v15.65l8-8V185H99.12v134h57.16v-15.65zm25.02-127.72-75.46-75.46-5.66 5.66 75.46 75.46 5.66-5.66zm-33.9-94.67c12.1-5.29 26.54-5.29 38.64 0 9.57 4.18 20.35 5.6 30.76 4.31 1.52-2.15 3.23-4.15 5.11-5.98-11.21 2.65-23.34 1.69-33.87-2.9-6.68-2.92-14-4.37-21.32-4.37s-14.65 1.46-21.32 4.37c-5.49 2.4-12.74 4.34-20.6 4.85l-5.1 5.1c10.58.15 20.53-2.25 27.7-5.38zM72 283.03h22.12v-8H80v-46h14.12v-8H72v62zm75.39-176.54c12.1-5.29 26.54-5.29 38.64 0 7.16 3.13 15 4.71 22.85 4.77-.01-.37-.03-.74-.03-1.11 0-1.31.07-2.6.18-3.88-7.22-.04-14.42-1.49-21-4.37-6.68-2.92-14-4.37-21.32-4.37s-14.65 1.46-21.32 4.37c-6.68 2.92-15.96 5.14-25.8 4.95l4.89 4.89c8.76-.48 16.83-2.6 22.91-5.25z"></path></svg>