<svg viewbox="0 0 504 504" xml:space="preserve" xmlns="http://www.w3.org/2000/svg"><path d="M108.23 109.34c-.3-.31-.3-.8.01-1.11.3-.3.8-.31 1.11-.01 53.02 50.76 98.93 95.51 135.43 131.42.01 3.43.01 6.85.02 10.28-34-34.61-78.9-80.69-136.57-140.58zm-3.88 107.06-3.64 9.02-4.63-1.87 3.64-9.02c1.94-4.8 4.72-7.83 8.29-9.04v-4.7h41.51c19.66 0 31.39 15.69 31.39 41.96 0 23.95-12.32 39.42-31.39 39.42h-2.36c-4.18 0-7.59 3.34-7.72 7.49-1.61-.08-2.97-.68-4.13-1.85-3.71-3.72-4.5-12.12-4.49-15.06v-7.96h-5v7.95c0 .51 0 12.63 5.93 18.59 2.11 2.13 4.7 3.24 7.67 3.33v5.53h-1.04c-4.77 0-8.55-1.5-11.55-4.59-7.51-7.73-7.17-22.62-7.16-22.85v-7.96h-5v7.88c-.02.69-.42 17.13 8.56 26.39 3.94 4.06 9.04 6.12 15.15 6.12h1.04v5.57h-2.5c-7.45 0-13.65-2.49-18.45-7.41-10.85-11.12-10.49-30.71-10.47-31.53v-60.77c-1.2.89-2.48 2.47-3.65 5.36zm45.72 60.75c15.95-.3 25.84-13.42 25.84-34.4 0-23.23-9.41-36.65-25.84-36.94v71.34zm-13-30.84h5v-40.52h-5v40.52zm-24.07 0h19.07v-40.52H113v40.52zm146.2 3.61c34-34.61 78.9-80.69 136.57-140.58.3-.31.3-.8-.01-1.11-.3-.3-.8-.31-1.11-.01-53.02 50.76-98.93 95.51-135.43 131.42 0 3.43-.01 6.85-.02 10.28zm148.73-26.38-4.63 1.87-3.64-9.02c-1.17-2.89-2.46-4.47-3.65-5.35v60.77c.02.83.38 20.41-10.47 31.53-4.79 4.91-11 7.41-18.45 7.41h-2.5v-5.57h1.04c6.11 0 11.21-2.06 15.15-6.12 8.98-9.27 8.58-25.7 8.56-26.39v-7.88h-5v7.96c.01.22.35 15.12-7.16 22.85-3 3.09-6.78 4.59-11.55 4.59h-1.04v-5.53c2.97-.09 5.55-1.2 7.67-3.33 5.93-5.96 5.94-18.08 5.93-18.59v-7.95h-5v7.96c.01 2.93-.78 11.34-4.49 15.06-1.16 1.16-2.52 1.77-4.13 1.85-.13-4.15-3.54-7.49-7.72-7.49h-2.36c-19.07 0-31.39-15.47-31.39-39.42 0-26.27 11.73-41.96 31.39-41.96H396v4.7c3.56 1.21 6.35 4.24 8.29 9.04l3.64 9.01zm-54-17.74c-16.43.3-25.84 13.72-25.84 36.94 0 20.99 9.89 34.11 25.84 34.4V205.8zm13-.01h-5v40.52h5v-40.52zm24.07 0h-19.07v40.52H391v-40.52zM105.17 393.17l5.66 5.66 25.23-25.23-5.66-5.66-25.23 25.23zm292.69-23.41-.01-.01c0-15.52-12.58-28.09-28.09-28.09-6.32 0-12.14 2.1-16.84 5.62l-16.1-16.1c-6.22-6.22-33.78-34.04-77.64-77.32l-.03 10.67c43.29 43.92 65.58 65.88 72.01 72.31l16.09 16.09c-3.63 4.83-5.59 10.67-5.59 16.83 0 2.81.41 5.55 1.2 8.17l30.9-30.9c4.65.81 8.93 3 12.33 6.4a22.974 22.974 0 0 1 6.77 16.34c0 5.16-1.7 10.05-4.8 14.07l-22.02-22.02-4.24 4.24 32.08 32.08 4.24-4.24-6.49-6.49c4.04-5 6.23-11.16 6.23-17.65zm-230.69-38.59-14.71 14.71c-9.46-6.85-22.78-6.05-31.3 2.47l-1.64 1.64 34.24 34.24 1.64-1.64c8.43-8.43 9.31-21.58 2.68-31.02l14.75-14.75c6.43-6.43 28.73-28.39 72.01-72.31l-.03-10.67c-43.86 43.29-71.42 71.11-77.64 77.33zM275.96 108H254.5v-5.2h4.65v-4.66c2.76-.29 5.44-1.14 7.85-2.5 1.2-.68 1.62-2.21.94-3.41a2.504 2.504 0 0 0-3.41-.94c-1.71.97-3.61 1.6-5.56 1.85-.52-3.47-2.28-6.53-4.83-8.7V72h-10.23v9.03h-18.95v8.94h18.95v5.51c0 .95.66 1.74 1.57 2.01 2.3.68 4.01 2.8 4.01 5.32v5.2h-21.46c4.18 7.88 12.14 13.44 21.46 14.29.19 91.87.26 200.09 1.66 289.19.16 6.75.32 13.5.56 20.25.01.15.13.26.27.26h.02v-.01a.29.29 0 0 0 .27-.26c.24-6.75.4-13.5.56-20.25 1.41-89.1 1.47-197.32 1.66-289.19 9.33-.85 17.29-6.41 21.47-14.29z"></path></svg>