<svg viewbox="0 0 504 504" xml:space="preserve" xmlns="http://www.w3.org/2000/svg"><path d="M369.73 223.55 218.18 72l-5.66 5.66 34.09 34.09a103.744 103.744 0 0 0-42.65-7.63L171.84 72l-3.54 3.54 29 29c-9.55.93-18.99 3.18-28.03 6.75L129.99 72l-5.66 5.66 37.1 37.1c-9.81 4.86-19 11.36-27.16 19.52-40.3 40.3-40.3 105.88 0 146.18L285.82 432l5.66-5.66-34.09-34.09c13.61 5.56 28.17 8.11 42.65 7.63L332.16 432l3.54-3.54-29-29c9.55-.93 18.99-3.18 28.03-6.75L374.01 432l5.66-5.66-37.1-37.1c9.81-4.85 19-11.36 27.16-19.52 40.3-40.3 40.3-105.87 0-146.17zM204.87 112.1l35.19 35.19c-12.53-5.39-26.3-6.99-39.57-4.79l-25.01-25.01a96.256 96.256 0 0 1 29.39-5.39zm-16.86 75.91c-15.99 15.99-15.99 42 0 57.99l111.06 111.06c-19.1 2.08-38.95-4.17-53.56-18.78l-79.8-79.8c-25.58-25.58-25.58-67.19 0-92.77a65.085 65.085 0 0 1 29.66-17.01l27.79 27.79c-12.44-1.88-25.59 1.96-35.15 11.52zm52.32 5.64.01.01 69.99 69.99c12.87 12.87 12.87 33.81 0 46.68s-33.81 12.87-46.68 0l-69.99-69.99c-12.87-12.87-12.87-33.81 0-46.68 12.87-12.86 33.8-12.86 46.67-.01zm40.51 133.86c12.44 1.87 25.59-1.96 35.15-11.52 15.99-15.99 15.99-42 0-57.99L204.93 146.94c19.1-2.08 38.95 4.17 53.56 18.78l79.8 79.8c25.58 25.58 25.58 67.19 0 92.77a65.085 65.085 0 0 1-29.66 17.01l-27.79-27.79zm-51.63 36.56-89.27-89.28c-37.18-37.18-37.18-97.68 0-134.86 8.2-8.2 17.54-14.59 27.51-19.17l23.89 23.89a70.19 70.19 0 0 0-29.15 17.53c-27.53 27.53-27.53 72.31 0 99.84L292 391.84c-22.85-1.1-45.38-10.36-62.79-27.77zm69.92 27.83-35.19-35.19c12.53 5.39 26.3 6.99 39.57 4.79l25.01 25.01a96.256 96.256 0 0 1-29.39 5.39zm37.43-8.66-23.89-23.89a70.19 70.19 0 0 0 29.15-17.53c27.53-27.53 27.53-72.32 0-99.84L212 112.16c22.85 1.1 45.37 10.35 62.78 27.76l.02.02 89.27 89.28c37.18 37.18 37.18 97.68 0 134.86a95.001 95.001 0 0 1-27.51 19.16zm18.55-203.27 54.69 54.69-3.54 3.54-60.72-60.72c1.24.42 2.47.82 3.67 1.2 2.08.64 4.05 1.06 5.9 1.29zM432 232.63l-3.54 3.54-58.9-58.9c1.57-.88 2.94-1.9 4.13-2.94l58.31 58.3zm-81.29-58.73c2.85.9 5.42 1.29 7.74 1.29 13.2 0 18.29-12.83 20.66-18.82.37-.93.69-1.74.95-2.3 2.19-4.68 7.46-9.59 7.5-9.63l32.12-32.11-5.66-5.66-9.97 9.97-2.09-2.15 14.78-14.78c1.64-1.68 3.74-2.79 6.18-2.85 2.13-.05 4.1-1.13 5.26-2.88 2.72-4.1 2.99-9.25.7-13.44-1.66-3.04-7.33-10.42-13.52-8.08-8.85 3.34-29.08 27.35-34.44 34.89-2.87 3.85-6.07 8.6-.5 14.17 7.29 7.29 14.34.16 14.34.16l3.66-3.66 2.09 2.15-18.44 18.44c-.72.67-6.51 6.2-9.26 12.06-.37.79-.73 1.7-1.15 2.75-3.47 8.76-7.5 16.33-18.55 12.84-19.5-6.15-33.46-14.35-37.33-21.93-1.2-2.35-1.41-4.61-.64-6.92l-7.59-2.52c-1.46 4.39-1.08 8.79 1.11 13.09 6.71 13.13 29.23 21.87 42.05 25.92zm57.3-91.74 4.96 4.96-3.54 3.54-4.96-4.96 3.54-3.54zm-5.65 5.66 4.96 4.96-3.54 3.54-4.96-4.96 3.54-3.54zm-4.24 14.15-4.96-4.96 3.54-3.54 4.96 4.96-3.54 3.54zM148.89 324.03 94.2 269.35l3.54-3.54 60.72 60.72c-1.24-.42-2.47-.82-3.67-1.2a33.75 33.75 0 0 0-5.9-1.3zm-18.59 5.64L72 271.37l3.54-3.54 58.9 58.9c-1.58.88-2.95 1.89-4.14 2.94zm22.99.43c-2.85-.9-5.42-1.29-7.74-1.29-13.2 0-18.29 12.83-20.66 18.82-.37.93-.69 1.74-.95 2.3-2.19 4.68-7.46 9.59-7.5 9.63l-32.12 32.11 5.66 5.66 9.97-9.97 2.09 2.15-14.78 14.79c-1.64 1.68-3.74 2.79-6.18 2.85-2.13.05-4.1 1.13-5.26 2.88-2.72 4.1-2.99 9.25-.7 13.44 1.66 3.04 7.33 10.42 13.52 8.08 8.85-3.34 29.08-27.35 34.44-34.89 2.87-3.85 6.07-8.6.5-14.17-7.29-7.29-14.34-.16-14.34-.16l-3.66 3.66-2.09-2.15 18.44-18.44c.72-.67 6.51-6.2 9.26-12.06.37-.79.73-1.7 1.15-2.75 3.47-8.76 7.5-16.33 18.55-12.84 19.5 6.15 33.46 14.35 37.33 21.93 1.2 2.35 1.41 4.61.64 6.92l7.59 2.52c1.46-4.39 1.08-8.79-1.11-13.09-6.71-13.14-29.23-21.88-42.05-25.93zm-57.3 91.74-4.96-4.96 3.54-3.54 4.96 4.96-3.54 3.54zm5.65-5.66-4.96-4.96 3.54-3.54 4.96 4.96-3.54 3.54zm4.24-14.15 4.96 4.96-3.54 3.54-4.96-4.96 3.54-3.54z"></path></svg>