<svg viewbox="0 0 504 504" xml:space="preserve" xmlns="http://www.w3.org/2000/svg"><path d="M95.68 194.47c-5.8 3.06-11.8 6.21-23.68 6.21v-5c10.64 0 15.84-2.74 21.35-5.64 5.8-3.06 11.8-6.21 23.68-6.21s17.88 3.16 23.68 6.21c5.51 2.9 10.71 5.64 21.35 5.64s15.84-2.74 21.34-5.64l.64-.35-78.86-78.86 5.66-5.66 109.82 109.82 1.44 10.29-2.94-.47-10.54-10.54c-.5-.01-1.01-.02-1.54-.02-10.64 0-15.84 2.74-21.34 5.64-3.19 1.68-6.44 3.39-10.69 4.59a45.408 45.408 0 0 0-7.04-3.71c6.85-.81 11.03-3 15.4-5.3 5.22-2.75 10.62-5.57 20.29-6.11l-15.93-15.93c-.68.35-1.35.7-2.03 1.05-5.8 3.06-11.8 6.21-23.67 6.21-11.87 0-17.88-3.16-23.68-6.21-5.51-2.9-10.71-5.64-21.35-5.64s-15.86 2.73-21.36 5.63zm153.57-37.61c.22-.83.75-1.83 2.75-1.83s2.53 1 2.75 1.83c.73 2.9 3.66 4.57 7.57 5.26l20.79-20.79c-3.42-.08-7.21.38-10.8 1.28-6.97 1.75-13.83 5.28-16.52 9.39-1.06-.62-2.33-.97-3.78-.97-1.46 0-2.73.35-3.78.97-1.52-2.32-4.36-4.45-7.8-6.18l-14.95 14.95c.52.15 1.04.29 1.57.43 3.34.84 6.84 1.3 10.06 1.3 6.07 0 11.15-1.69 12.14-5.64zM111.4 239.95c1.07-1.84 2.26-3.6 3.56-5.26-10.52.34-16.16 3.31-21.61 6.18-5.51 2.9-10.71 5.64-21.35 5.64v5c11.87 0 17.88-3.16 23.68-6.21 4.43-2.34 8.68-4.57 15.72-5.35zm5.63-25.71c9.92 0 15.11 2.38 20.24 5.06a44.64 44.64 0 0 1 7.78-1.66c-1.49-.69-2.91-1.43-4.34-2.19-5.8-3.06-11.8-6.21-23.68-6.21s-17.88 3.16-23.68 6.21c-5.51 2.9-10.71 5.64-21.35 5.64v5c11.87 0 17.88-3.16 23.68-6.21 5.5-2.9 10.71-5.64 21.35-5.64zm92.31-65.6c.32 3.96 5.01 7.69 10.93 10.26l15.17-15.17c-1.23-.43-2.48-.8-3.74-1.12-5.98-1.5-12.51-1.8-16.97-.37 6.1-10.1 20.48-17.21 37.27-17.21 16.79 0 31.17 7.1 37.27 17.2l-20.18 20.18c2.59-.16 5.28-.57 7.88-1.23 8.72-2.19 17.26-7.16 17.69-12.56 1.8-11.96 2.3-38.37-10.38-55.88-1.07-1.47-2.19-2.82-3.39-4.04l-.01-.01c-1.45 2.3-3.57 4.62-6.37 6.96-6.38 5.32-17.07 7.63-28.39 10.09-18.21 3.95-37.05 8.03-37.64 24.71-.3 7.28.19 13.74.86 18.19zm61.88-56.91c2.1-1.75 4.37-4 5.69-6.4-6.11-4.32-13.99-6.26-24.9-6.26-15.88 0-25.34 4.11-32.28 13.7-4.55 6.29-7.4 13.72-9.1 21.22 8.14-7.54 21.83-10.51 34.42-13.24 10.67-2.33 20.76-4.51 26.17-9.02zM150.61 266.58h21.94c.24-1.3.37-2.63.37-4s-.13-2.7-.37-4h-21.94v8zm151.06-4c0-5.15.98-10.08 2.74-14.61-25.14-10.11-52.6-17.37-74.29-21.41l-2.87-.53-3.89-27.69 8.04-1.13 3.08 21.92c21.82 4.24 48.82 11.55 73.63 21.6 7.18-11.09 19.65-18.44 33.85-18.44 22.25 0 40.29 18.04 40.29 40.29s-18.04 40.29-40.29 40.29-40.29-18.04-40.29-40.29zm12.98 0c0 15.06 12.25 27.3 27.3 27.3 7.29 0 14.15-2.84 19.31-8 5.16-5.16 8-12.01 8-19.31 0-15.06-12.25-27.3-27.3-27.3-8.82 0-16.66 4.2-21.66 10.71 8.79 4.03 17.12 8.42 24.62 13.17l-4.34 6.86c-7.35-4.65-15.56-8.96-24.22-12.91-1.1 2.95-1.71 6.15-1.71 9.48zm-123.92-3.62c5.58.49 11.2 1.44 16.72 2.85-3.36-2.95-6.49-6.12-9.32-9.5-3.06-3.66-5.63-7.41-7.62-11.14a6.104 6.104 0 0 1 2.5-8.26 6.104 6.104 0 0 1 8.26 2.5c1.6 3 3.7 6.05 6.23 9.08 5.76 6.9 22.24 23.43 50.68 28.05 3.17.51 5.37 3.39 5.09 6.54 7.59.75 15.94.81 25.05-.22l-18.17-21.66 4.73-14.36c2.54.79 5.08 1.6 7.62 2.44l-3.35 10.18 5.5 6.55 4.74-14.38c2.52.89 5.02 1.81 7.51 2.76l-6.2 18.83 7.24 8.63c1.17 1.39 1.49 3.33.84 5.05-.63 1.67-2.09 2.87-3.81 3.14-7.21 1.12-14.02 1.61-20.42 1.61-22.04 0-39.18-5.77-50.58-11.35-10.33-5.05-21.9-8.26-33.3-9.32-2.19 20.19-19.28 35.9-40.05 35.9-22.25 0-40.29-18.04-40.29-40.29s18.04-40.29 40.29-40.29c21.02-.01 38.28 16.1 40.11 36.66zm-12.81 3.62c0-15.06-12.25-27.3-27.3-27.3s-27.3 12.25-27.3 27.3c0 15.06 12.25 27.3 27.3 27.3s27.3-12.24 27.3-27.3zm217.49-59.79c2.85 4.25 5.08 8.86 6.62 13.72l4.77-1.51a58.857 58.857 0 0 0-7.24-15l-4.15 2.79zm13.16 40.95c.66-3.54.99-7.18.99-10.82 0-1.94-.09-3.89-.28-5.81l-4.98.49c.17 1.76.26 3.55.26 5.32 0 3.33-.31 6.67-.9 9.91l4.91.91zm-31.8-60.94 11.38 11.29 3.49-3.58-11.33-11.24-3.54 3.53zM105.5 266.49c-.11-1.29-.18-2.59-.18-3.91 0-.41.02-.81.03-1.22-4.91 1.2-8.49 3.08-12 4.93-5.51 2.9-10.71 5.64-21.35 5.64v5c11.87 0 17.88-3.16 23.68-6.21 3.04-1.61 5.99-3.16 9.82-4.23zM357.07 163.1l11.31 11.31 3.54-3.54-11.31-11.31-3.54 3.54zm39.5 106.81c3.5-4.36 6.35-9.18 8.49-14.32l-4.62-1.92a54.261 54.261 0 0 1-7.77 13.11l3.9 3.13zm-281.56 20.61c-1.2-1.52-2.31-3.12-3.3-4.79-8.48.79-13.49 3.41-18.35 5.97-5.51 2.9-10.71 5.64-21.35 5.64v5c11.87 0 17.88-3.16 23.68-6.21 5.13-2.71 10.02-5.28 19.32-5.61zm106.75-9.73c-.95-.46-1.91-.9-2.87-1.33l-39.86 39.86c-4.24 1.95-9.13 3.44-16.98 3.44-10.64 0-15.84-2.74-21.35-5.64-5.8-3.06-11.8-6.21-23.68-6.21s-17.88 3.16-23.68 6.21c-5.51 2.9-10.71 5.64-21.35 5.64v5c11.87 0 17.88-3.16 23.68-6.21 5.51-2.9 10.71-5.64 21.35-5.64s15.84 2.74 21.35 5.64c5.8 3.06 11.8 6.21 23.68 6.21 3.59 0 6.64-.29 9.32-.78l-20 20c-4.24-1.07-7.4-2.72-10.67-4.44-5.8-3.06-11.8-6.21-23.68-6.21s-17.88 3.16-23.68 6.21c-5.51 2.9-10.71 5.64-21.35 5.64v5c11.87 0 17.88-3.16 23.68-6.21 5.51-2.9 10.71-5.64 21.35-5.64s15.84 2.74 21.35 5.64c2.74 1.44 5.54 2.9 8.97 4.04l-42.17 42.17 5.66 5.66 115.81-115.81c-1.73-.75-3.35-1.5-4.88-2.24zm124.65 107.57c1.57 4.74 1.18 9.46-1.16 14.06-6.78 13.27-29.1 22.65-46.64 28.18-3.1.98-5.91 1.41-8.43 1.41-14.46 0-20.04-14.09-22.65-20.67-.42-1.05-.77-1.95-1.07-2.59-2.03-4.34-6.68-8.74-8.29-10.07l-.25-.23-34.73-33.88 5.59-5.73 10.13 9.88 2.59-2.67-16.72-16.26c-1.85-1.85-4.21-3.05-6.93-3.08-2.37-.03-4.58-1.2-5.9-3.13-3.09-4.53-3.47-10.26-.98-14.97 1.8-3.41 8-11.72 14.94-9.21 9.91 3.59 32.82 30.02 38.92 38.35 3.26 4.24 6.9 9.49.77 15.79-8.01 8.24-15.98.4-15.98.4l-4.53-4.4-2.6 2.67 20.92 20.4c1.05.89 7.32 6.35 10.31 12.74.41.87.8 1.87 1.27 3.04 3.95 9.97 8.54 18.58 21.24 14.58 22.39-7.06 37.67-15.88 41.92-24.19 1.35-2.65 1.58-5.23.7-7.9l7.56-2.52zm-113.85-48.97 5.45-5.6-3.58-3.49-5.45 5.6 3.58 3.49zm12.02.79L241 336.7l-5.45 5.6 3.58 3.49 5.45-5.61zm-2.46 8.51 3.58 3.49 5.45-5.6-3.58-3.49-5.45 5.6zM432 232.92c0-22.97-9.77-45-26.79-60.45l-34.01-34.01 27.63-27.63-5.66-5.66-118.66 118.66c2.92.86 5.8 1.74 8.66 2.65l52.79-52.79 35.63 35.63.09.09c6.63 6 10.43 14.57 10.43 23.51 0 2.47-.29 4.9-.83 7.24 1.21 2.12 2.26 4.33 3.12 6.64a36.75 36.75 0 0 0 2.71-13.88c0-10.32-4.38-20.22-12.03-27.17l-35.59-35.59L367.66 142l34.05 34.05.09.09c16.01 14.5 25.2 35.2 25.2 56.78 0 42.23-34.36 76.59-76.59 76.59h-35.29l-18.69-18.69c-.24.06-.47.12-.71.16-3.18.49-6.28.86-9.31 1.13l106.58 106.58 5.66-5.66-78.52-78.52h30.29c44.98 0 81.58-36.61 81.58-81.59z"></path></svg>