<?xml version="1.0" encoding="utf-8"?>
<!-- Generator: Adobe Illustrator 28.3.0, SVG Export Plug-In . SVG Version: 6.00 Build 0)  -->
<svg version="1.1" id="Layer_1" xmlns="http://www.w3.org/2000/svg" xmlns:xlink="http://www.w3.org/1999/xlink" x="0px" y="0px"
	 viewBox="0 0 720 720" style="enable-background:new 0 0 720 720;" xml:space="preserve">
<path d="M384.4,346.2h-16.3c-4.1,0-7.6,3.4-7.6,7.6v65c0,4.1,3.4,7.6,7.6,7.6h16.3c4.1,0,7.6-3.3,7.6-7.6v-65
	C392,349.6,388.7,346.2,384.4,346.2z"/>
<path d="M385.5,487.7h-18.1c-3.7,0-6.5,2.9-6.5,6.5v98.5c0,3.7,2.9,6.5,6.5,6.5h18.1c3.7,0,6.5-2.9,6.5-6.5v-98.5
	C392,490.6,389.2,487.7,385.5,487.7z"/>
<path d="M426.3,250.3l85.5-95.6c2.6-2.9,2.3-7.2-0.6-9.7l-13.1-11.7c-2.9-2.6-7.2-2.3-9.7,0.6l-85.5,95.6c-2.6,2.9-2.3,7.2,0.6,9.7
	l13.1,11.7C419.4,253.5,423.8,253.2,426.3,250.3z"/>
<path d="M330.2,320.9c-2.9-2.6-7.2-2.3-9.7,0.6L235,417.1c-2.6,2.9-2.3,7.2,0.6,9.7l13.1,11.7c2.9,2.6,7.2,2.3,9.7-0.6l85.5-95.6
	c2.6-2.9,2.3-7.2-0.6-9.7L330.2,320.9z"/>
<path d="M429.9,315.6c-2.9-2.6-7.2-2.3-9.7,0.6l-11.7,13.1c-2.6,2.9-2.3,7.2,0.6,9.7l95.6,85.5c2.9,2.6,7.2,2.3,9.7-0.6l11.7-13.1
	c2.6-2.9,2.3-7.2-0.5-9.7L429.9,315.6z"/>
<path d="M316.9,256.4c2.9,2.6,7.2,2.3,9.7-0.6l11.7-13.1c2.6-2.9,2.3-7.2-0.6-9.7l-95.6-85.5c-2.9-2.6-7.2-2.3-9.7,0.6l-11.7,13.1
	c-2.6,2.9-2.3,7.2,0.6,9.7L316.9,256.4z"/>
<path d="M527,267.5L433,268c-3.8,0-6.8,3.2-6.8,7l0.2,17.5c0,3.8,3.2,6.8,7,6.8l94.1-0.5c3.8,0,6.9-3.2,6.9-7l-0.2-17.5
	C533.9,270.6,530.8,267.5,527,267.5z"/>
<path d="M316.3,292.9v-17.5c0-3.8-3.2-6.8-7-6.8l-86,0.3c-3.8,0-6.8,3.2-6.8,7l0.2,17.5c0,3.8,3.2,6.8,7,6.8l86-0.3
	C313.2,299.9,316.3,296.7,316.3,292.9z"/>
<path d="M378.8,229c4.3,0,7.8-3.5,7.8-7.8l-0.5-92.1c0-4.3-3.5-7.8-7.8-7.8h-15.8c-4.3,0-7.8,3.5-7.8,7.8l0.5,92.1
	c0,4.3,3.5,7.8,7.8,7.8H378.8z"/>
<path d="M640.2,505.3h-8.1c-2.9,0-5.2,2.3-5.2,5.2v32.4c0,2.9,2.3,5.2,5.2,5.2h8.1c2.9,0,5.2-2.3,5.2-5.2v-32.4
	C645.4,507.5,643.1,505.3,640.2,505.3z"/>
<path d="M662,461.4c0.2,0,0.2,0,0.3,0c1.2,0,2.1-0.6,2.9-1.4l42.2-47c0.8-0.9,1.2-2,1.1-3c0-1.2-0.6-2.1-1.4-2.9l-7.3-6.5
	c-1.8-1.5-4.4-1.4-6.1,0.3l-42.2,47c-1.5,1.8-1.4,4.4,0.3,6.1l7.3,6.5C659.9,460.9,660.9,461.4,662,461.4z"/>
<path d="M610.7,488.5c-0.8-0.8-2-1.1-3-1.1c-1.1,0-2.1,0.6-2.9,1.4L562.5,536c-1.5,1.7-1.4,4.4,0.3,5.9l7.3,6.5
	c0.8,0.8,1.8,1.1,2.7,1.1c0.2,0,0.2,0,0.3,0c1.1,0,2.1-0.6,2.9-1.4l42.3-47.2c1.5-1.7,1.4-4.4-0.3-5.9L610.7,488.5z"/>
<path d="M667,486.4c-2-1.8-5-1.7-6.8,0.3l-5.8,6.4c-1.8,2-1.7,5,0.3,6.8l46.3,41.4c0.9,0.8,2.1,1.2,3.2,1.2c1.4,0,2.7-0.6,3.7-1.7
	l5.8-6.4c0.9-0.9,1.4-2.3,1.2-3.5c0-1.4-0.6-2.4-1.7-3.3L667,486.4z"/>
<path d="M603,462.5c0.9,0.8,2,1.2,3.2,1.2c1.2,0,2.6-0.5,3.5-1.5l5.9-6.7c1.7-2,1.5-4.9-0.3-6.5l-46.4-41.7c-2-1.7-4.9-1.5-6.7,0.3
	l-5.9,6.7c-0.8,0.9-1.2,2.1-1.2,3.4s0.6,2.4,1.5,3.2L603,462.5z"/>
<path d="M599.3,481.3c0.9-0.9,1.4-2,1.4-3.2v-9.3c0-1.2-0.5-2.3-1.4-3.2c-0.9-0.9-2-1.4-3.2-1.4l-42.9,0.2c-1.2,0-2.3,0.5-3.2,1.4
	c-0.9,0.9-1.4,2-1.4,3.2v9.3c0,2.4,2,4.6,4.6,4.6l42.9-0.2C597.3,482.7,598.4,482.3,599.3,481.3z"/>
<path d="M720,468.9c0-1.2-0.5-2.3-1.4-3.2c-0.9-0.9-2-1.4-3.2-1.4l-42.9,0.2c-1.2,0-2.3,0.5-3.2,1.4c-0.9,0.9-1.4,2-1.4,3.2v9.3
	c0,2.4,2,4.6,4.6,4.6l42.9-0.2c1.2,0,2.3-0.5,3.2-1.4c0.9-0.9,1.4-2,1.4-3.2V468.9z"/>
<path d="M629.3,445.1h9c2.6,0,4.7-2.1,4.7-4.7l-0.2-46.1c0-2.6-2.1-4.7-4.7-4.7h-8.8c-2.6,0-4.7,2.1-4.7,4.7l0.2,46.1
	C624.6,443,626.7,445.1,629.3,445.1z"/>
<path d="M108.1,150.7c0-5.8-4.7-10.5-10.5-10.5c-5.8,0-10.5,4.7-10.5,10.5c0,5.8,4.7,10.5,10.5,10.5
	C103.3,161.2,108.1,156.4,108.1,150.7z"/>
<path d="M146.1,212.4c5.8,0,10.5-4.7,10.5-10.5c0-5.8-4.7-10.5-10.5-10.5c-5.8,0-10.5,4.7-10.5,10.5
	C135.8,207.7,140.5,212.4,146.1,212.4z"/>
<path d="M571.2,226.7c5.8,0,10.5-4.7,10.5-10.5c0-5.8-4.7-10.5-10.5-10.5s-10.5,4.7-10.5,10.5C560.7,222,565.4,226.7,571.2,226.7z"
	/>
<path d="M457.5,517.4c5.8,0,10.5-4.7,10.5-10.5c0-5.8-4.7-10.5-10.5-10.5c-5.8,0-10.5,4.7-10.5,10.5
	C447,512.7,451.7,517.4,457.5,517.4z"/>
<path d="M146.1,517.9c-5.8,0-10.5,4.7-10.5,10.5c0,5.8,4.7,10.5,10.5,10.5c5.8,0,10.5-4.7,10.5-10.5
	C156.6,522.6,151.9,517.9,146.1,517.9z"/>
<path d="M91.8,362.5h-8.1c-2.9,0-5.2,2.3-5.2,5.2v32.4c0,2.9,2.3,5.2,5.2,5.2h8.1c2.9,0,5.2-2.3,5.2-5.2v-32.4
	C96.8,364.8,94.5,362.5,91.8,362.5z"/>
<path d="M113.4,318.7c0.2,0,0.2,0,0.3,0c1.2,0,2.1-0.6,2.9-1.4l42.2-47c0.8-0.9,1.2-2,1.1-3c0-1.2-0.6-2.1-1.4-2.9l-7.3-6.5
	c-0.9-0.8-2-1.1-3-1.1c-1.2,0-2.1,0.6-2.9,1.4l-42.2,47c-1.5,1.8-1.4,4.4,0.3,6.1l7.3,6.5C111.2,318.2,112.3,318.7,113.4,318.7z"/>
<path d="M62.1,345.7c-1.7-1.5-4.4-1.4-5.9,0.3l-42.3,47.2c-1.5,1.7-1.4,4.4,0.3,5.9l7.3,6.5c0.8,0.8,1.8,1.1,2.7,1.1
	c0.2,0,0.2,0,0.3,0c1.1,0,2.1-0.6,2.9-1.4l42.3-47.2c0.8-0.9,1.1-2,1.1-3s-0.6-2.1-1.4-2.9L62.1,345.7z"/>
<path d="M118.4,343.6c-0.9-0.9-2.1-1.4-3.5-1.2c-1.4,0-2.4,0.6-3.3,1.7l-5.8,6.4c-0.9,0.9-1.4,2.3-1.2,3.5c0,1.4,0.6,2.4,1.7,3.4
	l46.3,41.4c0.9,0.8,2,1.2,3.2,1.2c0.2,0,0.2,0,0.3,0c1.2,0,2.4-0.6,3.3-1.7l5.8-6.4c0.9-0.9,1.4-2.3,1.2-3.5c0-1.4-0.6-2.4-1.7-3.3
	L118.4,343.6z"/>
<path d="M54.3,319.7c0.9,0.8,2,1.2,3.2,1.2c0.2,0,0.2,0,0.3,0c1.2,0,2.4-0.6,3.2-1.5l5.9-6.7c0.8-0.9,1.2-2.1,1.2-3.3
	c0-1.2-0.6-2.4-1.5-3.2l-46.4-41.7c-0.9-0.8-2.1-1.2-3.3-1.2s-2.4,0.6-3.2,1.5l-5.9,6.7c-1.7,2-1.5,4.9,0.3,6.5L54.3,319.7z"/>
<path d="M172.9,322.6c-0.9-0.9-2-1.5-3.3-1.4l-46.4,0.2c-1.2,0-2.4,0.5-3.3,1.4c-0.9,0.9-1.4,2.1-1.4,3.3v9c0,1.2,0.5,2.4,1.4,3.4
	c0.9,0.9,2.1,1.4,3.3,1.4l46.4-0.2c1.2,0,2.4-0.5,3.3-1.4c0.9-0.9,1.4-2.1,1.4-3.3v-9C174.3,324.6,173.8,323.5,172.9,322.6z"/>
<path d="M50.7,338.6c0.9-0.9,1.4-2,1.4-3.2v-9.3c0-1.2-0.5-2.3-1.4-3.2c-0.9-0.9-2-1.4-3.2-1.4l-42.9,0.2c-1.2,0-2.3,0.5-3.2,1.4
	c-0.9,0.9-1.4,2-1.4,3.2v9.3c0,2.4,2,4.6,4.6,4.6l42.9-0.2C48.7,340,49.8,339.5,50.7,338.6z"/>
<path d="M80.7,302.4h9c2.6,0,4.7-2.1,4.7-4.7l-0.2-46.1c0-1.2-0.5-2.4-1.4-3.3c-0.9-0.9-2.1-1.4-3.3-1.4h-9c-1.2,0-2.4,0.5-3.3,1.4
	c-0.9,0.9-1.4,2.1-1.4,3.3l0.2,46.1c0,1.2,0.5,2.4,1.4,3.3C78.2,301.9,79.4,302.4,80.7,302.4z"/>
</svg>
