<svg viewbox="0 0 504 504" xml:space="preserve" xmlns="http://www.w3.org/2000/svg"><path d="m352.45 124.36-3-11.21 7.77-7.77 11.23 3.01a27.084 27.084 0 0 1-16 15.97zm-.32-37.95 8.19-8.2a26.886 26.886 0 0 0-21.79-5.8l2.99 11.16 10.61 2.84zm7.99 84.53c0-6.57-2.35-12.59-6.25-17.28l-8.2 8.2 2.84 10.61 11.22 3.01c.25-1.47.39-2.99.39-4.54zm-1.68 9.38-11.23-3.01-7.77 7.77 3 11.21c7.4-2.72 13.27-8.59 16-15.97zm-16.31-21.99 8.19-8.2a26.886 26.886 0 0 0-21.79-5.8l2.99 11.16 10.61 2.84zm-21.66 21.66-2.84-10.61-11.13-2.98a26.886 26.886 0 0 0 5.81 21.75l8.16-8.16zm25.44-70.38 7.77-7.77-2.84-10.61-10.61-2.84-7.77 7.77 2.84 10.61 10.61 2.84zm-9.22-24.75L333.7 73.7a27.118 27.118 0 0 0-15.92 15.94l11.14 2.99 7.77-7.77zm-10 71.93-2.99-11.16a27.118 27.118 0 0 0-15.92 15.94l11.14 2.99 7.77-7.77zM86.43 334.01l-8.17-8.17c-3.9 4.68-6.25 10.7-6.25 17.28 0 1.53.13 3.04.38 4.5l11.2-3 2.84-10.61zm244.04-225.95-2.84-10.61-11.13-2.98a26.886 26.886 0 0 0 5.81 21.75l8.16-8.16zm59.06 54.42 2.84-10.61-8.2-8.19a26.886 26.886 0 0 0-5.8 21.8l11.16-3zm-9.86 7.82a27.118 27.118 0 0 0 15.94 15.92l2.99-11.14-7.77-7.77-11.16 2.99zm42.53 11.4-8.16-8.17-10.61 2.84-2.98 11.13c1.48.25 2.99.39 4.54.39 6.54 0 12.54-2.32 17.21-6.19zm-4.63-11.71 8.17 8.17c3.9-4.68 6.25-10.7 6.25-17.28 0-1.53-.13-3.04-.38-4.5l-11.2 3-2.84 10.61zm-4.83-1.29 2.84-10.61-7.77-7.77-10.61 2.84-2.84 10.61 7.77 7.77 10.61-2.84zm17.59-17.15a27.068 27.068 0 0 0-15.97-15.99l-3.01 11.23 7.77 7.77 11.21-3.01zm-71.82-51 11.22 3.01a26.933 26.933 0 0 0-5.86-21.82l-8.2 8.2 2.84 10.61zm-17.67 62.61-10.61-2.84-7.77 7.77 2.84 10.61 10.61 2.84 7.77-7.77-2.84-10.61zm65.68-17.67 3.01-11.22a26.933 26.933 0 0 0-21.82 5.86l8.2 8.2 10.61-2.84zm-82.51 38.04-8.17 8.17c4.68 3.9 10.7 6.25 17.28 6.25 1.53 0 3.04-.13 4.5-.38l-3-11.19-10.61-2.85zm19.1-57.51c1.53 0 3.04-.13 4.5-.38l-3-11.19-10.61-2.84-8.17 8.17a26.98 26.98 0 0 0 17.28 6.24zM91.26 335.3l-2.84 10.61 7.77 7.77 10.61-2.84 2.84-10.61-7.77-7.77-10.61 2.84zm76.05 83.84 2.99 11.16a27.118 27.118 0 0 0 15.92-15.94l-11.14-2.99-7.77 7.77zm-15.44-1.55-8.19 8.2a26.886 26.886 0 0 0 21.79 5.8l-2.99-11.16-10.61-2.84zm21.66-21.65 2.84 10.61 11.13 2.98a26.886 26.886 0 0 0-5.81-21.75l-8.16 8.16zm-37.97-.33 11.23 3.01 7.77-7.77-3-11.21a27.031 27.031 0 0 0-16 15.97zm8.32-62.55c0 6.57 2.35 12.59 6.25 17.28l8.2-8.2-2.84-10.61-11.22-3.01c-.25 1.47-.39 2.99-.39 4.54zm102.01-71.42 6.11-6.11 6.11 6.11 3.54-3.54-6.11-6.11 6.11-6.11-3.54-3.54-6.11 6.11-6.11-6.11-3.54 3.54 6.11 6.11-6.11 6.11 3.54 3.54zm-68.58 85.57 2.99 11.16a27.118 27.118 0 0 0 15.92-15.94l-11.14-2.99-7.77 7.77zm-31.75-23.53 11.23 3.01 7.77-7.77-3-11.21a27.058 27.058 0 0 0-16 15.97zm-21.23 10.02a27.118 27.118 0 0 0-15.94-15.92l-2.99 11.14 7.77 7.77 11.16-2.99zm94.78-144.09c0 16.3-13.21 29.51-29.51 29.51s-29.51-13.21-29.51-29.51 13.21-29.51 29.51-29.51 29.51 13.21 29.51 29.51zm-33.44-24.19 2.34 8.73 10.61 2.84 6.42-6.42c-4.35-3.54-9.75-5.47-15.44-5.47-1.32 0-2.64.11-3.93.32zm11.66 16.41-10.61-2.84-7.77 7.77 2.69 10.06.15.55 10.61 2.84 7.77-7.77-2.84-10.61zm-30.63-.95 8.72 2.34 7.77-7.77-2.34-8.73a24.42 24.42 0 0 0-8.56 5.56 24.517 24.517 0 0 0-5.59 8.6zm3.88 24.17 6.39-6.39-2.84-10.61-8.71-2.33c-.2 1.28-.31 2.58-.31 3.89a24.25 24.25 0 0 0 5.47 15.44zm22.88 8.76-2.35-8.77-10.61-2.84-6.4 6.39c4.37 3.58 9.78 5.52 15.5 5.52 1.31 0 2.6-.1 3.86-.3zm19.05-15.48-8.8-2.36-7.77 7.77 2.35 8.78c3.2-1.21 6.15-3.1 8.64-5.59 2.49-2.48 4.37-5.41 5.58-8.6zm1.6-8.72c0-5.72-1.95-11.14-5.53-15.5l-6.43 6.43 2.84 10.61 8.8 2.36c.22-1.28.32-2.58.32-3.9zm-30.58 134.4 2.84 10.61 11.13 2.98a26.886 26.886 0 0 0-5.81-21.75l-8.16 8.16zm248.47-1.5L322.51 432 221.13 330.61V396h-8V290.87H108v-8h65.39L72 181.49 181.49 72l101.39 101.39V108h8v105.13H396v8h-65.39L432 322.51zm-210.87-39.64v21.76h83.5l.07-83.5h-21.82V184.7L181.49 83.31l-98.17 98.17L184.7 282.87h36.43zm57.77 94.2 98.17-98.17-57.77-57.77h-9.6l-.07 88.5h-88.5v9.67l57.77 57.77zm57.03 30.2-40.08-40.08-13.42 13.42 40.08 40.08 13.42-13.42zm16.95-16.95-40.08-40.08-13.42 13.42 40.08 40.08 13.42-13.42zm16.95-16.95-40.08-40.08-13.42 13.42 40.08 40.08 13.42-13.42zm16.95-16.95-40.08-40.08-13.42 13.42 40.08 40.08 13.42-13.42zm16.96-16.96-40.08-40.08-13.42 13.42 40.08 40.08 13.42-13.42zm3.53-3.53 13.42-13.42-40.08-40.08-13.42 13.42 40.08 40.08zm-292.8 5.59-2.84 10.61 8.2 8.19a26.886 26.886 0 0 0 5.8-21.8l-11.16 3zm-16.99 16.99-3.01 11.22a26.933 26.933 0 0 0 21.82-5.86l-8.2-8.2-10.61 2.84zm-23.81-6.06a27.068 27.068 0 0 0 15.97 15.99l3.01-11.23-7.77-7.77-11.21 3.01zm8.13-30.15 8.16 8.17 10.61-2.84 2.98-11.13a27.18 27.18 0 0 0-4.54-.39c-6.54 0-12.54 2.32-17.21 6.19zm80.07 23.37-8.19 8.2a26.886 26.886 0 0 0 21.79 5.8l-2.99-11.16-10.61-2.84zm-16.38 57.78-11.22-3.01a26.933 26.933 0 0 0 5.86 21.82l8.2-8.2-2.84-10.61zm15.4-25.47c-1.53 0-3.04.13-4.5.38l3 11.19 10.61 2.84 8.17-8.17a26.98 26.98 0 0 0-17.28-6.24zm-2.8 16.41-7.77 7.77 2.84 10.61 10.61 2.84 7.77-7.77-2.84-10.61-10.61-2.84zm21.9-73.92 8.17-8.17c-4.68-3.9-10.7-6.25-17.28-6.25-1.53 0-3.04.13-4.5.38l3 11.19 10.61 2.85zm-16.83 20.37 10.61 2.84 7.77-7.77-2.84-10.61-10.61-2.84-7.77 7.77 2.84 10.61z"></path></svg>