<svg viewbox="0 0 504 504" xml:space="preserve" xmlns="http://www.w3.org/2000/svg"><path d="M215.33 141.4c.12 0 .23-.01.34-.02 1.97 10.77 10.17 19.37 20.74 21.87l3.19.75c4.03.95 8.21 1.43 12.4 1.43 4.2 0 8.37-.48 12.4-1.43l3.19-.75c10.57-2.51 18.77-11.11 20.74-21.87.11.01.23.02.34.02 3.31 0 6-2.69 6-6V114c0-3.31-2.68-5.99-5.99-6-.34-5.16-1.55-11.07-3.49-15.1-.63-1.31-1.95-2.12-3.4-2.19C276.45 79.64 265.12 72 252 72c-13.12 0-24.45 7.64-29.79 18.71-1.44.07-2.77.88-3.4 2.19-1.94 4.04-3.15 9.94-3.49 15.1a6.003 6.003 0 0 0-5.99 6v21.4c0 3.32 2.69 6 6 6zm17.82-34.35c.88-.06 1.77-.03 2.65.08l7.35.9a72.747 72.747 0 0 0 17.7 0l7.35-.9c.88-.11 1.76-.14 2.65-.08 4.15.3 8.25.99 12.27 2.04l-1.82 16.56c-2.28 10.87-2.64 22.92-17.28 29.87-1.38.66-2.33 1.98-2.44 3.5-.01.16-.01.31-.01.47-6.26 1.24-12.86 1.23-19.12 0 .01-.15 0-.31-.01-.47a4.25 4.25 0 0 0-2.44-3.5c-14.64-6.96-15.01-19.01-17.28-29.87l-1.82-16.56c4-1.05 8.11-1.74 12.25-2.04zm55.52 255.55c-.12 0-.23.01-.34.02-1.97-10.77-10.17-19.37-20.74-21.87l-3.19-.75c-8.06-1.9-16.74-1.9-24.8 0l-3.19.75h-.01c-10.56 2.51-18.77 11.11-20.73 21.87-.11-.01-.23-.02-.34-.02-3.31 0-6 2.69-6 6V390c0 3.31 2.68 5.99 5.99 6 .34 5.16 1.55 11.07 3.49 15.1.63 1.31 1.95 2.12 3.4 2.19C227.55 424.36 238.88 432 252 432c13.12 0 24.45-7.64 29.79-18.71 1.44-.07 2.77-.88 3.4-2.19 1.94-4.04 3.15-9.94 3.49-15.1 3.31 0 5.99-2.69 5.99-6v-21.4c0-3.32-2.68-6-6-6zm-17.82 34.35c-.88.06-1.77.03-2.65-.08l-7.35-.9a72.747 72.747 0 0 0-17.7 0l-7.35.9c-.88.11-1.76.14-2.65.08-4.15-.3-8.25-.99-12.27-2.04l1.82-16.56c2.28-10.87 2.64-22.92 17.28-29.87 1.38-.66 2.33-1.98 2.44-3.5.01-.16.01-.31.01-.47 6.26-1.23 12.86-1.24 19.12 0-.01.15 0 .31.01.47a4.25 4.25 0 0 0 2.44 3.5c14.64 6.96 15.01 19.01 17.28 29.87l1.82 16.56c-4 1.05-8.11 1.74-12.25 2.04zM306.7 233.4h5v37.19h-5V233.4zm-109.4 37.2h-5v-37.2h5v37.2zM432 252l-87.17-87.17 54-54-5.66-5.66-83.85 83.85-22.09-22.09h-16.07l-.59 1.66c-2.81 7.82-10.27 13.07-18.57 13.07s-15.76-5.25-18.57-13.07l-.59-1.66h-16.07l-22.09 22.09-83.85-83.85-5.66 5.66 54 54L72 252l87.17 87.17-54 54 5.66 5.66 83.85-83.85 22.09 22.09h16.07l.59-1.66c2.81-7.82 10.27-13.07 18.57-13.07s15.76 5.25 18.57 13.07l.59 1.66h16.07l22.09-22.09 83.85 83.85 5.66-5.66-54-54L432 252zm-185.66 0-53.78 53.78-20.62-20.62v-66.33l20.62-20.62L246.34 252zm11.32 0 53.78-53.78 20.62 20.62v66.33l-20.62 20.62L257.66 252zm-38.82-80.06h10.55c3.93 8.88 12.8 14.73 22.61 14.73s18.68-5.85 22.61-14.73h10.55l20.62 20.62H198.22l20.62-20.62zm-54.01 161.58L83.31 252l81.51-81.52 24.2 24.2-22.09 22.09v70.47l22.09 22.09-24.19 24.19zm120.33-1.46h-10.55c-3.93-8.88-12.81-14.73-22.61-14.73s-18.67 5.85-22.61 14.73h-10.55l-20.62-20.62h107.57l-20.63 20.62zm51.9-44.83v-70.47l-22.09-22.09 24.2-24.2L420.69 252l-81.51 81.52-24.2-24.2 22.08-22.09z"></path></svg>