<svg viewbox="0 0 504 504" xml:space="preserve" xmlns="http://www.w3.org/2000/svg"><path d="M428.36 214.53c-1.94-4.8-4.72-7.83-8.29-9.04v-4.7h-41.51c-19.66 0-31.39 15.69-31.39 41.96 0 23.95 12.32 39.42 31.39 39.42h2.36c4.18 0 7.59 3.34 7.72 7.49 1.61-.08 2.97-.68 4.13-1.85 3.71-3.72 4.5-12.12 4.49-15.06v-7.96h5v7.95c0 .51 0 12.63-5.93 18.59-2.11 2.13-4.7 3.24-7.67 3.33v5.53h1.04c4.77 0 8.55-1.5 11.55-4.59 7.51-7.73 7.17-22.62 7.16-22.85v-7.96h5v7.88c.02.69.42 17.13-8.56 26.39-3.94 4.06-9.04 6.12-15.15 6.12h-1.04v5.57h2.5c7.45 0 13.65-2.49 18.45-7.41 10.85-11.12 10.49-30.71 10.47-31.53v-60.77c1.2.88 2.48 2.46 3.65 5.35l3.64 9.02 4.63-1.87-3.64-9.01zM378 277.15c-15.95-.3-25.84-13.42-25.84-34.4 0-23.23 9.41-36.65 25.84-36.94v71.34zm13-30.84h-5v-40.52h5v40.52zm24.07 0H396v-40.52h19.07v40.52zm-97.46-56.17-3.85-3.85c24.55-23.88 51.63-50.05 80.89-78.07.31-.3.8-.29 1.11.01.3.3.31.8.01 1.11-29.26 30.39-55.23 57.21-78.16 80.8zm-13.97 100.64c.25-.02.5-.07.75-.12a4.478 4.478 0 0 0 4.46 4.06c2.49 0 4.5-2.01 4.5-4.5 0-2.12-1.47-3.89-3.45-4.36a7.34 7.34 0 0 0-.45-5.85l-5.99-11.23c1.17-8.49.03-18.59-3.76-28.7-7.13-19.04-21.31-31.92-33.85-31.92-2.06 0-4.08.35-6.01 1.07-1.96.73-3.72 1.83-5.29 3.21l-3.04-14.5a4.441 4.441 0 0 0-4.34-3.53h-31.13c-2.82 0-4.92 2.59-4.34 5.34l1.77 8.47c5.75-3.85 11.85-6 17.82-6 2.88 0 5.67.5 8.31 1.49 5.28 1.98 9.61 5.76 12.76 10.99 1.59 2.65 2.88 5.67 3.83 9.02 1.55-3.53 3.79-6.01 6.46-7.01 1.01-.38 2.06-.56 3.21-.56 7.92 0 19.86 9.37 26.36 26.73 7.21 19.24 3.1 36.08-5.1 39.15-1.01.38-2.06.56-3.21.56-7.92 0-19.86-9.37-26.36-26.73-.39-1.04-.74-2.06-1.06-3.08-.8 3.75-1.9 7.52-3.3 11.26-.12.33-.26.65-.38.98 5.54 11.24 13.57 19.62 21.79 23.38-1.86.12-3.73.12-5.58-.02l-35.18-2.46c5.9-5.99 11.09-14.1 14.67-23.64 9.05-24.17 4.28-48.3-10.66-53.89-2.11-.79-4.31-1.17-6.55-1.17-13.67 0-29.12 14.03-36.9 34.79-9.05 24.17-4.28 48.3 10.66 53.89 2.11.79 4.31 1.17 6.55 1.17 5.58 0 11.45-2.34 16.97-6.51l37.52 2.62c-.02.18-.06.36-.06.55 0 2.49 2.01 4.5 4.5 4.5s4.5-2.01 4.5-4.5c0-.12-.03-.24-.04-.36.37-.02.74-.04 1.1-.08l27.54-2.51zm-1.92-14.62 3.31 6.21c.38.7.37 1.51-.01 2.21s-1.05 1.15-1.85 1.22l-8.24.76c2.99-2.52 5.28-6.09 6.79-10.4zm-59.86-19.09-15.76-4.1 11.28-35.82c8.07 5.64 10.1 22.9 4.48 39.92zm-10.57-41.83c.48 0 .95.04 1.42.1l-9.28 29.46-19.41-5.05c7.48-15.96 19.21-24.51 27.27-24.51zm-32.72 59.15c-1.57-7.94-.66-17.7 2.47-27.14l15.6 4.06-11.26 35.77c-2.49-1.82-5.37-5.44-6.81-12.69zm13.04 14.71c-.54 0-1.07-.05-1.59-.12l9.29-29.5 19.58 5.09c-7.49 15.97-19.22 24.53-27.28 24.53zm70.66-38.33h-25.38c.5-2.69.85-5.37 1.04-8h24.35v8zm-96.87 62.11 5.73 5.73c-9.5 9.48-15.46 15.37-18.3 18.22l-14.75 14.75c6.63 9.44 5.75 22.59-2.68 31.02l-1.64 1.64L119.52 350l1.64-1.64c8.52-8.52 21.84-9.32 31.3-2.47l14.71-14.71c2.56-2.57 8.77-8.82 18.23-18.3zm206.24 74.51 6.49 6.49-4.24 4.24-32.08-32.08 4.24-4.24 22.02 22.02c3.1-4.02 4.8-8.91 4.8-14.07 0-6.17-2.4-11.98-6.77-16.34-3.4-3.4-7.69-5.59-12.33-6.4l-30.9 30.9c-.79-2.62-1.2-5.36-1.2-8.17 0-6.15 1.96-12 5.59-16.83l-16.09-16.09c-2.84-2.84-8.8-8.74-18.3-18.22l5.73-5.73c9.47 9.48 15.67 15.73 18.23 18.29l16.1 16.1a27.966 27.966 0 0 1 16.84-5.62c15.52 0 28.09 12.58 28.09 28.09l.01.01c-.01 6.51-2.2 12.67-6.23 17.65zM252 379.48l1.29-1.29c-.13 11.34-.28 22.46-.45 33.3-.16 6.75-.32 13.5-.56 20.25-.01.15-.13.26-.27.26h-.02v-.01a.29.29 0 0 1-.27-.26c-.24-6.75-.4-13.5-.56-20.25-.17-10.84-.32-21.96-.45-33.3l1.29 1.3zm-121.6-11.54 5.66 5.66-25.23 25.23-5.66-5.66 25.23-25.23zm-15.05-57.18v-5.57h-1.04c-6.11 0-11.21-2.06-15.15-6.12-8.98-9.27-8.58-25.7-8.56-26.39v-7.88h5v7.96c-.01.22-.35 15.12 7.16 22.85 3 3.09 6.78 4.59 11.55 4.59h1.04v-5.53c-2.97-.09-5.55-1.2-7.67-3.33-5.93-5.96-5.94-18.08-5.93-18.59v-7.95h5v7.96c-.01 2.93.78 11.34 4.49 15.06 1.16 1.16 2.52 1.77 4.13 1.85.13-4.15 3.54-7.49 7.72-7.49h2.36c19.07 0 31.39-15.47 31.39-39.42 0-26.27-11.73-41.96-31.39-41.96H83.93v4.7c-3.56 1.21-6.35 4.24-8.29 9.04l-3.64 9 4.63 1.87 3.64-9.02c1.17-2.89 2.46-4.47 3.65-5.35v60.77c-.02.83-.38 20.41 10.47 31.53 4.79 4.91 11 7.41 18.45 7.41h2.51zM126 205.8c16.43.3 25.84 13.72 25.84 36.94 0 20.99-9.89 34.11-25.84 34.4V205.8zm-13-.01h5v40.52h-5v-40.52zm-24.07 0H108v40.52H88.93v-40.52zM243.91 89.96h-18.95v-8.94h18.95V72h10.23v12.44c2.55 2.18 4.3 5.24 4.83 8.7 1.96-.25 3.85-.88 5.56-1.85 1.2-.68 2.73-.26 3.41.94.68 1.2.26 2.73-.94 3.41a20.141 20.141 0 0 1-7.85 2.5v4.66h-4.65v5.2h21.46c-4.18 7.88-12.14 13.44-21.46 14.29v4.68l-2.5-2.45-2.5 2.45v-4.68c-9.32-.85-17.28-6.41-21.46-14.29h21.46v-5.2c0-2.52-1.72-4.64-4.01-5.32-.91-.27-1.57-1.06-1.57-2.01v-5.51zm-86.72 176.38L252 361.15l94.81-94.81a39.91 39.91 0 0 0 4.18 7.14L252 372.46l-98.99-98.99c1.61-2.17 3.01-4.55 4.18-7.13zm-48.97-157c-.3-.31-.3-.8.01-1.11.3-.3.8-.31 1.11-.01 29.26 28.02 56.35 54.19 80.89 78.07l-3.85 3.85a24549.41 24549.41 0 0 1-78.16-80.8zm234.46 124.19L252 142.85l-90.68 90.68c-.38-3.36-.97-6.55-1.78-9.54L252 131.54l92.45 92.45c-.8 2.99-1.39 6.18-1.77 9.54z"></path></svg>