<svg viewbox="0 0 504 504" xml:space="preserve" xmlns="http://www.w3.org/2000/svg"><path d="M229.49 121.82c-.77-13.29-5.38-25.86-13.28-36.41C224.8 77.8 235.84 72.89 248 72v49.82h-18.51zm58.3-36.41C279.2 77.8 268.16 72.89 256 72v49.82h18.51c.77-13.29 5.38-25.85 13.28-36.41zm-66.32 44.41h-23.31c.85 11.6 5.36 22.18 12.39 30.59 6.41-8.96 10.18-19.48 10.92-30.59zm0-8c-.73-11.11-4.51-21.63-10.92-30.59a53.715 53.715 0 0 0-12.39 30.59h23.31zm53.04 8H256v49.82c12.16-.89 23.2-5.8 31.79-13.41-7.9-10.55-12.51-23.12-13.28-36.41zm8.03-8h23.31a53.715 53.715 0 0 0-12.39-30.59c-6.41 8.96-10.19 19.48-10.92 30.59zm0 8c.73 11.11 4.51 21.63 10.92 30.59a53.784 53.784 0 0 0 12.39-30.59h-23.31zm-34.54 0h-18.51c-.77 13.29-5.38 25.86-13.28 36.41 8.6 7.61 19.63 12.52 31.79 13.41v-49.82zm8 252.36V432c12.16-.89 23.2-5.8 31.79-13.41-7.91-10.56-12.51-23.12-13.28-36.41H256zm-39.79 36.41c8.59 7.61 19.63 12.52 31.79 13.41v-49.82h-18.51c-.77 13.29-5.38 25.85-13.28 36.41zm66.32-44.41h23.31a53.715 53.715 0 0 0-12.39-30.59c-6.41 8.96-10.18 19.48-10.92 30.59zm0 8c.73 11.11 4.51 21.63 10.92 30.59a53.715 53.715 0 0 0 12.39-30.59h-23.31zm-53.04-8H248v-49.82c-12.16.89-23.2 5.8-31.79 13.41 7.9 10.55 12.51 23.12 13.28 36.41zm-8.03 8h-23.31c.85 11.6 5.36 22.18 12.39 30.59 6.41-8.96 10.19-19.48 10.92-30.59zm0-8c-.73-11.11-4.51-21.63-10.92-30.59a53.784 53.784 0 0 0-12.39 30.59h23.31zm34.54 0h18.51c.77-13.29 5.38-25.86 13.28-36.41-8.6-7.61-19.63-12.52-31.79-13.41v49.82zm152.97-62.12-45.6 45.62 35.51 35.49-5.66 5.66L252 257.66l-45.62 45.6c-.01.01-.02.01-.02.02l-95.59 95.55-5.66-5.66 71.18-71.15c-27.55 9.42-59.33 3.17-81.27-18.76-30.7-30.69-30.7-80.63 0-111.32l45.6-45.62-35.51-35.49 5.66-5.66L252 246.34l141.23-141.17 5.66 5.66-71.18 71.15c27.55-9.42 59.33-3.17 81.27 18.76 30.69 30.69 30.69 80.63-.01 111.32zm-237.3-134.7-50.14 50.12 49.31 49.29 50.14-50.12-49.31-49.29zm-46.24 61.11c-9.04 9.52-8.92 24.61.43 33.95 9.34 9.34 24.44 9.47 33.97.43l-34.4-34.38zM246.34 252l-21.83-21.82-53.68 53.66-7.47-7.44c-11.48 10.99-29.76 10.85-41.05-.44-11.29-11.29-11.43-29.56-.44-41.03l-7.43-7.45 53.68-53.66-21.85-21.84-45.59 45.62c-27.58 27.57-27.58 72.43 0 100 27.58 27.56 72.44 27.57 100.02.02L246.34 252zm85.99 74.64 50.14-50.12-49.31-49.29-50.14 50.12 49.31 49.29zm46.24-61.1c9.04-9.52 8.92-24.62-.43-33.96-9.34-9.34-24.45-9.47-33.97-.43l34.4 34.39zM257.66 252l21.83 21.82 53.68-53.66 7.46 7.45c11.48-10.99 29.76-10.86 41.05.43s11.43 29.56.43 41.04l7.44 7.45-53.68 53.66 21.85 21.84 45.59-45.62c27.58-27.57 27.58-72.43 0-100-27.58-27.57-72.46-27.57-100.04 0L257.66 252z"></path></svg>