<svg viewbox="0 0 504 504" xml:space="preserve" xmlns="http://www.w3.org/2000/svg"><path d="M95.68 270.71c-5.8 3.06-11.8 6.21-23.68 6.21v-5c10.64 0 15.84-2.74 21.35-5.64 5.8-3.06 11.8-6.21 23.68-6.21 6.77 0 11.62 1.03 15.63 2.48-.19 1.73-.29 3.48-.3 5.25-3.88-1.58-8.47-2.72-15.32-2.72-10.65-.01-15.86 2.73-21.36 5.63zm21.35-56.47c10.64 0 15.84 2.74 21.35 5.64 4.66 2.45 9.46 4.97 17.32 5.87a50.3 50.3 0 0 1 9.68-4.76c-1.05.06-2.15.1-3.33.1-10.64 0-15.84-2.74-21.35-5.64-5.8-3.06-11.8-6.21-23.68-6.21s-17.88 3.16-23.68 6.21c-5.51 2.9-10.71 5.64-21.35 5.64v5c11.87 0 17.88-3.16 23.68-6.21 5.51-2.9 10.72-5.64 21.36-5.64zm0 25.42c10.36 0 15.57 2.6 20.92 5.42a48.7 48.7 0 0 1 2.52-4.32c-5.73-3.02-11.73-6.09-23.45-6.09-11.87 0-17.88 3.16-23.68 6.21-5.51 2.9-10.71 5.64-21.35 5.64v5c11.87 0 17.88-3.16 23.68-6.21 5.51-2.91 10.72-5.65 21.36-5.65zm0 50.83c10.64 0 15.84 2.74 21.35 5.64 1.35.71 2.71 1.42 4.15 2.1a50.26 50.26 0 0 1-5.07-8.2c-4.95-2.44-10.73-4.54-20.43-4.54-11.87 0-17.88 3.16-23.68 6.21-5.51 2.9-10.71 5.64-21.35 5.64v5c11.87 0 17.88-3.16 23.68-6.21 5.5-2.9 10.71-5.64 21.35-5.64zm202.41-21.43 7.73-2.06-20.69-77.47c-.08-.31.04-.55.15-.69.11-.14.31-.31.63-.31l16.61.03a6.56 6.56 0 0 1 6.55 6.55 6.56 6.56 0 0 1-6.55 6.55v8c8.02 0 14.55-6.53 14.55-14.55s-6.53-14.55-14.5-14.55l-16.67-.03a8.73 8.73 0 0 0-6.93 3.38c-1.68 2.15-2.26 4.9-1.59 7.61l20.71 77.54zm-141.77-50.81c1.54-.14 3.1-.23 4.69-.23 2.1 0 4.17.15 6.2.4 4.62-2.29 9.7-4.18 18.51-4.18.53 0 1.04.01 1.54.03l-4.93-4.93c-9.67.54-15.07 3.37-20.29 6.11-1.86.99-3.7 1.95-5.72 2.8zm129.83 25.47-4.27-15.98c-14.78 7.38-24.94 22.64-24.94 40.29 0 24.86 20.15 45.01 45.01 45.01s45.01-20.15 45.01-45.01-20.15-45.01-45.01-45.01c-.9 0-1.79.03-2.68.09l4.26 15.96c15.26.82 27.43 13.5 27.43 28.97 0 16-13.01 29.01-29.01 29.01s-29.01-13.01-29.01-29.01c.01-10.18 5.27-19.13 13.21-24.32zm-51.72-98.78c-1.06-.62-2.33-.97-3.78-.97-1.46 0-2.73.35-3.78.97-1.52-2.32-4.36-4.45-7.8-6.18l-14.95 14.95c.52.15 1.04.29 1.57.43 3.34.84 6.84 1.3 10.06 1.3 6.09 0 11.17-1.69 12.16-5.64.22-.83.75-1.83 2.75-1.83s2.53 1 2.75 1.83c.73 2.9 3.66 4.57 7.57 5.26l20.79-20.79c-3.42-.08-7.21.38-10.8 1.28-6.99 1.75-13.85 5.28-16.54 9.39zm-73.95 31.23-71-71-5.66 5.66 71 71 5.66-5.66zm89.39-91.51c2.1-1.75 4.37-4 5.69-6.4-6.12-4.32-14-6.26-24.91-6.26-15.88 0-25.34 4.11-32.28 13.7-4.55 6.29-7.4 13.72-9.1 21.22 8.14-7.54 21.83-10.51 34.42-13.24 10.68-2.32 20.77-4.51 26.18-9.02zM117.03 188.83c10.64 0 15.84 2.74 21.35 5.64 5.8 3.06 11.8 6.21 23.68 6.21 11.87 0 17.87-3.16 23.67-6.21.68-.36 1.35-.71 2.03-1.06l-3.71-3.71c-.22.11-.43.23-.65.34-5.51 2.9-10.71 5.64-21.34 5.64-10.64 0-15.84-2.74-21.35-5.64-5.8-3.06-11.8-6.21-23.68-6.21s-17.88 3.16-23.68 6.21c-5.51 2.9-10.71 5.64-21.35 5.64v5c11.87 0 17.88-3.16 23.68-6.21 5.5-2.9 10.71-5.64 21.35-5.64zm92.31-47.25c.32 3.96 5.01 7.69 10.93 10.26l15.17-15.17c-1.23-.43-2.48-.8-3.74-1.12-5.98-1.5-12.51-1.8-16.97-.37 6.1-10.1 20.48-17.21 37.27-17.21 16.79 0 31.17 7.1 37.27 17.2l-20.18 20.18c2.59-.16 5.28-.57 7.88-1.23 8.72-2.19 17.26-7.16 17.69-12.56 1.8-11.96 2.3-38.37-10.38-55.88-1.07-1.47-2.19-2.82-3.39-4.04l-.01-.01c-1.45 2.3-3.57 4.62-6.37 6.96-6.38 5.32-17.07 7.63-28.39 10.09-18.21 3.95-37.05 8.03-37.64 24.71-.3 7.27.19 13.73.86 18.19zm186.07 61.21a53.87 53.87 0 0 1 6.62 13.73l4.77-1.51a59.16 59.16 0 0 0-7.23-15l-4.16 2.78zm-10.7 72.03a54.42 54.42 0 0 1-13.03 7.91l1.96 4.6c5.12-2.19 9.91-5.1 14.23-8.64l-3.16-3.87zm-4.4-95.55-3.54 3.54 11.38 11.29 3.49-3.58-11.33-11.25zm28.26 64.47c.66-3.55.99-7.19.99-10.83 0-1.94-.09-3.89-.28-5.8l-4.98.49c.17 1.75.26 3.54.26 5.32 0 3.33-.3 6.67-.91 9.92l4.92.9zm-51.49-80.63 11.31 11.31 3.54-3.54-11.31-11.31-3.54 3.54zm39.49 106.8c3.5-4.36 6.35-9.18 8.49-14.32l-4.62-1.92a54.261 54.261 0 0 1-7.77 13.11l3.9 3.13zM291.5 391.53h-8.32a2.5 2.5 0 0 1 0-5h6.71l-1.67-5.28h-10.17a2.5 2.5 0 0 1 0-5h8.59l-1.67-5.28h-12.05a2.5 2.5 0 0 1 0-5h10.47l-1.67-5.28h-13.93a2.5 2.5 0 0 1 0-5h12.39l-2.36-8.06c-29.29 4.04-20.48-12.79-29.13-19.27-10.72 3.66-19.81 10.59-24.83 15.1l.64 1.09c6.75 11.94 11.71 14.93 19.91 19.89 4.32 2.61 9.21 5.57 15.42 10.36 4.84 3.74 9.21 11.62 13.84 19.97 4.31 7.77 8.76 15.79 13.26 20.01 3.8 3.57 5.75 4.8 6.61 5.22 4.07-2.67 7.77-2.16 13.19 2.08-1.3-4.88-5.19-11.13-8.29-16.34-3.26-5.46-5.07-8.79-6.94-14.21zm-65.76-111.5c-5.25 19.03-22.68 33.01-43.38 33.01-24.86 0-45.01-20.15-45.01-45.01s20.15-45.01 45.01-45.01c7.21 0 14.02 1.7 20.06 4.71l17.06-23.99-6.65-21.89-1.17.29c-1.5.5-3.04.74-4.56.74-4.75 0-9.33-2.34-12.07-6.44l-1.68-2.52a3.262 3.262 0 0 1-.16-3.38 3.296 3.296 0 0 1 2.91-1.74h38.53c2.06 0 3.74 1.68 3.74 3.74 0 1.61-1.03 3.04-2.56 3.55l-15.21 3.82 5.28 17.4h69.23l4.4 16.47-51.03 58.86a7.01 7.01 0 0 1-5.29 2.41h-60.82c-3.87 0-7-3.13-7-7 0-1.46.45-2.81 1.21-3.94 0-.01.01-.01.01-.02l16.38-23.04c-3.29-1.3-6.86-2.02-10.6-2.02-16 0-29.01 13.01-29.01 29.01s13.01 29.01 29.01 29.01c11.72 0 21.83-6.99 26.4-17.01h16.97zm1.65-77.73 16.48 54.25 47.04-54.25h-63.52zm-29.91 41.01-12.6 17.73h51.99l-15.57-51.25-14.53 20.44c9.14 5.92 15.99 15.06 18.96 25.81h-16.98c-2.4-5.29-6.36-9.71-11.27-12.73zm98.66 180.96c-1.08.74-1.98 1.22-3.66.69-2.04-.64-4.98-2.78-8.98-6.53-5.07-4.76-9.72-13.13-14.21-21.23-4.37-7.88-8.5-15.32-12.53-18.44-5.98-4.62-10.74-7.5-14.95-10.04-8.28-5.01-14.26-8.63-21.64-21.65-.08-.14-.04-.07 0 0-3.67 2.49-8.48 5.88 4.16 18.92 0 0 7.99 9.98 23.06 20.76 4.34 3.11 7.89 7.17 10.62 11.76 10.34 17.4 27.18 27.57 27.18 27.57 6.19 4.48 10.69 5.9 13.9 5.92 5.35.04 7.11-3.8 7.11-3.8l-.03-.03c-6.75-6.13-8.35-5.05-10.03-3.9zm27.17-106.23c-4.32 0-8.5-.55-12.5-1.58l82.37 82.37 5.66-5.66-75.14-75.14c-.14.01-.26.01-.39.01zm-218.14 75.13 5.66 5.66 81.86-81.86c-3.34.7-6.79 1.08-10.34 1.08-.67 0-1.3-.02-1.96-.05-.03.02-.07.04-.12.07-4.89 2.52-8.76 4.69-18.23 4.69-10.64 0-15.84-2.74-21.35-5.64-5.8-3.06-11.8-6.21-23.68-6.21s-17.88 3.16-23.68 6.21c-5.51 2.9-10.71 5.64-21.35 5.64v5c11.87 0 17.88-3.16 23.68-6.21 5.51-2.9 10.71-5.64 21.35-5.64s15.84 2.74 21.35 5.64c5.8 3.06 11.8 6.21 23.68 6.21 3.59 0 6.64-.29 9.32-.78l-20 20c-4.24-1.07-7.4-2.72-10.66-4.44-5.8-3.06-11.8-6.21-23.68-6.21s-17.88 3.16-23.68 6.21c-5.51 2.9-10.71 5.64-21.35 5.64v5c11.87 0 17.88-3.16 23.68-6.21 5.51-2.9 10.71-5.64 21.35-5.64s15.84 2.74 21.35 5.64c2.74 1.44 5.54 2.9 8.97 4.04l-42.17 42.16zm300.04-220.7-34.01-34.01.05-.05 27.58-27.58-5.66-5.66-70.39 70.39h1.15c2.97 0 5.77.69 8.29 1.88l3.75-3.75 35.63 35.63.09.09c6.63 6 10.43 14.57 10.43 23.51 0 9.2-3.94 17.5-10.23 23.3.45 1.85.79 3.74 1.03 5.67 8.63-6.72 14.19-17.2 14.19-28.96 0-10.32-4.38-20.22-12.03-27.17l-35.59-35.59L367.66 142l34.05 34.05.09.09c16.01 14.5 25.2 35.2 25.2 56.78 0 41.95-33.9 76.11-75.74 76.57-2.96 2-6.15 3.68-9.51 5.02h8.66c44.99 0 81.59-36.6 81.59-81.59 0-22.98-9.77-45-26.79-60.45z"></path></svg>