<svg viewbox="0 0 504 504" xml:space="preserve" xmlns="http://www.w3.org/2000/svg"><path d="m101.756 174.286 72.52-72.52 11.313 11.313-72.52 72.52zM86.88 159.405l72.52-72.52 11.314 11.314-72.52 72.52zM72.012 144.531l72.52-72.52 11.314 11.314-72.52 72.52zM90.46 111.92l3.54 3.54L115.45 94l-3.54-3.54-5.43 5.43L82.61 72 72 82.61l23.89 23.89-5.43 5.42zM79.07 82.61l3.54-3.54 20.35 20.35-3.54 3.54-20.35-20.35zM348.148 420.671l72.52-72.52 11.313 11.314-72.52 72.52zM413.54 392.08l-3.54-3.54L388.55 410l3.54 3.54 5.43-5.43L421.39 432 432 421.39l-23.89-23.89 5.43-5.42zm11.39 29.31-3.54 3.54-20.35-20.35 3.54-3.54 20.35 20.35zM342.32 352.92l-5.43 5.43 3.54 3.54 21.46-21.46-3.54-3.54-5.43 5.43-41.36-41.36L432 180.53 323.47 72 203.04 192.43l-41.36-41.36 5.43-5.43-3.54-3.54-21.46 21.46 3.54 3.54 5.43-5.43 41.36 41.36L72 323.47 180.53 432l120.43-120.43 41.36 41.35zM323.47 83.31l97.22 97.22L305.91 295.3l-6.44-6.44 16.22-16.22-17-17 90.61-90.61-48.35-48.35-90.61 90.61-17-17-16.22 16.22-8.44-8.44L323.47 83.31zm-27.53 202.02-75.27-75.27 12.68-12.68 17 17 90.61-90.61 41.28 41.28-90.61 90.61 17 17-12.69 12.67zm53.45 60.52-3.54 3.54-191.24-191.25 3.54-3.54 191.24 191.25zm-205.72-58.79 18.16-18.16 75.27 75.27-18.16 18.16-75.27-75.27zm71.74 78.81-34.54 34.54-75.27-75.27 34.54-34.54 75.27 75.27zm-50.05-100.5 44.7-44.7 75.27 75.27-44.7 44.7-75.27-75.27zm15.17 155.32-97.22-97.22L198.09 208.7l8.44 8.44-108 108 82.34 82.35 108-108.01 6.44 6.44-114.78 114.77zM318.397 390.924l72.52-72.52 11.314 11.313-72.52 72.52zM333.272 405.804l72.52-72.52 11.314 11.314-72.52 72.52z"></path></svg>