<svg viewbox="0 0 504 504" xml:space="preserve" xmlns="http://www.w3.org/2000/svg"><path d="M185.97 252c0 36.41 29.62 66.03 66.03 66.03s66.03-29.62 66.03-66.03-29.62-66.03-66.03-66.03-66.03 29.62-66.03 66.03zm18.45-38.15c7.38-9.18 17.34-16.19 28.79-19.9l2.75 1.86-14.17 12.55-17.36 9.07v-3.58zm.82 70.65h-4.85c-5.95-9.42-9.41-20.56-9.41-32.5 0-.28.02-.55.02-.82l2.87-2.39 11.38 12.83v22.88zm-8.3-39.77 7.03-21.43 18.81-9.82 11.27 10.67-7.21 24.77-18.48 8.69-11.42-12.88zm30.89 53.61-17.6-12.62v-23.46l18.43-8.66 20.83 14.94v22.38l-19.34 9.1-2.32-1.68zm38.97 12.86c-4.74 1.19-9.7 1.82-14.8 1.82-5.1 0-10.06-.64-14.8-1.82l-3.85-7.17 18.65-8.78 18.65 8.78-3.85 7.17zm26.96-25.48-13.07 9.38-6.85 4.91-19.34-9.1v-22.38l20.83-14.94 18.43 8.66v23.47zM313 251.18c0 .27.02.55.02.82 0 11.94-3.46 23.08-9.41 32.5h-4.85v-22.88l11.38-12.83 2.86 2.39zm-5.95-6.45-11.42 12.88-18.48-8.69-7.21-24.77 11.27-10.67 18.81 9.82 7.03 21.43zm-35.65-50.58c11.19 3.76 20.94 10.68 28.18 19.7v3.58l-17.36-9.07-13.98-12.38 3.16-1.83zm5.69 16.35-10.96 10.39h-28.25l-10.96-10.39 14.06-12.45h22.06l14.05 12.45zM149.32 223.67c-2.53 9.2-3.82 18.73-3.82 28.33s1.28 19.13 3.82 28.33l7.71-2.12c-2.34-8.51-3.53-17.33-3.53-26.21s1.19-17.7 3.53-26.21l-7.71-2.12zM333.63 292.24c6.22-12.59 9.37-26.13 9.37-40.24s-3.15-27.66-9.37-40.24l-7.17 3.54c5.67 11.48 8.54 23.82 8.54 36.7s-2.87 25.23-8.54 36.7l7.17 3.54zM354.68 280.33c2.53-9.2 3.82-18.73 3.82-28.33s-1.28-19.13-3.82-28.33l-7.71 2.12c2.34 8.51 3.53 17.33 3.53 26.21s-1.19 17.7-3.53 26.21l7.71 2.12z"></path><path d="m199.06 299.28-44.76 44.76H96.04C94.43 335.97 88.07 329.61 80 328V176.01c8.07-1.59 14.44-7.95 16.05-16.05h58.26l44.76 44.76c1.78-1.99 3.67-3.88 5.66-5.66l-93.89-93.89-5.66 5.66 41.13 41.13H72v200.08h74.3l-41.13 41.13 5.66 5.66 93.89-93.89a71.969 71.969 0 0 1-5.66-5.66zM90.91 344.04H80v-10.91c5.3 1.43 9.48 5.61 10.91 10.91zM80 170.88v-10.92h10.92c-1.41 5.31-5.6 9.5-10.92 10.92zM227.19 156.29c4.19.47 8.23-1.64 10.3-5.37l10.68-19.28c.78-1.41 2.22-2.26 3.83-2.26s3.05.84 3.83 2.26l10.68 19.28c1.88 3.39 5.38 5.44 9.14 5.44.38 0 .77-.02 1.16-.06 24.56-2.76 43.19-23.12 43.98-47.68h8.04V92.18h-8.07c-.63-5.71-5.49-10.17-11.36-10.17H194.61c-5.88 0-10.73 4.46-11.36 10.17h-8.07v16.43h8.04c.78 24.56 19.42 44.92 43.97 47.68zm83.26-64.11h5v16.43h-5V92.18zm-121.9 0h5v16.43h-5V92.18zM419 204.5v-5.28c-17.96 5.7-31.33 26.76-31.33 51.81s13.37 46.1 31.33 51.81v-5.28c-15.17-5.72-26.33-24.4-26.33-46.53s11.16-40.81 26.33-46.53zM323.21 124.44h43.62l8-8h-49.59c-.48 2.74-1.16 5.41-2.03 8zM180.79 124.44c-.87-2.59-1.55-5.26-2.03-8h-49.59l8 8h43.62zM276.81 347.71c-4.19-.47-8.23 1.64-10.3 5.37l-10.68 19.28c-.78 1.41-2.22 2.26-3.83 2.26s-3.05-.84-3.83-2.26l-10.68-19.28c-1.88-3.39-5.38-5.44-9.14-5.44-.38 0-.77.02-1.16.06-24.56 2.76-43.19 23.12-43.98 47.68h-8.04v16.43h8.07c.63 5.71 5.49 10.17 11.36 10.17h114.78c5.88 0 10.73-4.46 11.36-10.17h8.07v-16.43h-8.04c-.77-24.55-19.41-44.91-43.96-47.67zm-83.26 64.11h-5v-16.43h5v16.43zm121.9 0h-5v-16.43h5v16.43z"></path><path d="M170.37 211.76C164.15 224.34 161 237.88 161 252s3.15 27.66 9.37 40.24l7.17-3.54c-5.67-11.47-8.54-23.82-8.54-36.7s2.87-25.23 8.54-36.7l-7.17-3.54zM180.79 379.56h-43.62l-8 8h49.59c.48-2.74 1.16-5.41 2.03-8zM323.21 379.56c.87 2.59 1.55 5.26 2.03 8h49.59l-8-8h-43.62zM85 299.5v5.28c17.96-5.7 31.33-26.76 31.33-51.81s-13.37-46.1-31.33-51.81v5.28c15.17 5.72 26.33 24.4 26.33 46.53S100.17 293.78 85 299.5zM432 151.96h-74.3l41.13-41.13-5.66-5.66-93.89 93.89c1.99 1.78 3.88 3.67 5.66 5.66l44.76-44.76h58.26c1.61 8.07 7.98 14.43 16.04 16.04v152c-8.07 1.61-14.44 7.97-16.04 16.04H349.7l-44.76-44.76a71.969 71.969 0 0 1-5.66 5.66l93.89 93.89 5.66-5.66-41.13-41.13H432V151.96zm-18.91 8H424v10.91c-5.3-1.43-9.48-5.61-10.91-10.91zM424 333.14v10.91h-10.91c1.43-5.31 5.61-9.49 10.91-10.91z"></path></svg>