<svg viewbox="0 0 504 504" xml:space="preserve" xmlns="http://www.w3.org/2000/svg"><path d="M293.25 88.46c-6.55-4.18-12.49-8.88-18.79-16.46H229.7c-6.3 7.58-12.24 12.29-18.79 16.46l-17.26 11-19.98 68.55-62.84-62.84-5.66 5.66 54 54L72 252l87.17 87.17-54 54 5.66 5.66 62.72-62.72 19.95 68.43 17.26 11c5.91 3.77 11.3 8.28 16.06 13.41l35.83-106.17h-44.49l-2.2-14.43h22.3l3.53 3.53L274 279.67l10.21 10.21-18.47 18.48h22.14l-2.2 14.43h-14.6L234.23 432h35.39l-13.47-39.93 4.22-12.51 16.67 49.39a81.914 81.914 0 0 1 16.06-13.41l17.26-11 19.98-68.55 62.84 62.84 5.66-5.66-54-54L432 252l-87.17-87.17 54-54-5.66-5.66-62.72 62.72-19.95-68.43-17.25-11zm-92.76 16.13 14.72-9.38a89.804 89.804 0 0 0 14.63-11.64l13.79 40.87 4.22-12.51L237.08 80h29.99l-34.16 101.22h-14.6l-2.2 14.43h22.14l-18.47 18.47-12.65-12.65 7.73-50.78-4.94-.75-7.17 47.14-22.63-22.63 20.37-69.86zm-35.66 228.93L83.31 252l81.51-81.52 37.55 37.56L158.42 252l43.96 43.96-37.55 37.56zm44.94 20.53-7.15-47.01 4.39-4.39 7.71 50.65-4.95.75zm-3.86-61.62L165.49 252l40.42-40.43L246.34 252l-40.43 40.43zm32.35 15.91-18.47-18.47L230 279.66l18.47 18.47-10.21 10.21zm13.74-62-22.01-22.01 32.21-32.21 3.53 3.53h22.3l-2.2-14.43h-44.48l32.95-97.65c4.46 4.37 9.36 8.28 14.63 11.64l14.72 9.38L324 174.34l-22.61 22.61-7.15-47.01-4.94.75 7.71 50.65-12.78 12.78-18.47-18.47-10.21 10.21 18.47 18.47L252 246.34zm5.66 5.66 40.42-40.42L338.51 252l-40.42 40.42L257.66 252zm36.42 102.05-4.94-.75 7.73-50.78 4.39 4.39-7.18 47.14zm7.54-58.09L345.58 252l-43.96-43.96 37.55-37.55L420.69 252l-81.51 81.52-37.56-37.56z"></path></svg>