<svg viewbox="0 0 504 504" xml:space="preserve" xmlns="http://www.w3.org/2000/svg"><circle cx="137.56" cy="261.55" r="2.5"></circle><circle cx="137.56" cy="228.61" r="2.5"></circle><circle cx="139.88" cy="279.62" r="2.5"></circle><circle cx="155.21" cy="259.29" r="2.5"></circle><circle cx="152.76" cy="243.81" r="2.5"></circle><circle cx="178.68" cy="219.27" r="2.5"></circle><circle cx="166.68" cy="245.14" r="2.5"></circle><circle cx="153.7" cy="230.85" r="2.5"></circle><circle cx="145.16" cy="205.8" r="2.5"></circle><circle cx="159.66" cy="277.68" r="2.5"></circle><circle cx="161.3" cy="210.5" r="2.5"></circle><circle cx="129.96" cy="241.77" r="2.5"></circle><circle cx="173.24" cy="197.66" r="2.5"></circle><path d="M231.89 180.05c29.84 0 54.03-24.19 54.03-54.03S261.73 72 231.89 72s-54.03 24.19-54.03 54.03 24.2 54.02 54.03 54.02zm0-5c-4.92 0-9.66-.74-14.15-2.09 7.63-9.72 15.46-24.58 16.56-45.35 7.14-3.63 14.03-5.88 20.47-7.13l.01.03c.08.33 6.63 29.68-12.71 53.47-3.28.7-6.68 1.07-10.18 1.07zm49.03-49.02c0 20.64-12.83 38.33-30.93 45.55 14.92-23.04 10.39-48.64 9.74-51.87 7.92-.98 14.99-.53 20.83.43.22 1.93.36 3.89.36 5.89zm-1.31-11.23c-12.23-1.74-29.02-1.09-47.55 8.35-6.71-4.37-12.11-9.21-16.41-14.17l.02-.02c.25-.23 22.36-20.57 52.62-15.74a49.017 49.017 0 0 1 11.32 21.58zM231.89 77c11.46 0 22 3.96 30.36 10.57-27.39-1.38-47.28 15.33-49.74 17.51-4.8-6.36-7.96-12.7-10.05-18.23 8.2-6.18 18.4-9.85 29.43-9.85zm-33.57 13.34c4.61 11.46 13.57 25.66 30.99 36.98-.42 8-1.92 15.09-4.06 21.3l-.03-.01c-.33-.1-29.01-9.09-39.95-37.73 2.58-7.92 7.12-14.95 13.05-20.54zm-14.93 28.56c12.49 24.45 36.94 33.34 40.06 34.38a73.04 73.04 0 0 1-10.79 17.83c-17.5-7.49-29.79-24.88-29.79-45.09 0-2.41.18-4.79.52-7.12z"></path><circle cx="192.52" cy="226.06" r="2.5"></circle><circle cx="188.32" cy="241.36" r="2.5"></circle><circle cx="177.89" cy="259.44" r="2.5"></circle><circle cx="374.04" cy="262.23" r="2.5"></circle><circle cx="315.68" cy="262.64" r="2.5"></circle><circle cx="124.68" cy="268.98" r="2.5"></circle><circle cx="311.48" cy="277.94" r="2.5"></circle><circle cx="337.32" cy="258.86" r="2.5"></circle><circle cx="325.31" cy="284.73" r="2.5"></circle><circle cx="326.1" cy="244.56" r="2.5"></circle><path d="M272.11 323.95c-29.84 0-54.03 24.19-54.03 54.03S242.27 432 272.11 432s54.03-24.19 54.03-54.03-24.2-54.02-54.03-54.02zm0 5c4.92 0 9.66.74 14.15 2.09-7.63 9.72-15.46 24.58-16.56 45.35-7.14 3.63-14.03 5.88-20.47 7.13l-.01-.03c-.08-.33-6.63-29.68 12.71-53.47 3.28-.7 6.68-1.07 10.18-1.07zm-49.03 49.02c0-20.64 12.83-38.33 30.93-45.55-14.92 23.04-10.39 48.64-9.74 51.87-7.92.98-14.99.53-20.83-.43a51.89 51.89 0 0 1-.36-5.89zm1.31 11.23c12.23 1.74 29.02 1.09 47.55-8.35 6.71 4.37 12.11 9.21 16.41 14.17l-.02.02c-.25.23-22.36 20.57-52.62 15.74a49.017 49.017 0 0 1-11.32-21.58zm47.72 37.8c-11.46 0-22-3.96-30.36-10.57 27.39 1.38 47.28-15.33 49.74-17.51 4.8 6.36 7.96 12.7 10.05 18.23-8.2 6.18-18.4 9.85-29.43 9.85zm33.57-13.34c-4.61-11.46-13.57-25.66-30.99-36.98.42-8 1.92-15.09 4.06-21.3l.03.01c.33.1 29.01 9.09 39.95 37.73-2.58 7.92-7.12 14.95-13.05 20.54zm14.93-28.56c-12.49-24.45-36.94-33.34-40.06-34.38a73.04 73.04 0 0 1 10.79-17.83c17.5 7.49 29.79 24.88 29.79 45.09 0 2.41-.18 4.79-.52 7.12z"></path><circle cx="393.89" cy="252.38" r="2.5"></circle><circle cx="389.24" cy="267.79" r="2.5"></circle><circle cx="379.32" cy="235.02" r="2.5"></circle><path d="m432 252-63.51-63.52-3.54 3.54L424.93 252l-83.64 83.64-63.52-63.52 140.11-140.11-45.9-45.9-140.1 140.11-121.05-121.05-5.66 5.66 54 54L72 252l63.52 63.52 3.54-3.54L79.07 252l83.64-83.64 63.52 63.52-140.11 140.1 45.9 45.9 140.11-140.11 121.05 121.05 5.66-5.66-54-54L432 252zm-158.82 17.65-14.11-14.11 14.11-14.11 14.11 14.11-14.11 14.11zm-137.63 74.11 14.11-14.11 14.11 14.11-14.11 14.11-14.11-14.11zm10.58 17.65-14.11 14.11-14.11-14.11 14.11-14.11 14.11 14.11zm7.07-35.29 14.11-14.11 14.11 14.11-14.11 14.11-14.11-14.11zm17.64-17.65 14.11-14.11 14.11 14.11-14.11 14.11-14.11-14.11zm17.65-17.64 14.11-14.11 14.11 14.11-14.11 14.11-14.11-14.11zm17.64-17.65 14.11-14.11 14.11 14.11-14.11 14.11-14.11-14.11zm17.65-17.64 14.11-14.11L252 255.54l-14.11 14.11-14.11-14.11zm17.64-17.65 14.11-14.11 14.11 14.11-14.1 14.11-14.12-14.11zm116.46-88.23-14.11 14.11-14.11-14.11 14.11-14.11 14.11 14.11zm-10.58-17.65 14.11-14.11 14.11 14.11-14.11 14.11-14.11-14.11zm-7.07 35.3-14.11 14.11-14.11-14.11 14.11-14.11 14.11 14.11zm-17.65 17.64-14.11 14.11-14.11-14.11 14.11-14.11 14.11 14.11zm-17.64 17.65-14.11 14.11-14.11-14.11 14.11-14.11 14.11 14.11zm-17.65 17.64-14.11 14.11-14.11-14.11 14.11-14.11 14.11 14.11zm3.54 31.76-14.11-14.11 14.11-14.11 14.11 14.11L290.83 252zm17.64-17.65-14.11-14.11 14.11-14.11 14.11 14.11-14.11 14.11zm17.65-17.64-14.11-14.11 14.11-14.11 14.11 14.11-14.11 14.11zm17.64-17.65-14.11-14.11 14.11-14.11 14.11 14.11-14.11 14.11zm17.65-17.64-14.11-14.11 14.11-14.11 14.11 14.11-14.11 14.11zm17.65-17.65-14.11-14.11 14.11-14.11 14.11 14.11-14.11 14.11zm31.75-31.75-14.11 14.11-14.11-14.11 14.11-14.11 14.11 14.11zm-17.64-17.65-14.11 14.11-14.11-14.11 14.11-14.11 14.11 14.11zM93.19 371.98l278.8-278.8 3.54 3.54-278.8 278.8-3.54-3.54zm7.07 7.08 14.11-14.11 14.11 14.11-14.11 14.11-14.11-14.11zm31.75 31.75L117.9 396.7l14.11-14.11 14.11 14.11-14.11 14.11zm17.65-17.64-14.11-14.11 14.11-14.11 14.11 14.11-14.11 14.11zm17.65-17.65-14.11-14.11 14.11-14.11 14.11 14.11-14.11 14.11zm17.64-17.65-14.11-14.11 14.11-14.11 14.11 14.11-14.11 14.11zm17.65-17.64-14.11-14.11 14.11-14.11 14.11 14.11-14.11 14.11zm17.64-17.65-14.11-14.11 14.11-14.11 14.11 14.11-14.11 14.11zm17.65-17.64-14.11-14.11 14.11-14.11L252 290.83l-14.11 14.11zm17.65-17.65-14.11-14.11 14.11-14.11 14.11 14.11-14.11 14.11z"></path><circle cx="330.76" cy="306.34" r="2.5"></circle><circle cx="351.24" cy="260.19" r="2.5"></circle><circle cx="366.44" cy="242.45" r="2.5"></circle><circle cx="364.11" cy="224.38" r="2.5"></circle><circle cx="110.1" cy="251.62" r="2.5"></circle><circle cx="114.75" cy="236.21" r="2.5"></circle><circle cx="366.44" cy="275.39" r="2.5"></circle><circle cx="348.78" cy="244.71" r="2.5"></circle><circle cx="358.84" cy="298.2" r="2.5"></circle><circle cx="350.3" cy="273.15" r="2.5"></circle><circle cx="342.7" cy="293.5" r="2.5"></circle><circle cx="344.34" cy="226.32" r="2.5"></circle></svg>