<svg viewbox="0 0 504 504" xml:space="preserve" xmlns="http://www.w3.org/2000/svg"><path d="M413 212.49c4.65-2.62 9.46-5.32 19-5.32v5c-8.23 0-12.27 2.27-16.54 4.68-4.65 2.62-9.46 5.32-19 5.32s-14.35-2.71-19-5.32c-4.28-2.41-8.32-4.68-16.55-4.68s-12.27 2.27-16.55 4.68c-4.65 2.62-9.46 5.32-19 5.32s-14.35-2.71-19-5.32c-1.4-.79-2.77-1.55-4.26-2.23l3.75-3.75c1.03.53 2 1.08 2.97 1.62 4.28 2.41 8.32 4.68 16.55 4.68s12.27-2.27 16.55-4.68c4.65-2.62 9.46-5.32 19-5.32s14.35 2.71 19 5.32c4.28 2.41 8.32 4.68 16.55 4.68 8.22 0 12.26-2.27 16.53-4.68zm-16.54-15.68c-8.23 0-12.27-2.27-16.55-4.68-4.65-2.62-9.46-5.32-19-5.32s-14.35 2.71-19 5.32c-4.28 2.41-8.32 4.68-16.55 4.68-1.91 0-3.6-.12-5.11-.34l-4.25 4.25c2.57.67 5.6 1.1 9.36 1.1 9.54 0 14.35-2.71 19-5.32 4.28-2.41 8.32-4.68 16.55-4.68s12.27 2.27 16.55 4.68c4.65 2.62 9.46 5.32 19 5.32s14.35-2.71 19-5.32c4.28-2.41 8.31-4.68 16.54-4.68v-5c-9.54 0-14.35 2.71-19 5.32-4.27 2.4-8.31 4.67-16.54 4.67zm16.54-45.4c-4.28 2.41-8.31 4.68-16.54 4.68-8.23 0-12.27-2.27-16.55-4.68-2.95-1.66-5.97-3.35-10.22-4.37l-4.31 4.31c5.38.66 8.66 2.49 12.08 4.42 4.65 2.62 9.46 5.32 19 5.32s14.35-2.71 19-5.32c4.28-2.41 8.31-4.68 16.54-4.68v-5c-9.54 0-14.35 2.7-19 5.32zm-16.54 25.04c-8.23 0-12.27-2.27-16.55-4.68-4.65-2.62-9.46-5.32-19-5.32-5.64 0-9.62.95-12.9 2.26l-10.92 10.92c2.79-.99 5.05-2.25 7.27-3.5 4.28-2.41 8.32-4.68 16.55-4.68s12.27 2.27 16.55 4.68c4.65 2.62 9.46 5.32 19 5.32s14.35-2.71 19-5.32c4.28-2.41 8.31-4.68 16.54-4.68v-5c-9.54 0-14.35 2.71-19 5.32-4.27 2.41-8.31 4.68-16.54 4.68zm-81.34-89.62L315.1 116h-7c-13.27 0-24.66 4.94-32.92 14.28-9.78 11.05-14.74 27.56-14.74 49.07v28.77h22.71l-5 5h-17.71v17.71l-5 5v-56.48c0-22.77 5.38-40.39 16-52.39 6.02-6.81 13.52-11.51 22.08-13.97h-128.7c47.69 9.48 83.75 51.65 83.75 102.09v27.62l-5 5v-32.62c0-.66-.01-1.31-.02-1.96h-51.71c21.48 4.79 36.95 18.22 46.2 40.12l-3.84 3.84c-10.82-27.19-31.49-40.96-61.56-40.96h-16.36l-11.29-15.42H72v-8h161.51v15.42h9.8c-3.59-51.4-46.54-92.12-98.84-92.12H72v-8h130.06l-24.61-24.71c-1.92-1.93-2.47-4.69-1.42-7.21 1.04-2.52 3.39-4.08 6.11-4.08h118.14c8.18 0 14.84 6.65 14.84 14.83zM167.89 200.7h-16.73l5.44 7.42h5.86l5.43-7.42zm50.67 0h-44.47l-5.43 7.42h44.47l5.43-7.42zm9.95 0h-3.76l-5.43 7.42h9.19v-7.42zM251.72 90h28.4V77h-28.4v13zm-38.39 5h-17.15l12.95 13h4.21V95zm0-18h-31.18c-.97 0-1.37.7-1.49 1-.12.3-.34 1.07.35 1.76L191.19 90h22.13V77zm33.39 18h-28.4v13h28.4V95zm0-18h-28.4v13h28.4V77zm5 31h28.4V95h-28.4v13zm58.39-13h-24.99v13h24.98l.01-13zm.01-8.17c0-5.42-4.41-9.83-9.83-9.83h-15.17v13h25v-3.17zm-202.58 200c8.23 0 12.27 2.27 16.55 4.68 4.65 2.62 9.46 5.32 19 5.32s14.35-2.71 19-5.32c4.28-2.41 8.32-4.68 16.55-4.68s12.27 2.27 16.55 4.68c.97.54 1.94 1.09 2.97 1.62l3.75-3.75c-1.49-.68-2.86-1.45-4.26-2.23-4.65-2.62-9.46-5.32-19-5.32s-14.35 2.71-19 5.32c-4.28 2.41-8.32 4.68-16.55 4.68s-12.27-2.27-16.55-4.68c-4.65-2.62-9.46-5.32-19-5.32s-14.35 2.71-19 5.32c-4.28 2.41-8.31 4.68-16.54 4.68v5c9.54 0 14.35-2.71 19-5.32 4.26-2.41 8.3-4.68 16.53-4.68zm0 20.36c8.23 0 12.27 2.27 16.55 4.68 4.65 2.62 9.46 5.32 19 5.32s14.35-2.71 19-5.32c4.28-2.41 8.32-4.68 16.55-4.68 1.91 0 3.6.12 5.11.34l4.25-4.25c-2.57-.67-5.6-1.1-9.36-1.1-9.54 0-14.35 2.71-19 5.32-4.28 2.41-8.32 4.68-16.55 4.68s-12.27-2.27-16.55-4.68c-4.65-2.62-9.46-5.32-19-5.32s-14.35 2.71-19 5.32c-4.28 2.41-8.31 4.68-16.54 4.68v5c9.54 0 14.35-2.71 19-5.32 4.27-2.4 8.31-4.67 16.54-4.67zm0 20.36c8.23 0 12.27 2.27 16.55 4.68 4.65 2.62 9.46 5.32 19 5.32 5.64 0 9.62-.95 12.9-2.26l10.92-10.92c-2.79.99-5.05 2.25-7.27 3.5-4.28 2.41-8.32 4.68-16.55 4.68s-12.27-2.27-16.55-4.68c-4.65-2.62-9.46-5.32-19-5.32s-14.35 2.71-19 5.32c-4.28 2.41-8.31 4.68-16.54 4.68v5c9.54 0 14.35-2.71 19-5.32 4.27-2.41 8.31-4.68 16.54-4.68zm16.55 25.04c2.95 1.66 5.97 3.35 10.22 4.37l4.31-4.31c-5.38-.66-8.66-2.49-12.08-4.42-4.65-2.62-9.46-5.32-19-5.32s-14.35 2.71-19 5.32c-4.28 2.41-8.31 4.68-16.54 4.68v5c9.54 0 14.35-2.71 19-5.32 4.28-2.41 8.31-4.68 16.54-4.68 8.23 0 12.27 2.28 16.55 4.68zm146.4-56.71h-9.8c3.59 51.4 46.54 92.12 98.84 92.12H432v8H301.94l24.61 24.71c1.92 1.93 2.47 4.69 1.42 7.21-1.04 2.52-3.39 4.08-6.11 4.08H203.71c-8.18 0-14.83-6.65-14.83-14.83l.02-29.17h7c13.27 0 24.66-4.94 32.92-14.28 9.78-11.05 14.74-27.56 14.74-49.07v-28.77h-22.71l5-5h17.71v-17.71l5-5v56.48c0 22.77-5.38 40.39-16 52.39-6.02 6.81-13.52 11.51-22.08 13.97h128.7c-47.69-9.48-83.75-51.65-83.75-102.09V261.3l5-5v32.62c0 .66.01 1.31.02 1.96h51.71c-21.48-4.79-36.96-18.22-46.2-40.12l3.84-3.84c10.82 27.19 31.49 40.96 61.56 40.96h16.36l11.29 15.42H432v8H270.49v-15.42zM193.89 409h24.99v-13H193.9l-.01 13zm9.82 18h15.17v-13h-24.99v3.17c-.01 5.42 4.4 9.83 9.82 9.83zm48.57-13h-28.4v13h28.4v-13zm0-18h-28.4v13h28.4v-13zm33.39 18h-28.4v13h28.4v-13zm0-18h-28.4v13h28.4v-13zm27.14 18h-22.13v13h31.18c.97 0 1.37-.7 1.49-1 .12-.3.34-1.07-.35-1.76L312.81 414zm-17.93-18h-4.21v13h17.15l-12.94-13zm41.23-92.7h16.73l-5.43-7.42h-5.86l-5.44 7.42zm-50.67 0h44.47l5.43-7.42h-44.47l-5.43 7.42zm-9.95 0h3.76l5.43-7.42h-9.19v7.42zm123.34-192.47-5.66-5.66-288 288 5.66 5.66 288-288z"></path></svg>