<svg viewbox="0 0 504 504" xml:space="preserve" xmlns="http://www.w3.org/2000/svg"><path d="M72 146.84c0-25.02 15.79-46.35 37.95-54.58L130.21 72v16.63l49.9 24.95-8.32 16.63h-41.58v74.84c-32.15 0-58.21-26.06-58.21-58.21zm301.79-16.63v74.84c32.15 0 58.21-26.06 58.21-58.21 0-25.02-15.79-46.35-37.95-54.58L373.79 72v16.63l-49.9 24.95 8.32 16.63h41.58zm0 168.74v74.84h-41.58l-8.32 16.63 49.9 24.95V432l20.26-20.26c22.16-8.23 37.95-29.56 37.95-54.58 0-32.15-26.06-58.21-58.21-58.21zm-243.58 74.84v-74.84c-32.15 0-58.21 26.06-58.21 58.21 0 25.02 15.79 46.35 37.95 54.58L130.21 432v-16.63l49.9-24.95-8.32-16.63h-41.58zm140.43-32.32 12.02 12.02-15.18 15.18v-12.02h-12.02l9.52-9.52-51.23-51.23-48.93 48.93-5.66-5.66 125.41-125.41-28.6-28.6-70.83 70.83 25.06 25.06-5.66 5.66-47.69-47.69-9.52 9.52v-12.02h-12.02l15.18-15.18 12.02 12.02 70.83-70.83-12.02-12.02 15.18-15.18v12.02h12.02l-9.52 9.52 51.23 51.23 48.93-48.93 5.66 5.66-125.41 125.41 28.6 28.6 70.83-70.83-25.06-25.06 5.66-5.66 47.69 47.69 9.52-9.52v12.02h12.02l-15.18 15.18-12.02-12.02-70.83 70.83zm-98.56-98.57 70.83-70.83-6.01-6.01-70.83 70.83 6.01 6.01zm80.37-61.28-6.01-6.01-70.83 70.83 6.01 6.01 70.83-70.83zm5.11 146.77 70.83-70.83-6.01-6.01-70.83 70.83 6.01 6.01zm80.37-61.28-6.01-6.01-70.83 70.83 6.01 6.01 70.83-70.83z"></path></svg>