<svg viewbox="0 0 504 504" xml:space="preserve" xmlns="http://www.w3.org/2000/svg"><path d="m121.67 359.72 5.66 5.66-15.43 15.42-5.66-5.66 15.43-15.42zm65-53.78c28.17-28.56 73.48-75 147.54-151.89a.81.81 0 0 0-.01-1.12l-.1-.1a.81.81 0 0 0-1.12-.01C256.1 226.9 209.66 272.21 181.1 300.38c-17.59 17.35-28.38 28.19-35.33 35.24-9.93-7.2-23.93-6.34-32.87 2.6l-2.83 2.83L146 376.98l2.83-2.83c8.94-8.94 9.81-22.95 2.6-32.87 7.05-6.95 17.89-17.75 35.24-35.34zm4.88-116.14a2.5 2.5 0 0 1 0 5h-13.93l-1.4 4.43h10.2a2.5 2.5 0 0 1 0 5h-11.78l-1.4 4.43h8.05a2.5 2.5 0 0 1 0 5h-9.63l-1.4 4.43h5.9a2.5 2.5 0 0 1 0 5h-7.48l-.08.24c-2.18 6.88-4 10.32-7.69 16.52-3.11 5.23-6.7 11.23-7.77 15.93 3.05-2.3 5.46-3.29 7.82-3.29 2.32 0 3.93.99 4.86 1.61.81-.4 2.77-1.62 6.6-5.22 4.5-4.22 8.95-12.25 13.26-20.01 4.63-8.35 9-16.22 13.84-19.97 6.2-4.79 11.09-7.75 15.41-10.36 8.21-4.96 13.16-7.96 19.88-19.84l.65-1.12c-4.77-4.29-13.77-11.36-24.81-15.13-8.65 6.48.16 23.31-29.13 19.27l-2.36 8.06h12.39zm47.61-8.6c-7.36 13-13.34 16.62-21.63 21.63-4.21 2.55-8.98 5.43-14.95 10.04-4.03 3.11-8.15 10.55-12.53 18.43-4.5 8.1-9.14 16.48-14.21 21.24-6.45 6.05-8.96 6.75-10.29 6.75-1.01 0-1.69-.46-2.35-.91-.64-.43-1.3-.88-2.24-.88-1.72 0-4.21 1.53-7.82 4.81 0 0 4.51 9.83 21-2.12 0 0 16.84-10.17 27.18-27.57 2.73-4.59 6.28-8.65 10.62-11.76C227.02 210.08 235 200.1 235 200.1c12.64-13.04 7.83-16.43 4.16-18.92v.02zm-109.01-50.99h41.54l8.31-16.63-49.85-24.95V72l-20.24 20.26C87.78 100.49 72 121.82 72 146.84c0 32.15 26.04 58.21 58.15 58.21v-74.84zm108.45-15.48a24.225 24.225 0 0 0 26.94 0 16.225 16.225 0 0 1 18.06 0c4 2.67 8.66 4.08 13.47 4.08v-8c-3.22 0-6.35-.95-9.03-2.73a24.201 24.201 0 0 0-26.94 0 16.225 16.225 0 0 1-18.06 0 24.201 24.201 0 0 0-26.94 0 16.217 16.217 0 0 1-9.03 2.73v8c4.81 0 9.47-1.41 13.47-4.08a16.262 16.262 0 0 1 18.06 0zm159.15 14.13-5.66-5.66-15.42 15.42 5.66 5.66 15.42-15.42zM238.6 96.73a24.225 24.225 0 0 0 26.94 0 16.225 16.225 0 0 1 18.06 0c4 2.67 8.66 4.08 13.47 4.08v-8c-3.22 0-6.35-.95-9.03-2.73a24.201 24.201 0 0 0-26.94 0 16.225 16.225 0 0 1-18.06 0c-8.18-5.45-18.76-5.46-26.94 0a16.217 16.217 0 0 1-9.03 2.73v8c4.81 0 9.47-1.41 13.47-4.08a16.262 16.262 0 0 1 18.06 0zm0 36a24.225 24.225 0 0 0 26.94 0 16.225 16.225 0 0 1 18.06 0c4 2.67 8.66 4.08 13.47 4.08v-8c-3.22 0-6.35-.95-9.03-2.73a24.201 24.201 0 0 0-26.94 0 16.225 16.225 0 0 1-18.06 0 24.201 24.201 0 0 0-26.94 0 16.217 16.217 0 0 1-9.03 2.73v8c4.81 0 9.47-1.41 13.47-4.08a16.262 16.262 0 0 1 18.06 0zm66.92 158.64 3.73 3.73 12.19-12.19-4.32-4.32 46.18-46.18-5.66-5.66-46.18 46.18-2.65-2.65 57.73-57.73-5.66-5.66-100.7 100.71 4.49 9.62 7.22-7.22a6.126 6.126 0 0 1 8.66 0 6.126 6.126 0 0 1 0 8.66l-2.98 2.98 11.28 22.07 21.04-21.04-9.94-6.88c-3.51-2.43-3.96-7.44-.94-10.46l5.94-5.94-3.73-3.73a5.601 5.601 0 0 0-7.91 0l-5.22 5.22-3.54-3.54 5.98-5.98c4.13-4.12 10.86-4.12 14.99.01zm-40.12 79.9a24.22 24.22 0 0 0-26.94 0 16.225 16.225 0 0 1-18.06 0c-4-2.67-8.66-4.08-13.47-4.08v8c3.23 0 6.35.95 9.03 2.73a24.225 24.225 0 0 0 26.94 0 16.225 16.225 0 0 1 18.06 0c8.18 5.46 18.76 5.45 26.94 0 2.68-1.79 5.81-2.73 9.03-2.73v-8c-4.81 0-9.47 1.41-13.47 4.08a16.262 16.262 0 0 1-18.06 0zm108.45-72.32v74.84h-41.54L324 390.42l49.85 24.95V432l20.24-20.26c22.14-8.23 37.91-29.56 37.91-54.58 0-32.15-26.04-58.21-58.15-58.21zm-15.62-130.57c9.93 7.2 23.93 6.34 32.87-2.6l2.83-2.83L358 127.02l-2.83 2.83c-8.94 8.94-9.81 22.95-2.6 32.87-7.05 6.95-17.89 17.74-35.24 35.33-28.17 28.56-73.48 75-147.54 151.89a.81.81 0 0 0 .01 1.12l.1.1a.81.81 0 0 0 1.12.01c76.89-74.06 123.33-119.37 151.89-147.54 17.57-17.35 28.37-28.19 35.32-35.25zM265.4 389.27a24.238 24.238 0 0 0-26.94 0 16.225 16.225 0 0 1-18.06 0c-4-2.67-8.66-4.08-13.47-4.08v8c3.23 0 6.35.95 9.03 2.73a24.225 24.225 0 0 0 26.94 0 16.225 16.225 0 0 1 18.06 0c8.18 5.46 18.76 5.45 26.94 0 2.68-1.79 5.81-2.73 9.03-2.73v-8c-4.81 0-9.47 1.41-13.47 4.08a16.262 16.262 0 0 1-18.06 0zm0 18a24.238 24.238 0 0 0-26.94 0 16.225 16.225 0 0 1-18.06 0c-4-2.67-8.66-4.08-13.47-4.08v8c3.23 0 6.35.95 9.03 2.73a24.225 24.225 0 0 0 26.94 0 16.225 16.225 0 0 1 18.06 0c8.18 5.46 18.76 5.45 26.94 0 2.68-1.79 5.81-2.73 9.03-2.73v-8c-4.81 0-9.47 1.41-13.47 4.08a16.262 16.262 0 0 1-18.06 0z"></path></svg>