<svg viewbox="0 0 504 504" xml:space="preserve" xmlns="http://www.w3.org/2000/svg"><path d="M318.31 305.58c19.75-24.38 24.05-57.1 12.91-85.12 5.46-5.15 6.98-7.72 9.27-12.92.18-.4.37-.83.57-1.3.48-1.08 1.73-2.48 3.64-4.04l.03-.02c20.06 37.31 15.99 84.18-12.22 117.61l-14.2-14.21zm-3.22-159.9 45.34-29.44 9.76 9.76-11.52 11.52a5.5 5.5 0 0 0-1.62 3.91c0 1.48.58 2.86 1.62 3.91 1.04 1.04 2.43 1.62 3.91 1.62s2.86-.58 3.91-1.62L378 133.81l9.76 9.76-29.44 45.34-1.41.6c-10.37 4.38-18.38 10.14-20.41 14.69-.21.48-.41.92-.59 1.33-2.44 5.55-3.47 7.35-12.88 15.59-6.76 5.92-14.37 11.86-16.63 13.35l-4.87 3.21-2.42-5.31c-2.98-6.53-6.35-11.52-10.63-15.74l-1.13-1.13c-4.19-4.25-9.18-7.62-15.71-10.6l-5.31-2.42 3.21-4.87c1.49-2.27 7.43-9.87 13.35-16.63 8.24-9.41 10.03-10.44 15.59-12.88.41-.18.85-.38 1.33-.59 4.55-2.03 10.31-10.05 14.69-20.41l.59-1.42zm-25.42 65.11 6.82-6.82a65.344 65.344 0 0 0-16.86-11.34c-2.93 3.63-5.17 6.59-5.91 7.72 6.62 3.03 11.73 6.45 15.95 10.44zm21.69 13.59a65.314 65.314 0 0 0-11.34-16.87l-6.82 6.82c4 4.22 7.42 9.32 10.45 15.96 1.12-.74 4.08-2.98 7.71-5.91zm7.74-75.34c-3.24 7.66-9.66 19.64-17.26 23.03-5.95 2.66-6.65 2.44-15.2 12.2-.59.67-1.17 1.35-1.75 2.02 6.3 3.16 12.08 7.2 17.24 12.03l13.18-13.18 3.54 3.54-13.18 13.18a73.5 73.5 0 0 1 12.03 17.25c.68-.58 1.35-1.16 2.02-1.75 9.76-8.55 9.53-9.24 12.2-15.2 3.4-7.59 15.37-14.02 23.03-17.26l26.4-40.66-3.36-3.36-7.99 7.99a10.478 10.478 0 0 1-7.44 3.08c-2.69 0-5.39-1.03-7.44-3.08-4.11-4.11-4.11-10.78 0-14.89l7.99-7.99-3.36-3.36-40.65 26.41zm-22.64 14.48c.4-.18.84-.37 1.3-.57 1.08-.48 2.48-1.73 4.04-3.64l.02-.03c-37.31-20.06-84.17-15.99-117.61 12.23l14.21 14.21c24.38-19.75 57.1-24.05 85.12-12.91 5.14-5.48 7.72-7.01 12.92-9.29zM432 252l-65.9-65.9-4.43 6.82-.05.02L420.69 252l-77.98 77.98 5.66 5.66L432 252zm-360 0 65.9 65.9 4.43-6.82.05-.02L83.31 252l77.98-77.98-5.66-5.66L72 252zm116.91 106.32-45.34 29.44-9.76-9.76 11.52-11.52c1.04-1.04 1.62-2.43 1.62-3.91s-.58-2.86-1.62-3.91a5.5 5.5 0 0 0-3.91-1.62c-1.48 0-2.86.57-3.91 1.62L126 370.19l-9.76-9.76 29.44-45.34 1.41-.6c10.37-4.38 18.38-10.14 20.41-14.69.21-.48.41-.92.59-1.33 2.44-5.55 3.47-7.35 12.88-15.59 6.76-5.92 14.37-11.86 16.63-13.35l4.87-3.21 2.42 5.31c2.98 6.53 6.35 11.52 10.63 15.74l1.13 1.13c4.19 4.25 9.18 7.62 15.71 10.6l5.31 2.42-3.21 4.87c-1.49 2.27-7.43 9.87-13.35 16.63-8.24 9.41-10.03 10.44-15.59 12.88-.41.18-.85.38-1.33.59-4.55 2.03-10.31 10.05-14.69 20.41l-.59 1.42zm25.42-65.11-6.82 6.82a65.344 65.344 0 0 0 16.86 11.34c2.93-3.63 5.17-6.59 5.91-7.72-6.62-3.03-11.73-6.45-15.95-10.44zm-21.69-13.59a65.314 65.314 0 0 0 11.34 16.87l6.82-6.82c-4-4.22-7.42-9.32-10.45-15.96-1.12.74-4.08 2.98-7.71 5.91zm-7.74 75.34c3.24-7.66 9.66-19.64 17.26-23.03 5.95-2.66 6.65-2.44 15.2-12.2.59-.67 1.17-1.35 1.75-2.02-6.3-3.16-12.08-7.2-17.24-12.03l-13.18 13.18-3.54-3.54 13.18-13.18a73.5 73.5 0 0 1-12.03-17.25c-.68.58-1.35 1.16-2.02 1.75-9.76 8.55-9.53 9.24-12.2 15.2-3.4 7.59-15.37 14.02-23.03 17.26l-26.4 40.66 3.36 3.36 7.99-7.99c2.06-2.06 4.75-3.08 7.44-3.08 2.69 0 5.39 1.03 7.44 3.08 4.11 4.11 4.11 10.78 0 14.89l-7.99 7.99 3.36 3.36 40.65-26.41zm67.1 65.73-59.06-59.06-.02.05-6.82 4.43L252 432l83.63-83.63-5.66-5.66L252 420.69zm0-337.38 59.06 59.06.02-.05 6.82-4.43L252 72l-83.64 83.64 5.66 5.66L252 83.31zm-80.52 100.91c-28.21 33.43-32.28 80.29-12.22 117.6l.03-.02c1.91-1.56 3.16-2.96 3.64-4.04.21-.46.4-.9.57-1.3 2.29-5.2 3.81-7.77 9.27-12.92-11.14-28.02-6.84-60.74 12.9-85.11l-14.19-14.21zm36.06 156.26c-.4.18-.84.37-1.3.57-1.08.48-2.48 1.73-4.04 3.64l-.02.03c37.31 20.06 84.17 15.99 117.6-12.22l-14.21-14.21c-24.37 19.74-57.1 24.04-85.11 12.9-5.14 5.48-7.72 7.01-12.92 9.29zm60-78.6 131.29 131.29-5.66 5.66-131.29-131.29c-7.14 4.55-16.71 3.73-22.93-2.49s-7.05-15.79-2.49-22.93L105.17 110.83l5.66-5.66 131.29 131.29c7.14-4.55 16.71-3.73 22.93 2.49s7.04 15.8 2.49 22.93zm-21.78-21.78 18.14 18.14c2.67-5.07 1.87-11.49-2.39-15.75s-10.68-5.06-15.75-2.39zm12.48 23.8-18.14-18.14c-2.67 5.07-1.87 11.49 2.39 15.75s10.68 5.06 15.75 2.39z"></path></svg>