<svg viewbox="0 0 504 504" xml:space="preserve" xmlns="http://www.w3.org/2000/svg"><path d="M299.07 404.65c7.92 8.73 1.29 16.79 1.29 16.79-69.36 32.06-100.8-18.75-102.88-22.28 5.41-3.28 14.04-5.66 24.34.16 21.48 12.14 40.1 15.04 60.39 9.41 10.23-2.84 13.99-3.88 16.86-4.08zm-52.09-18.91c-.04.14.04.28.16.33 15.99 6.22 27.98.94 37.78-1.14 2.67-.57 10.01-1.91 14.67-2.29 1.62 2.17 2.92 4.33 3.9 6.14-3.86-.45-10.02.53-17.78 2.45-24.83 6.14-28.64 7.08-58.35-7.08-4.05-1.93-7.85-2.74-11.35-2.74-.57 0-1.12.04-1.67.08 4.63-3.58 9.01-5.92 12.91-7.04 3.8-1.09 7.74-1.39 11.64-1.04l12.93-17.24-12.39-12.39 3.54-3.54 33.21 33.21c8.37-3.14 15.09.35 19.98 5.23-14.48 1.67-24.82 7.08-34.11 7.74-4.84.59-9.83.01-14.77-.87a.258.258 0 0 0-.3.19zm.29-10.58c4.72 1.6 13.8 3.29 23.78.21l-15.64-15.64-10.96 14.61c.94.24 1.89.51 2.82.82zm39.64 20.92c-25.74 6.36-30.37 7.51-61.7-7.42-9.96-4.75-16.88-1.19-21.71 3.12 2.1-.56 3.77-.91 6.21-.91 4.41 0 9.31 1.12 14.58 4.1 20.5 11.59 37.43 14.26 56.59 8.94 11.2-3.11 15.1-4.19 18.6-4.3 1.25-1.65 2.92-3.3 5.17-5.51-3.46-.97-9.09-.16-17.74 1.98zM221.78 95.27c20.29-5.63 38.91-2.73 60.39 9.41 10.3 5.82 18.93 3.45 24.34.16-2.08-3.53-33.52-54.34-102.88-22.28 0 0-6.62 8.06 1.29 16.79 2.88-.2 6.64-1.24 16.86-4.08zm43.32 35.33-12.93 17.24 12.39 12.39-3.54 3.54-33.21-33.21c-8.37 3.14-15.09-.35-19.98-5.23 14.48-1.67 24.82-7.08 34.11-7.74 4.84-.59 9.83-.01 14.77.87.14.02.27-.07.31-.2a.279.279 0 0 0-.16-.33c-15.99-6.22-27.98-.94-37.78 1.14-2.67.57-10.01 1.91-14.67 2.29a50.634 50.634 0 0 1-3.9-6.14c3.86.45 10.02-.53 17.78-2.45 24.83-6.14 28.64-7.08 58.35 7.08 4.05 1.93 7.85 2.74 11.35 2.74.57 0 1.12-.04 1.67-.08-4.63 3.58-9.01 5.92-12.91 7.04-3.81 1.09-7.75 1.39-11.65 1.05zm-5.55-.94c-.95-.24-1.89-.51-2.82-.82-4.72-1.6-13.8-3.29-23.78-.21l15.64 15.64 10.96-14.61zm139.28-18.83-5.66-5.66-60.04 60.04 5.66 5.66 60.04-60.04zm-71.55 136.24-90.44 37.68-2.32 13.54-7.88-1.35 2.23-12.98-63.26-37.08 1.35-7.39 37.74-6.46c-4.55-16.19-19.44-28.11-37.07-28.11-21.23 0-38.51 17.27-38.51 38.51 0 21.23 17.27 38.51 38.51 38.51 10.88 0 20.72-4.54 27.73-11.83l9.71 5.69c-9.08 10.49-22.48 17.13-37.44 17.13-27.34 0-49.51-22.17-49.51-49.51 0-27.34 22.17-49.51 49.51-49.51 23.11 0 42.51 15.83 47.97 37.24l23-3.94 4.78-27.83c-1.84-.04-3.63-.34-5.33-.9-5.76-1.89-10.4-6.55-12.09-12.62l-1.04-3.73c-.42-1.5.02-3.1 1.15-4.17a4.2 4.2 0 0 1 4.22-.96l39.53 12.94c2.51.82 3.88 3.53 3.06 6.03a4.771 4.771 0 0 1-4.52 3.29l-16.86.09-4.72 27.53 83.32 3.84-2.82 16.35zm-90.12-11.49-20.24 3.46a49.31 49.31 0 0 1-2.75 21.24l-9.71-5.69c1.07-3.54 1.66-7.28 1.66-11.17 0-.85-.04-1.68-.09-2.52l-26.94 4.61 51.21 30.01 6.86-39.94zm89.66 3.02-81.41-3.75-6.96 40.57 88.37-36.82zM217.09 107.92c25.74-6.36 30.37-7.51 61.7 7.42 9.96 4.75 16.88 1.19 21.71-3.12-2.1.56-3.77.91-6.21.91-4.41 0-9.31-1.12-14.58-4.1-20.5-11.59-37.43-14.26-56.59-8.94-11.2 3.11-15.1 4.19-18.6 4.3-1.25 1.65-2.92 3.3-5.17 5.51 3.46.97 9.09.16 17.74-1.98zM375.24 309.2c0-23.62-16.54-43.36-38.67-48.3l1.81-10.54 1.48.25 4.5-26.19 13.94 2.48 1.4-7.88-14.23-2.53c-4.22-.65-8.25 2.25-8.97 6.46l-4.52 26.3 1.48.25-10.19 59.27 4.93.85 6.51-37.87c16.92 4.06 29.53 19.3 29.53 37.44 0 21.23-17.27 38.51-38.51 38.51-21.23 0-38.51-17.27-38.51-38.51 0-20.9 16.74-37.95 37.52-38.48l1.89-11c-.3-.01-.6-.02-.9-.02-27.34 0-49.51 22.17-49.51 49.51 0 27.34 22.17 49.51 49.51 49.51 27.34 0 49.51-22.16 49.51-49.51zm-23.7 48 41.63 41.63 5.66-5.66-40.39-40.39a54.62 54.62 0 0 1-6.9 4.42zm-246.37 35.97 5.66 5.66 60.04-60.04-5.66-5.66-60.04 60.04zm14.9-176.35-46.48-15.61-1.59 4.75 45.81 15.38c.68-1.55 1.44-3.05 2.26-4.52zm50.79-51.61-60.04-60.04-5.66 5.66 60.04 60.04 5.66-5.66zm-38.54 36.74L73.6 182.23l-1.6 4.74 56.2 18.87c1.3-1.37 2.68-2.67 4.12-3.89zm-18.33 31.82-40.4-13.57-1.59 4.74 41.32 13.88c.14-1.71.37-3.39.67-5.05z"></path></svg>