<svg viewbox="0 0 504 504" xml:space="preserve" xmlns="http://www.w3.org/2000/svg"><path d="m92.57 279.67-3.68-3.68 6.69-15.26 5.21 5.21-8.22 13.73zm54.49-96.9-43.52-43.52 35.68-35.69 43.52 43.52-3.54 3.54-8-8-12.54 12.54 8 8-3.54 3.54-8-8-12.54 12.54 8 8-3.52 3.53zm8.16-56.14-12.54 12.54 12.46 12.46 12.54-12.54-12.46-12.46zm-28.53-3.45 12.46 12.46 12.54-12.54-12.46-12.45-12.54 12.53zm-3.62 28.53 12.54-12.54-12.46-12.46-12.54 12.54 12.46 12.46zm15.99 15.99 12.54-12.54-12.46-12.46-12.54 12.54 12.46 12.46zm-29.73 135.8-22.54-22.54-3.54 3.54 22.54 22.54 3.54-3.54zM75.75 292c-6.22 6.22-6.22 16.32 0 22.54 6.22 6.22 16.32 6.22 22.54 0l3.97-3.97-22.54-22.54-3.97 3.97zm56.45-78.57-3.88-11.42a3.645 3.645 0 0 0-3.33-2.49c-1.54-.06-2.94.81-3.56 2.23l-23.7 54.07 5.7 5.7 28.77-48.09zm3.99-3.81L238 107.81l-3.54-3.54-100.07 100.08 1.8 5.27zm38.41 43.93-1.27-11.44a3.557 3.557 0 0 0-2.91-3.14l-13.23-2.38-39.35 39.35 7.24 7.24 49.52-29.63zm-78.39 29.76 3.59 3.59 10.97-10.97-6.35-6.35-8.21 13.73zm51.92-66.4-11.44-1.27-29.63 49.51 7.24 7.24 39.35-39.35-2.38-13.23c-.27-1.54-1.56-2.74-3.14-2.9zm37.77 38.94 148.04-148.04-3.54-3.54-149.78 149.79 5.28 1.79zm-65.24 29.97-6.35-6.35-10.97 10.97 3.59 3.59 13.73-8.21zm8.86 8.86-5.21-5.21-13.73 8.21 3.68 3.68 15.26-6.68zm97.66-96.09 3.54-3.54-11.54-11.54-35.68 35.69 11.54 11.54 3.54-3.54-8-8 12.54-12.54 8 8 3.54-3.54-8-8 12.54-12.54 7.98 8.01zm-64.14-6.91-3.54 3.54 11.53 11.53 35.69-35.69-11.53-11.53-3.54 3.54 8 8-12.54 12.54-8-8-3.54 3.54 8 8-12.54 12.54-7.99-8.01zm25.46 77.14a3.702 3.702 0 0 0 2.23-3.56 3.645 3.645 0 0 0-2.49-3.33l-11.42-3.88-48.09 28.77 5.7 5.7 54.07-23.7zm-29.99-37.08 3 .54 124.47-124.47-3.54-3.54-124.47 124.47.54 3zm180.6 78.78 3.54-3.54-11.53-11.53-35.69 35.69 11.53 11.53 3.54-3.54-8-8 12.54-12.54 8 8 3.54-3.54-8-8 12.54-12.54 7.99 8.01zm26.86-17.94L264.15 394.39l3.54 3.54 100.07-100.07-1.79-5.28zm-90.99 11.03-3.54 3.54 11.54 11.54L318.66 283l-11.54-11.54-3.54 3.54 8 8-12.54 12.54-8-8-3.54 3.54 8 8-12.54 12.54-7.98-8.01zm80.12 15.82 43.52 43.52-35.68 35.69-43.52-43.52 3.54-3.54 8 8 12.54-12.54-8-8 3.54-3.54 8 8 12.54-12.54-8-8 3.52-3.53zm-8.16 56.14 12.54-12.54-12.46-12.46-12.54 12.54 12.46 12.46zm28.53 3.46-12.46-12.46-12.54 12.54 12.46 12.45 12.54-12.53zm3.62-28.53-12.54 12.54L379 375.49l12.54-12.54-12.45-12.45zm-15.99-16-12.54 12.54 12.46 12.46 12.54-12.54-12.46-12.46zm-19.45-64.04-3-.54-124.47 124.47 3.54 3.54 124.47-124.47-.54-3zm26.31 18.32 3.88 11.42c.49 1.45 1.8 2.43 3.33 2.49 1.54.06 2.94-.81 3.56-2.23l23.7-54.07-5.7-5.7-28.77 48.09zm22.87-90.08 22.54 22.54 3.53-3.54-22.54-22.54-3.53 3.54zm33.58-11.04c-6.22-6.22-16.32-6.22-22.54 0l-3.97 3.97 22.54 22.54 3.97-3.97c6.22-6.23 6.22-16.32 0-22.54zm-25.03 48.61 5.21 5.21 6.69-15.26-3.68-3.68-8.22 13.73zm-165.32 35.5L109.91 397.93l-5.66-5.66 126.16-126.16-22.93-22.93 3.54-3.54 8 8 12.54-12.54-8-8 3.54-3.54 8 8 12.54-12.54-8-8 3.54-3.54 22.93 22.93 126.16-126.16 5.66 5.66-126.18 126.18 22.93 22.93-3.54 3.54-8-8-12.54 12.54 8 8-3.54 3.54-8-8-12.54 12.54 8 8-3.52 3.52-22.94-22.93zm27.47-4.68-11.4-11.4-12.54 12.54 11.4 11.4 12.54-12.54zm-7.86-14.93 11.4 11.4 12.54-12.54-11.4-11.4-12.54 12.54zm-17.05-17.05 11.39 11.39 12.54-12.54-11.39-11.39-12.54 12.54zm-4.68 27.47 12.54-12.54-11.39-11.39-12.54 12.54 11.39 11.39zm97.79.65 13.23 2.38 39.35-39.35-7.24-7.24-49.51 29.63 1.27 11.44a3.536 3.536 0 0 0 2.9 3.14zm-15.47-16.88L168.21 394.39l3.54 3.54 149.79-149.79-5.28-1.79zm-2.61-12.97a3.702 3.702 0 0 0-2.23 3.56 3.645 3.645 0 0 0 2.49 3.33l11.42 3.88 48.09-28.77-5.7-5.7-54.07 23.7zm58.99-25.85 5.21 5.21 13.73-8.21-3.68-3.68-15.26 6.68zm-18.62 77.76 11.44 1.27 29.63-49.51-7.24-7.24-39.35 39.35 2.38 13.23c.27 1.54 1.57 2.74 3.14 2.9zm27.47-68.91 6.35 6.35 10.97-10.97-3.59-3.59-13.73 8.21zm24.46 2.51-3.59-3.59-10.97 10.97 6.35 6.35 8.21-13.73z"></path></svg>