<svg viewbox="0 0 504 504" xml:space="preserve" xmlns="http://www.w3.org/2000/svg"><path d="m122.57 138.14-3.53-3.53c21.81-21.81 35.22-41.83 48.62-62.61h5.95c-13.58 21.11-27.81 42.86-51.04 66.14zm25.27 25.27c24.43-24.11 40.66-48.72 56.42-72.62 4.1-6.22 8.23-12.48 12.53-18.79h-6.04c-3.64 5.38-7.16 10.73-10.66 16.04-16.32 24.76-31.85 48.31-55.77 71.85l3.52 3.52zm47.02 47.02 3.54 3.54c25.54-24.51 45.53-53.71 64.93-82.08 13.8-20.18 27.92-40.83 44.11-59.88h-6.51c-15.21 18.32-28.62 37.9-41.73 57.06-19.27 28.17-39.12 57.17-64.34 81.36zm-25.28-25.28 3.54 3.54c24.98-24.29 43.07-51.2 60.65-77.32 8.77-13.04 17.7-26.3 27.55-39.37h-6.26c-9.03 12.17-17.3 24.46-25.45 36.58-17.43 25.92-35.38 52.61-60.03 76.57zm61.78 137.64c.75.2 1.48.5 2.16.91.8.48 1.51 1.05 2.16 1.66 14.9-20.59 30.59-40.44 48.17-57.09l-3.54-3.54c-17.93 17.01-33.86 37.18-48.95 58.06zm74.96-204.67c-3.23 4.46-35.73 47.82-35.73 47.82a7.338 7.338 0 0 0 2.48 10.08c1.52.92 3.5.43 4.41-1.09l10.85-17.95 17.85 17.85c-14.67 16.13-42.59 48.63-50.28 69.98l.02.02c44.43-35.46 83.4-86.82 117.86-132.25l.01-.01c-14.58 9.35-38.45 30.91-62.19 56.37l-19.01-19.01 12.65-20.92c1.48-2.46 4.68-3.24 7.13-1.76l5.59-9.24c-3.96-2.39-8.5-4.22-11.64.11zm-35.84 62.18c-.8-.48-1.51-1.05-2.16-1.66-14.9 20.59-30.59 40.44-48.17 57.09l3.54 3.54c17.93-16.99 33.86-37.17 48.95-58.05-.76-.21-1.48-.51-2.16-.92zM355.64 72h-6.99c-11.6 12.11-22.41 25.52-32.77 39.43 1.7.62 3.25 1.46 4.56 2.25 11.1-14.85 22.7-29.08 35.2-41.68zm.52 268.59c-24.43 24.11-40.66 48.72-56.42 72.62-4.1 6.22-8.23 12.48-12.53 18.79h6.04c3.64-5.38 7.16-10.73 10.66-16.04 16.32-24.76 31.85-48.31 55.77-71.85l-3.52-3.52zm-47.02-47.02-3.54-3.54c-25.54 24.51-45.53 53.71-64.93 82.08-13.8 20.18-27.92 40.83-44.11 59.88h6.51c15.21-18.32 28.62-37.9 41.73-57.06 19.27-28.17 39.12-57.17 64.34-81.36zM330.39 432h5.95c13.4-20.78 26.81-40.8 48.62-62.61l-3.53-3.53c-23.23 23.28-37.46 45.03-51.04 66.14zm4.03-113.15-3.54-3.54c-24.98 24.29-43.07 51.2-60.65 77.32-8.77 13.04-17.7 26.3-27.55 39.37h6.26c9.03-12.17 17.3-24.46 25.45-36.58 17.43-25.92 35.38-52.61 60.03-76.57zm-210.58 67.72c-2.57 3.38-5.1 6.71-7.6 10.01-.94-.14-1.86-.45-2.72-1.02l-3.33-2.25 2.27-3.32c37.46-54.7 72.12-96.48 105.28-126.85l-5.45-5.45c-11.95 11.93-49.73 47.82-90.71 67.96l-2.06 1.01-1.18-1.97c-29.32-48.75-40.11-103.77-44-141.33-4.21-40.67-1.46-70.29-1.43-70.59l.51-5.28 150.28 150.3c5.33-4.69 10.63-9.09 15.89-13.19l2.75-2.14 6.28 6.11-2.73 2.13c-46.38 36.15-86.58 89.13-122.05 135.87zm56.74-160.59L77.31 122.71c-.5 11.76-.75 33.59 2.01 60.26 3.66 35.29 13.49 86.17 39.36 132.35 25.83-46.16 52.83-78.86 61.9-89.34zm28.18 28.18-24.63-24.63c-9.28 10.75-36.51 43.84-62.29 90.41 39.41-20.05 75.43-54.31 86.92-65.78zM148.36 432h6.99c11.6-12.11 22.41-25.52 32.77-39.43-1.7-.62-3.25-1.46-4.56-2.25-11.1 14.85-22.7 29.08-35.2 41.68zm49.32-46.12c3.23-4.46 35.73-47.82 35.73-47.82 2.1-3.47.99-7.98-2.48-10.08-1.52-.92-3.5-.43-4.41 1.09l-10.85 17.95-17.85-17.85c14.67-16.13 42.59-48.63 50.28-69.98l-.02-.02c-44.43 35.46-83.4 86.82-117.86 132.25l-.01.01c14.58-9.35 38.45-30.91 62.19-56.37l19.01 19.01-12.65 20.92c-1.48 2.46-4.68 3.24-7.13 1.76l-5.59 9.24c3.96 2.39 8.5 4.22 11.64-.11zm233.41 5.34-.51 5.28-150.29-150.29c-5.33 4.69-10.63 9.09-15.89 13.19l-2.75 2.14-6.28-6.11 2.73-2.13c46.39-36.15 86.59-89.14 122.06-135.88 2.57-3.38 5.1-6.71 7.6-10.01.94.14 1.86.45 2.72 1.02l3.33 2.25-2.27 3.32c-37.46 54.7-72.12 96.49-105.28 126.85l5.45 5.45c11.95-11.93 49.73-47.82 90.71-67.96l2.06-1.01 1.18 1.97c29.32 48.75 40.11 103.77 44 141.33 4.21 40.68 1.46 70.3 1.43 70.59zm-107.67-113.2 103.27 103.27c.5-11.76.75-33.59-2.01-60.26-3.66-35.29-13.49-86.17-39.36-132.35-25.83 46.16-52.83 78.86-61.9 89.34zm-28.18-28.18 24.63 24.63c9.28-10.74 36.51-43.84 62.29-90.41-39.41 20.05-75.44 54.31-86.92 65.78z"></path></svg>