<svg viewbox="0 0 504 504" xml:space="preserve" xmlns="http://www.w3.org/2000/svg"><path d="M252 170.96c-44.76 0-81.04 36.28-81.04 81.04s36.28 81.04 81.04 81.04 81.04-36.28 81.04-81.04-36.28-81.04-81.04-81.04zm4 8.11c16.68.89 32.31 7.37 44.74 18.53l-33.69 33.69a25.338 25.338 0 0 0-11.05-4.58v-47.64zm-8 0v47.65c-4 .62-7.77 2.19-11.05 4.58l-33.69-33.69c12.43-11.17 28.06-17.64 44.74-18.54zm-50.4 24.19 33.69 33.69a25.338 25.338 0 0 0-4.58 11.05h-47.65c.91-16.68 7.38-32.31 18.54-44.74zM179.07 256h47.65c.63 4 2.19 7.77 4.58 11.05l-33.69 33.69c-11.17-12.43-17.64-28.06-18.54-44.74zM248 324.93c-16.68-.89-32.31-7.37-44.74-18.53l33.69-33.69c3.27 2.39 7.04 3.95 11.05 4.58v47.64zM233.98 252c0-9.95 8.07-18.02 18.02-18.02s18.02 8.07 18.02 18.02-8.07 18.02-18.02 18.02-18.02-8.07-18.02-18.02zM256 324.93v-47.65c4-.62 7.77-2.19 11.05-4.58l33.69 33.69c-12.43 11.17-28.06 17.64-44.74 18.54zm50.4-24.19-33.69-33.69c2.39-3.27 3.95-7.04 4.58-11.05h47.65c-.91 16.68-7.38 32.31-18.54 44.74zM277.28 248c-.63-4-2.19-7.77-4.58-11.05l33.69-33.69c11.16 12.43 17.64 28.06 18.53 44.74h-47.64zm62.56-111.71c1.65 2.06 4.12 3.24 6.79 3.24.82 0 1.64-.12 2.44-.34l16.79-4.82c.29-.08.58-.13.87-.13.79 0 1.55.35 2.12.91.57.57.91 1.33.91 2.12 0 .29-.04.58-.13.87l-4.82 16.79c-.23.79-.34 1.61-.34 2.44 0 2.67 1.18 5.15 3.24 6.79a39.549 39.549 0 0 0 24.74 8.67c9.75 0 19.46-3.59 27.05-10.64l3.87 3.87 8.64-8.64-3.84-3.84a9.424 9.424 0 0 0 2.78-6.71c0-2.53-.99-4.92-2.78-6.71L396 108l-32.16-32.16c-1.79-1.79-4.17-2.78-6.71-2.78s-4.92.99-6.71 2.78L346.58 72l-8.64 8.64 3.86 3.86c-13.34 14.37-14.26 36.36-1.96 51.79zm81.25 10.22 3.54 3.54-8.64 8.64-3.54-3.54 8.64-8.64zm-67.13-67.13 3.54 3.54-8.64 8.64-3.54-3.54 8.64-8.64zm-189.8 288.33c-1.65-2.06-4.12-3.24-6.79-3.24-.82 0-1.64.12-2.44.34l-16.79 4.82c-.29.08-.58.13-.87.13-.79 0-1.55-.35-2.12-.91-.57-.57-.91-1.33-.91-2.12 0-.29.04-.58.13-.87l4.82-16.79c.23-.79.34-1.61.34-2.44 0-2.67-1.18-5.15-3.24-6.79a39.549 39.549 0 0 0-24.74-8.67c-9.75 0-19.46 3.59-27.05 10.64l-3.87-3.87-8.63 8.64 3.84 3.84a9.424 9.424 0 0 0-2.78 6.71c0 2.53.99 4.92 2.78 6.71L108 396l32.16 32.16c1.79 1.79 4.17 2.78 6.71 2.78s4.92-.99 6.71-2.78l3.84 3.84 8.64-8.64-3.86-3.86c13.34-14.37 14.26-36.36 1.96-51.79zm-81.25-10.22-3.54-3.54 8.64-8.64 3.54 3.54-8.64 8.64zm67.13 67.13-3.54-3.54 8.64-8.64 3.54 3.54-8.64 8.64zm43.43-62.15-3.75 7.07a133.7 133.7 0 0 1-55.26-55.25l7.07-3.75a125.652 125.652 0 0 0 51.94 51.93zm117.06-220.94 3.75-7.07a133.7 133.7 0 0 1 55.26 55.25l-7.07 3.75a125.652 125.652 0 0 0-51.94-51.93zm-92.5 205.61-2.69 7.54c-30.7-10.96-55.05-35.31-66.01-66.01l7.54-2.69c10.15 28.44 32.71 51 61.16 61.16zm67.94-190.28 2.69-7.54c30.7 10.96 55.05 35.31 66.01 66.01l-7.54 2.69c-10.15-28.44-32.71-51-61.16-61.16zm49.46 63.96a88.624 88.624 0 0 1 4.22 15.53l15.68 15.68-15.69 15.69a88.785 88.785 0 0 1-4.25 15.56l25.6-25.6 21.73 21.73-103.3 103.3-21.73-21.73 25.6-25.6a89.024 89.024 0 0 1-15.56 4.25l-15.69 15.69-15.68-15.68a88.387 88.387 0 0 1-15.53-4.22l77.13 77.13 114.61-114.61-77.14-77.12zm-52.47 165.44 103.3-103.3 14.99 14.99-103.3 103.3-14.99-14.99zM168.57 283.18a88.624 88.624 0 0 1-4.22-15.53l-15.61-15.61 15.6-15.6c.93-5.31 2.33-10.5 4.19-15.51l-25.45 25.45-21.73-21.73 103.3-103.3 21.74 21.74-25.44 25.44c5.01-1.86 10.2-3.26 15.51-4.19l15.59-15.59 15.61 15.61c5.32.94 10.52 2.35 15.53 4.22l-77.13-77.13-114.62 114.6 77.13 77.13zm52.54-165.37-103.3 103.3-15.06-15.06 103.3-103.3 15.06 15.06zm194.95 183.64L432 317.39 317.39 432l-15.94-15.94 5.66-5.66 10.28 10.28 103.3-103.3-10.28-10.28 5.65-5.65zm-328.12-98.9L72 186.61 186.61 72l15.94 15.94-5.66 5.66-10.28-10.28-103.3 103.3 10.28 10.28-5.65 5.65z"></path></svg>