<svg viewbox="0 0 504 504" xml:space="preserve" xmlns="http://www.w3.org/2000/svg"><path d="m183.59 312.55-64.55 64.52a3.706 3.706 0 0 1-5.23 0l-4.51-4.51a3.706 3.706 0 0 1 0-5.23l64.51-64.48c4.89-4.89 10.08-9.47 15.54-13.72l3.04-2.36c5.49-4.27 10.71-8.87 15.63-13.79l144.25-143.86c.83-.92 6.99-6.72 9.46-9.66 4.16-4.96-8.12-10.07-16.51-19.1-8.39-9.03-14.75-20.77-5.44-26.22 2.7-1.58 6.23-2.14 9.88-2.14 2.75 0 5.57.32 8.16.76 6.23 1.06 11.86 4.38 15.84 9.29 5.13 6.32 7.12 14.69 5.14 22.58-2.44 9.7-4.86 13.47-13.99 22.79l.04.01-151.46 151c-4.89 4.89-9.47 10.07-13.71 15.53l-2.43 3.13c-4.24 5.43-8.8 10.59-13.66 15.46zm160.74-182.57c-6.37-2.55-13.03-3.57-20.38-3.16-4.87.27-9.94 1.84-15.3 3.51-6.62 2.05-13.48 4.18-20.89 4.18-16.1 0-25.79-5.72-35.16-11.25-9.89-5.84-19.24-11.36-36.77-11.36-33.67 0-57.29 23.33-65.49 32.79l44.82 44.82 23.44-23.44a13.926 13.926 0 0 1-2.51-7.98c0-7.73 6.29-14.02 14.02-14.02s14.02 6.29 14.02 14.02c0 7.73-6.29 14.02-14.02 14.02-2.96 0-5.71-.93-7.98-2.51l-23.44 23.44 41.15 41.15-5.66 5.65-41.14-41.14-84.64 84.64s-5.9-2.57-11.12-7.79c-5.22-5.22-7.79-11.12-7.79-11.12l2.22-2.22a37.73 37.73 0 0 0-2.8-3.15c-5.22-5.22-11.12-7.79-11.12-7.79L97 232.06s5.9 2.57 11.12 7.79c5.22 5.22 7.79 11.12 7.79 11.12l-2.76 2.76c.92.87 2.01 1.74 3.34 2.61 3.16 2.04 6.26 2.77 8.98 2.86l64.03-64.03-84.33-84.33 5.66-5.66 33.81 33.81c9.32-10.77 34.43-35.09 71.19-35.09 19.72 0 30.94 6.63 40.84 12.47 9.21 5.44 17.17 10.14 31.09 10.14 6.2 0 12.46-1.94 18.52-3.82 5.59-1.73 11.38-3.53 17.23-3.85 9.81-.54 18.55 1.08 26.92 5.06l-6.1 6.08zM159.67 374.02c6.37 2.55 13.03 3.57 20.38 3.16 4.87-.27 9.94-1.84 15.3-3.51 6.62-2.05 13.48-4.18 20.89-4.18 16.1 0 25.79 5.72 35.16 11.25 9.89 5.84 19.24 11.36 36.77 11.36 33.67 0 57.29-23.33 65.49-32.79l-44.82-44.82-23.44 23.44c1.58 2.27 2.51 5.02 2.51 7.98 0 7.73-6.29 14.02-14.02 14.02s-14.02-6.29-14.02-14.02c0-7.73 6.29-14.02 14.02-14.02 2.96 0 5.71.93 7.98 2.51l23.44-23.44-41.15-41.15 5.66-5.65 41.14 41.14 84.64-84.64s5.9 2.57 11.12 7.79c5.22 5.22 7.79 11.12 7.79 11.12l-2.22 2.22a37.73 37.73 0 0 0 2.8 3.15c5.22 5.22 11.12 7.79 11.12 7.79L407 271.94s-5.9-2.57-11.12-7.79c-5.22-5.22-7.79-11.12-7.79-11.12l2.76-2.76c-.92-.87-2.01-1.74-3.34-2.61-3.16-2.04-6.26-2.77-8.98-2.86l-64.03 64.03 84.33 84.33-5.66 5.66-33.81-33.81c-9.32 10.77-34.43 35.09-71.19 35.09-19.72 0-30.94-6.63-40.84-12.47-9.21-5.44-17.17-10.14-31.09-10.14-6.2 0-12.46 1.94-18.52 3.82-5.59 1.73-11.38 3.53-17.23 3.85-9.81.54-18.55-1.08-26.92-5.06l6.1-6.08zm123.24-28.1c0-4.98-4.05-9.02-9.02-9.02s-9.02 4.05-9.02 9.02 4.05 9.02 9.02 9.02c4.98 0 9.02-4.04 9.02-9.02zm126.05 0c0 6.35 5.17 11.52 11.52 11.52S432 352.27 432 345.92s-5.17-11.52-11.52-11.52c-6.36 0-11.52 5.17-11.52 11.52zM221.09 158.08c0 4.98 4.05 9.02 9.02 9.02s9.02-4.05 9.02-9.02-4.05-9.02-9.02-9.02c-4.98 0-9.02 4.04-9.02 9.02zm-126.05 0c0-6.35-5.17-11.52-11.52-11.52S72 151.73 72 158.08s5.17 11.52 11.52 11.52c6.36 0 11.52-5.17 11.52-11.52zm47.24 226.46c2.47-2.94 8.63-8.74 9.46-9.66l144.25-143.86c4.92-4.92 10.13-9.52 15.63-13.79l3.04-2.36a164.43 164.43 0 0 0 15.54-13.72l64.51-64.48a3.706 3.706 0 0 0 0-5.23l-4.51-4.51a3.706 3.706 0 0 0-5.23 0l-64.55 64.52c-4.87 4.87-9.42 10.03-13.65 15.46l-2.43 3.13c-4.24 5.46-8.82 10.64-13.71 15.53l-151.46 151 .04.01c-9.13 9.32-11.55 13.1-13.99 22.79-1.98 7.89.01 16.26 5.14 22.58 3.99 4.91 9.61 8.23 15.84 9.29 2.58.44 5.4.76 8.16.76 3.65 0 7.18-.56 9.88-2.14 9.31-5.45 2.95-17.18-5.44-26.22-8.41-9.04-20.68-14.14-16.52-19.1z"></path></svg>