<svg viewbox="0 0 504 504" xml:space="preserve" xmlns="http://www.w3.org/2000/svg"><path d="M295.35 208.65c-.95-.95-1.94-1.85-2.96-2.69l45.15-45.15 5.66 5.66-45.15 45.15c-.85-1.03-1.75-2.02-2.7-2.97zM82.98 88.71c0-8.08 2.08-16.71 7.93-16.71h322.18c5.85 0 7.93 8.63 7.93 16.71s-2.08 16.71-7.93 16.71h-8.85l-25.87 25.87 33.1 33.1-5.66 5.66-64.63-64.63H162.81l-64.63 64.63-5.66-5.66 33.1-33.1-25.87-25.87H90.9c-5.84-.01-7.92-8.64-7.92-16.71zm68.52 16.7h-40.43l20.21 20.21 20.22-20.21zm241.43 0H352.5l20.22 20.21 20.21-20.21zM87.98 88.71c0 7.6 2.08 11.71 2.93 11.71h322.18c.85 0 2.93-4.1 2.93-11.71S413.94 77 413.09 77H90.91c-.85 0-2.93 4.1-2.93 11.71zM432 176.82V145.5h-32.34l8 8H424v23.32h1.5v150.37H424v23.32h-16.34l-8 8H432v-31.32h-1.5V176.82h1.5zm-276.54-56.99h193.07l35.63 35.63v193.07l-35.63 35.63H155.46l-35.63-35.63V155.46l35.63-35.63zm-5.96 29.67v205h205v-205h-205zm-53.16 201H80v-23.32h-1.5V176.82H80V153.5h16.34l8-8H72v31.32h1.5v150.37H72v31.32h32.34l-8-8.01zm115.27-52.45c-1.02-.85-2.01-1.74-2.96-2.69-.95-.95-1.85-1.95-2.69-2.97l-45.15 45.15 5.66 5.66 45.14-45.15zm209.41 117.24c0 8.08-2.08 16.71-7.93 16.71H90.91c-5.85 0-7.93-8.63-7.93-16.71s2.08-16.71 7.93-16.71h8.85l25.87-25.87-33.1-33.1 5.66-5.66 64.63 64.63h178.37l64.63-64.63 5.66 5.66-33.1 33.1 25.87 25.87h8.85c5.84.01 7.92 8.64 7.92 16.71zm-68.52-16.7h40.43l-20.21-20.21-20.22 20.21zm-241.43 0h40.43l-20.22-20.21-20.21 20.21zm304.95 16.7c0-7.6-2.08-11.71-2.93-11.71H90.91c-.85 0-2.93 4.1-2.93 11.71S90.06 427 90.91 427h322.18c.85 0 2.93-4.1 2.93-11.71zM238.7 302.81c15.3 0 28.45-9.17 34.29-22.3-2.5.46-5.07.71-7.71.71-.57 0-1.14-.02-1.71-.04-5.24 8.2-14.43 13.65-24.89 13.65-16.31 0-29.52-13.22-29.52-29.52 0-10.46 5.44-19.64 13.65-24.89-.02-.57-.04-1.13-.04-1.71 0-2.63.25-5.2.71-7.7-13.13 5.84-22.29 18.99-22.29 34.29 0 20.71 16.8 37.51 37.51 37.51zm29.43-39.75c2.77-.32 5.4-1.1 7.81-2.27-2.05-17.12-15.63-30.69-32.75-32.73a24.476 24.476 0 0 0-2.27 7.81c14.53 1.08 26.12 12.67 27.21 27.19zm-40.36-24.36c0-20.72 16.8-37.51 37.51-37.51s37.51 16.8 37.51 37.51c0 20.72-16.8 37.51-37.51 37.51s-37.51-16.79-37.51-37.51zm7.98.01c0 16.31 13.22 29.52 29.52 29.52 16.31 0 29.52-13.22 29.52-29.52s-13.22-29.52-29.52-29.52c-16.3-.01-29.52 13.21-29.52 29.52z"></path></svg>