<svg viewbox="0 0 504 504" xml:space="preserve" xmlns="http://www.w3.org/2000/svg"><path d="m342.918 155.46 50.275-50.262 5.656 5.658-50.275 50.26zM96.89 156.89c6.47 6.47 14.52 10.39 22.91 11.81l48.97-48.97a42.18 42.18 0 0 0-11.81-22.85l-8.08-8.08c-16.59-16.57-43.48-16.57-60.07 0s-16.59 43.44 0 60.01l8.08 8.08zm8.56-46.17c7.11 0 12.87 5.76 12.87 12.87 0 7.11-5.76 12.87-12.87 12.87-7.11 0-12.87-5.76-12.87-12.87 0-7.1 5.76-12.87 12.87-12.87zM169.21 130.6l-38.53 38.53c4.32-.38 8.6-1.41 12.66-3.11 3.77-1.49 8.08-.54 10.95 2.34l21.08 21.08a5.589 5.589 0 0 0 7.9 0l6.2-6.2a5.589 5.589 0 0 0 0-7.9l-21.06-21.06c-2.88-2.88-3.83-7.2-2.33-10.98a42.16 42.16 0 0 0 3.13-12.7zM105.17 393.186l50.274-50.26 5.656 5.657-50.275 50.26zM334.8 373.4l38.53-38.53c-4.32.38-8.6 1.41-12.66 3.11-3.77 1.49-8.08.54-10.95-2.34l-21.08-21.08a5.589 5.589 0 0 0-7.9 0l-6.2 6.2a5.589 5.589 0 0 0 0 7.9l21.06 21.06c2.88 2.88 3.83 7.2 2.33 10.98-1.72 4.08-2.74 8.37-3.13 12.7zM407.12 347.11c-6.47-6.47-14.52-10.39-22.91-11.81l-48.97 48.97a42.18 42.18 0 0 0 11.81 22.85l8.08 8.08c16.59 16.57 43.48 16.57 60.07 0s16.59-43.44 0-60.01l-8.08-8.08zm-8.55 46.17c-7.11 0-12.87-5.76-12.87-12.87 0-7.11 5.76-12.87 12.87-12.87s12.87 5.76 12.87 12.87c0 7.1-5.77 12.87-12.87 12.87z"></path><path d="m287.52 420.69-91.25-91.25L261 264.55l51.27 51.4 3.54-3.54-51.28-51.4.01-.01 64.74-64.89 91.41 91.41-42.2 42.2c3.4.1 6.74.54 9.98 1.33L432 287.52l-97.07-97.07 16.17-16.21-21.54-21.54-16.17 16.21L216.48 72l-43.45 43.45c.81 3.25 1.27 6.58 1.37 9.94l42.08-42.08 91.26 91.26-64.72 64.88-51.27-51.4-3.54 3.54 51.28 51.4-.01.01-64.74 64.9-91.42-91.42 42.2-42.2c-3.4-.1-6.74-.54-9.98-1.33L72 216.48l97.08 97.08-16.16 16.2 21.54 21.54 16.16-16.2 96.9 96.9 43.47-43.47c-.81-3.25-1.27-6.59-1.37-9.95l-42.1 42.11zm42.04-260.91 14.47 14.46-12.64 12.67-14.47-14.47 12.64-12.66zm-18.28 18.33 14.47 14.47-12.8 12.83-14.47-14.46 12.8-12.84zm-16.34 16.37 14.47 14.46-13.78 13.81-14.46-14.47 13.77-13.8zm-17.31 17.35 14.46 14.47-13.78 13.81-14.46-14.46 13.78-13.82zm-17.31 17.36 14.46 14.46L261 257.46l-14.46-14.47 13.78-13.8zm-17.31 17.35 14.46 14.47-13.77 13.8-14.47-14.46 13.78-13.81zm-17.31 17.35 14.47 14.46-13.78 13.81-14.46-14.47 13.77-13.8zm-17.31 17.35 14.46 14.47-13.78 13.81-14.47-14.47 13.79-13.81zm-33.94 62.99-14.47-14.46 12.63-12.66 14.47 14.47-12.63 12.65zm3.82-32.8 12.81-12.84 14.47 14.47-12.81 12.84-14.47-14.47z"></path></svg>