<svg viewbox="0 0 504 504" xml:space="preserve" xmlns="http://www.w3.org/2000/svg"><path d="m408.97 312.08-45.59 45.64 35.51 35.51-5.66 5.66L252 257.66 110.77 398.89l-5.66-5.66 71.18-71.18c-27.55 9.42-59.33 3.17-81.27-18.77-30.7-30.7-30.7-80.66 0-111.36l45.6-45.64-35.51-35.51 5.66-5.66L252 246.34l141.23-141.23 5.66 5.66-71.18 71.18c27.55-9.42 59.33-3.17 81.27 18.77 30.69 30.7 30.69 80.66-.01 111.36zm-237.3-134.75-50.14 50.14 49.31 49.31 50.14-50.14-49.31-49.31zm-46.22 61.14c-9.04 9.53-8.91 24.62.43 33.96s24.43 9.47 33.96.43l-34.39-34.39zM246.34 252l-21.83-21.83-53.68 53.68-7.45-7.45c-11.48 10.99-29.75 10.85-41.04-.44s-11.43-29.57-.44-41.04l-7.45-7.45 53.68-53.68-21.85-21.85-45.59 45.64c-27.58 27.58-27.58 72.46 0 100.05 27.58 27.57 72.44 27.58 100.02.02L246.34 252zm85.99 74.67 50.14-50.14-49.31-49.31-50.14 50.14 49.31 49.31zm46.22-61.14c9.04-9.53 8.91-24.62-.43-33.96s-24.43-9.47-33.96-.43l34.39 34.39zM257.66 252l21.83 21.83 53.68-53.68 7.45 7.45c11.48-10.99 29.75-10.85 41.04.44s11.43 29.57.44 41.04l7.45 7.45-53.68 53.68 21.85 21.85 45.59-45.64c27.58-27.58 27.58-72.46 0-100.05-27.58-27.58-72.46-27.58-100.04 0L257.66 252zm35.22 118.49h-27.47c-.2 2.64-.55 5.31-1.04 8h28.51v-8zm19.26-3.37c9.18 24.5 4.34 48.97-10.81 54.65-1.31.49-2.66.81-4.02.99.46.75.73 1.63.73 2.57 0 2.76-2.24 5-5 5s-5-2.24-5-5c0-.57.12-1.1.29-1.61-5.06.37-11.08.63-17.59.76.44.74.71 1.6.71 2.52 0 2.76-2.24 5-5 5s-5-2.24-5-5c0-.89.25-1.72.66-2.44h-.43c-11.06 0-21.38-.38-28.97-1.03l.02-.02c-5.87 4.24-12.06 6.6-17.95 6.6-2.48 0-4.91-.42-7.24-1.29-16.52-6.19-21.79-32.86-11.79-59.57 8.59-22.94 25.67-38.45 40.78-38.45 2.48 0 4.91.42 7.24 1.29 16.52 6.19 21.79 32.86 11.79 59.57-4.18 11.17-10.38 20.56-17.37 27.28l.02-.02c6.7.41 14.85.64 23.47.64 7.16 0 13.99-.16 19.97-.45-8.26-4.74-16.12-13.6-21.65-25.07.08-.21.17-.41.24-.62 1.44-3.86 2.59-7.75 3.46-11.63.33 1.03.68 2.06 1.06 3.08 3.35 8.95 8.48 16.94 14.43 22.49 5.25 4.9 10.75 7.6 15.49 7.6 1.35 0 2.64-.23 3.84-.68 2.68-1.01 7.49-4.2 9.49-14.32 1.73-8.75.51-19.7-3.36-30.03-3.35-8.95-8.48-16.94-14.43-22.49-5.25-4.9-10.75-7.6-15.49-7.6-1.35 0-2.64.23-3.84.68-2.01.75-5.22 2.75-7.54 7.97a41.5 41.5 0 0 0-2.73-6.87c-.01-.02-.02-.05-.04-.07-.36-.7-.73-1.38-1.12-2.03-3.42-5.77-8.15-9.93-13.94-12.09a25.517 25.517 0 0 0-9-1.61c-6.55 0-13.26 2.39-19.58 6.65l-2.08-9.9c-.64-3.05 1.69-5.91 4.8-5.91h34.4c2.32 0 4.32 1.63 4.8 3.9l3.36 16.02c1.73-1.53 3.68-2.73 5.85-3.54 2.14-.8 4.37-1.18 6.64-1.18 13.88-.02 29.54 14.21 37.43 35.26zm-68.85-26.34-12.88 40.91 18.49 4.81c3.59-10.67 4.64-21.75 2.86-30.76-1.76-8.86-5.47-13.01-8.47-14.96zm-37.9 26.14 22.58 5.87 10.65-33.81c-.68-.11-1.38-.17-2.09-.17-5.35 0-11.52 3.01-17.38 8.47-5.4 5.04-10.18 11.89-13.76 19.64zm2.46 53.12 12.87-40.87-18.31-4.76c-3.6 10.68-4.65 21.77-2.87 30.78 1.72 8.7 5.33 12.85 8.31 14.85zm38.07-26.05-22.76-5.92-10.66 33.85c.74.13 1.5.2 2.28.2 5.35 0 11.52-3.01 17.38-8.47 5.39-5.05 10.18-11.9 13.76-19.66zm-16.43-272.17c-.77-13.29-5.38-25.86-13.28-36.41C224.8 77.8 235.84 72.89 248 72v49.82h-18.51zm58.3-36.41C279.2 77.8 268.16 72.89 256 72v49.82h18.51c.77-13.29 5.38-25.85 13.28-36.41zm-66.32 44.41h-23.31c.85 11.6 5.36 22.18 12.39 30.59 6.41-8.96 10.18-19.48 10.92-30.59zm0-8c-.73-11.11-4.51-21.63-10.92-30.59a53.715 53.715 0 0 0-12.39 30.59h23.31zm53.04 8H256v49.82c12.16-.89 23.2-5.8 31.79-13.41-7.9-10.55-12.51-23.12-13.28-36.41zm8.03-8h23.31a53.715 53.715 0 0 0-12.39-30.59c-6.41 8.96-10.19 19.48-10.92 30.59zm0 8c.73 11.11 4.51 21.63 10.92 30.59a53.784 53.784 0 0 0 12.39-30.59h-23.31zm-34.54 0h-18.51c-.77 13.29-5.38 25.86-13.28 36.41 8.6 7.61 19.63 12.52 31.79 13.41v-49.82z"></path></svg>