<svg viewbox="0 0 504 504" xml:space="preserve" xmlns="http://www.w3.org/2000/svg"><path d="m432 257.63-63.5-65.43 19.54-19.54-25.52-25.52 36.31-36.31-5.66-5.66L252 246.34 110.83 105.17l-5.66 5.66 51.47 51.47L72 246.37l63.5 65.43-19.54 19.54 25.52 25.52-36.31 36.31 5.66 5.66L252 257.66l141.17 141.17 5.66-5.66-51.47-51.47L432 257.63zm-88.18 80.54-41.02-41.02 81.49-81.49 40.68 41.92-81.15 80.59zm36.99-126.11-81.55 81.55-16.09-16.09 81.79-81.79 15.85 16.33zm-101.17 61.93-4.16-4.16L376.8 168.5l4.16 4.16-101.32 101.33zm62.21-77.61-14.29-14.29 13.94-13.94 14.29 14.29-13.94 13.94zm-3.53 3.53-13.94 13.94-14.29-14.29 13.94-13.94 14.29 14.29zm-17.48 17.48-13.94 13.94-14.29-14.29 13.94-13.94 14.29 14.29zm-17.48 17.48-13.94 13.94-14.29-14.29 13.94-13.94 14.29 14.29zm69.91-69.91-13.94 13.94-14.29-14.29 13.94-13.94 14.29 14.29zm-213.09.87 41.02 41.02-81.49 81.49-40.68-41.92 81.15-80.59zm-36.99 126.11 81.55-81.55 16.09 16.09-81.79 81.79-15.85-16.33zm101.17-61.93 4.16 4.16L127.2 335.51l-4.16-4.16 101.32-101.34zm-62.21 77.61 14.29 14.29-13.94 13.94-14.29-14.29 13.94-13.94zm3.53-3.53 13.94-13.94 14.29 14.29-13.94 13.94-14.29-14.29zm17.48-17.48 13.94-13.94 14.29 14.29-13.94 13.94-14.29-14.29zm17.48-17.48 13.94-13.94 14.29 14.29-13.94 13.94-14.29-14.29zm-69.91 69.91 13.94-13.94 14.29 14.29-13.94 13.94-14.29-14.29zm101.67-73.1-14.29-14.29 13.94-13.94L246.34 252l-13.94 13.94zm39.2-27.88 14.29 14.29-13.94 13.94L257.66 252l13.94-13.94zM252 72c-30.18 0-54.64 24.46-54.64 54.64s24.46 54.64 54.64 54.64 54.64-24.46 54.64-54.64S282.18 72 252 72zm-25.4 12.01c3.27-1.96 6.78-3.55 10.48-4.72a73.526 73.526 0 0 0 28.05 14.26H226.6v-9.54zm-5 11.31c-6.94 10.64-10.43 21.36-10.37 31.89.05 8.86 2.63 17.73 7.65 26.43-5.16-1.6-12.52-5.54-15.08-15.12-.94-3.81-1.45-7.79-1.45-11.88 0-15.92 7.55-30.11 19.24-39.2v7.88zm55.8 73.94a49.266 49.266 0 0 1-10.48 4.72 73.67 73.67 0 0 0-28.05-14.26h38.52v9.54zm.07-42.41c-4.76 7.74-13.7 11.84-25.86 11.84-13.3 0-22.38 2.89-27 8.59-.36.44-.66.88-.94 1.32-1.65-7.1-1.29-15.39 2.87-22.17 4.76-7.74 13.7-11.84 25.86-11.84 13.3 0 22.38-2.89 27-8.59.36-.44.66-.88.94-1.32 1.65 7.1 1.29 15.39-2.87 22.17zm4.93 38.99v-7.86c6.81-10.09 10.3-20.44 10.37-30.77.06-9.12-2.56-18.38-7.76-27.61 5.15 1.58 12.59 5.49 15.18 15.09.95 3.83 1.46 7.83 1.46 11.94-.01 15.93-7.56 30.12-19.25 39.21zM252 432c30.18 0 54.64-24.46 54.64-54.64s-24.46-54.64-54.64-54.64-54.64 24.46-54.64 54.64S221.83 432 252 432zm25.4-12.01a49.266 49.266 0 0 1-10.48 4.72 73.526 73.526 0 0 0-28.05-14.26h38.53v9.54zm5-11.31c6.94-10.64 10.43-21.36 10.37-31.89-.05-8.86-2.63-17.73-7.65-26.43 5.16 1.6 12.52 5.54 15.08 15.12.94 3.81 1.45 7.79 1.45 11.88 0 15.92-7.55 30.11-19.24 39.2v-7.88zm-55.8-73.94c3.27-1.96 6.78-3.55 10.48-4.72a73.67 73.67 0 0 0 28.05 14.26H226.6v-9.54zm-.06 42.41c4.76-7.74 13.7-11.84 25.86-11.84 13.3 0 22.38-2.89 27-8.59.36-.44.66-.88.94-1.32 1.65 7.1 1.29 15.39-2.87 22.17-4.76 7.74-13.7 11.84-25.86 11.84-13.3 0-22.38 2.89-27 8.59-.36.44-.66.88-.94 1.32-1.65-7.1-1.3-15.39 2.87-22.17zm-4.94-38.99v7.86c-6.81 10.09-10.3 20.44-10.37 30.77-.06 9.12 2.56 18.38 7.76 27.61-5.15-1.58-12.59-5.49-15.18-15.09-.95-3.83-1.46-7.83-1.46-11.94.01-15.93 7.56-30.12 19.25-39.21z"></path></svg>