<svg viewbox="0 0 504 504" xml:space="preserve" xmlns="http://www.w3.org/2000/svg"><path d="m283.08 170.8 1.82 2.98c0 .01.65 1.11 1.41 3.06l-.55-.11c-6.44-1.3-12.15-4.94-16.09-10.24l-1.35-1.82c-4.07-5.48-10.17-8.76-16.32-8.76s-12.25 3.28-16.32 8.76l-1.35 1.82c-3.94 5.3-9.65 8.94-16.09 10.24l-.55.11c.76-1.95 1.41-3.06 1.42-3.08l1.81-2.96c3.73-1.48 7.01-3.97 9.45-7.26l1.35-1.82c4.99-6.73 12.57-10.75 20.28-10.76 7.71.01 15.29 4.03 20.28 10.76l1.35 1.82c2.44 3.28 5.72 5.78 9.45 7.26zM161.7 272.29l1.82 1.35c3.28 2.43 5.77 5.7 7.25 9.43l2.98 1.82c.02.01 1.12.66 3.06 1.42l-.11-.53c-1.3-6.44-4.94-12.15-10.24-16.09l-1.82-1.35c-5.48-4.07-8.76-10.17-8.76-16.32s3.28-12.25 8.76-16.32l1.82-1.35c5.3-3.94 8.94-9.65 10.24-16.09l.11-.56c-1.94.76-3.04 1.4-3.04 1.4l-2.99 1.83a21.698 21.698 0 0 1-7.26 9.46l-1.82 1.35c-6.73 4.99-10.75 12.57-10.76 20.28.01 7.7 4.03 15.28 10.76 20.27zm68.67 68.2 1.35 1.82c4.99 6.73 12.57 10.75 20.28 10.76 7.7-.01 15.28-4.03 20.28-10.76l1.35-1.82c2.44-3.28 5.71-5.78 9.44-7.25l1.83-2.99c.01-.02.66-1.12 1.41-3.05l-.54.11c-6.44 1.3-12.15 4.94-16.09 10.24l-1.35 1.82c-4.07 5.48-10.17 8.76-16.32 8.76s-12.25-3.28-16.32-8.76l-1.35-1.82a26.546 26.546 0 0 0-16.09-10.24l-.54-.11c.75 1.93 1.39 3.02 1.4 3.03l1.84 3.01a21.81 21.81 0 0 1 9.42 7.25zM342.3 231.73l-1.82-1.35a21.624 21.624 0 0 1-7.26-9.46l-2.96-1.81c-.02-.01-1.13-.66-3.07-1.42l.11.56c1.3 6.44 4.94 12.15 10.25 16.09l1.82 1.35c5.48 4.07 8.76 10.17 8.76 16.32-.01 6.15-3.28 12.25-8.76 16.32l-1.82 1.35a26.604 26.604 0 0 0-10.25 16.09l-.11.53c1.93-.76 3.03-1.4 3.04-1.4l3-1.83c1.48-3.72 3.97-6.99 7.25-9.43l1.82-1.35c6.73-4.99 10.75-12.57 10.76-20.28-.01-7.7-4.04-15.28-10.76-20.28zm-111.32 69.3c2.9.59 5.48 2.23 7.26 4.63l.81 1.09c3.18 4.28 8.02 6.84 12.96 6.85 4.93 0 9.77-2.56 12.95-6.85l.81-1.09c1.78-2.4 4.36-4.04 7.26-4.63l11.31-2.29c.22-.04.43-.1.65-.16a57.1 57.1 0 0 0-1.88-4.16l-.21-.43-10.84 2.19c-4.1.83-7.74 3.14-10.24 6.52l-.81 1.09c-2.26 3.04-5.62 4.85-8.99 4.86-3.38 0-6.74-1.82-9-4.86l-.81-1.09a16.905 16.905 0 0 0-10.25-6.52l-10.83-2.19-.22.43c-.71 1.4-1.34 2.78-1.9 4.15.22.05.44.11.66.16l11.31 2.3zm70.03-27.99c.59-2.9 2.23-5.48 4.63-7.26l1.09-.81c4.28-3.18 6.84-8.02 6.85-12.96 0-4.93-2.57-9.77-6.85-12.95l-1.09-.81c-2.4-1.78-4.04-4.36-4.63-7.26l-2.29-11.31c-.04-.22-.11-.44-.16-.66-1.39.57-2.78 1.18-4.13 1.87l-.45.23 2.19 10.84c.83 4.1 3.14 7.74 6.52 10.25l1.09.81c3.04 2.25 4.85 5.62 4.86 8.99 0 3.38-1.82 6.74-4.86 9l-1.09.81a16.939 16.939 0 0 0-6.52 10.24l-2.18 10.81.44.23c1.39.71 2.77 1.33 4.14 1.89.05-.21.11-.42.15-.64l2.29-11.31zm-91 9.84-2.18-10.81c-.83-4.1-3.15-7.74-6.52-10.24l-1.09-.81c-3.04-2.25-4.85-5.62-4.86-8.99 0-3.38 1.82-6.74 4.86-8.99l1.09-.81c3.38-2.51 5.69-6.14 6.52-10.25l2.19-10.84-.45-.23c-1.39-.71-2.77-1.33-4.13-1.89-.05.22-.12.45-.16.67L202.99 231c-.59 2.9-2.23 5.48-4.63 7.26l-1.09.81c-4.28 3.18-6.84 8.02-6.85 12.95 0 4.93 2.56 9.77 6.85 12.95l1.09.81c2.4 1.78 4.04 4.36 4.63 7.26l2.29 11.31c.04.21.1.42.15.62 1.4-.57 2.79-1.18 4.14-1.88l.44-.21zm63.01-79.87c-2.9-.59-5.48-2.23-7.26-4.63l-.81-1.09c-3.18-4.28-8.02-6.84-12.95-6.85-4.93 0-9.77 2.56-12.95 6.85l-.81 1.09c-1.78 2.4-4.36 4.04-7.26 4.63l-11.31 2.29c-.21.04-.42.1-.63.15.57 1.39 1.18 2.77 1.87 4.12l.23.46 10.82-2.19c4.1-.83 7.74-3.14 10.25-6.52l.81-1.09c2.25-3.04 5.62-4.85 8.99-4.86 3.38 0 6.74 1.82 9 4.86l.81 1.09a16.91 16.91 0 0 0 10.24 6.52l10.82 2.19.24-.46c.71-1.38 1.33-2.76 1.88-4.12-.22-.05-.43-.11-.65-.16l-11.33-2.28zm140.41 14.06-3.28-2.43c-8.18-6.07-13.79-14.88-15.79-24.8l-5.06-25.03c-.75.92-1.55 1.82-2.41 2.67-.57.57-1.15 1.12-1.75 1.65l4.38 21.68c2.25 11.12 8.53 20.98 17.69 27.78l3.28 2.43c10.37 7.7 16.57 19.28 16.58 30.97-.01 11.7-6.21 23.28-16.58 30.98l-3.28 2.43c-9.16 6.8-15.44 16.66-17.69 27.78l-4.38 21.68c.6.53 1.18 1.08 1.75 1.65.85.85 1.66 1.74 2.41 2.66l5.06-25.02c2-9.92 7.61-18.73 15.79-24.8l3.28-2.43c11.62-8.62 18.56-21.68 18.57-34.94-.01-13.23-6.96-26.29-18.57-34.91zm-245.94-99.96c.57.57 1.12 1.15 1.65 1.75l21.68-4.38c11.12-2.25 20.98-8.53 27.78-17.69l2.43-3.28c7.7-10.37 19.28-16.57 30.97-16.58 11.7.01 23.28 6.21 30.98 16.58l2.43 3.28c6.8 9.16 16.66 15.44 27.78 17.69l21.69 4.38c.53-.6 1.08-1.18 1.65-1.75.85-.85 1.74-1.66 2.66-2.41l-25.02-5.06c-9.92-2-18.73-7.61-24.8-15.79l-2.43-3.28C278.31 78.95 265.25 72.01 252 72c-13.25.01-26.31 6.95-34.93 18.57l-2.43 3.28c-6.07 8.18-14.88 13.79-24.8 15.79l-25.03 5.06c.92.75 1.82 1.55 2.68 2.41zM114.7 339.19c.76-.92 1.55-1.82 2.41-2.68.57-.57 1.15-1.12 1.75-1.65l-4.38-21.68c-2.25-11.12-8.53-20.98-17.69-27.78l-3.28-2.43c-10.37-7.7-16.57-19.28-16.58-30.97.01-11.7 6.21-23.28 16.58-30.98l3.28-2.43c9.16-6.8 15.44-16.66 17.69-27.78l4.38-21.69c-.6-.53-1.18-1.08-1.75-1.65-.85-.85-1.66-1.74-2.41-2.67l-5.06 25.02c-2 9.92-7.61 18.73-15.79 24.8l-3.28 2.43C78.96 225.69 72.01 238.75 72 252c.01 13.25 6.96 26.31 18.57 34.93l3.28 2.43c8.18 6.07 13.79 14.88 15.79 24.8l5.06 25.03zm221.82 47.7c-.57-.57-1.12-1.15-1.65-1.75l-21.68 4.38c-11.12 2.25-20.98 8.53-27.78 17.69l-2.43 3.28c-7.7 10.37-19.28 16.57-30.97 16.58-11.7-.01-23.28-6.21-30.98-16.58l-2.43-3.28c-6.8-9.16-16.66-15.44-27.78-17.69l-21.69-4.38c-.53.6-1.08 1.18-1.65 1.75-.85.85-1.74 1.66-2.67 2.41l25.02 5.06c9.92 2 18.73 7.61 24.8 15.79l2.43 3.28c8.62 11.62 21.68 18.56 34.94 18.57 13.25-.01 26.31-6.95 34.93-18.57l2.43-3.28c6.07-8.18 14.88-13.79 24.8-15.79l25.03-5.06c-.92-.76-1.82-1.55-2.67-2.41zM392.53 252c-.01-10.48-5.49-20.8-14.67-27.6l-2.55-1.89c-6.25-4.64-10.54-11.37-12.07-18.95l-4.08-20.2a36.36 36.36 0 0 0-3.23 2.85c-.35.35-.67.72-1 1.08l3.48 17.24c1.78 8.78 6.74 16.57 13.97 21.94l2.55 1.89c7.93 5.88 12.66 14.72 12.67 23.65-.01 8.92-4.74 17.76-12.67 23.65l-2.55 1.89c-7.23 5.37-12.19 13.16-13.97 21.94l-3.48 17.23c.33.36.65.73 1 1.08 1.02 1.02 2.1 1.97 3.23 2.86l4.08-20.18c1.53-7.58 5.82-14.31 12.07-18.95l2.55-1.89c9.18-6.84 14.66-17.16 14.67-27.64zM281.5 128.69l-1.89-2.55c-6.81-9.17-17.13-14.65-27.61-14.66-10.48.01-20.8 5.49-27.6 14.66l-1.89 2.55c-4.64 6.25-11.37 10.54-18.95 12.07l-20.19 4.08c.88 1.13 1.83 2.21 2.85 3.23.35.35.72.67 1.08 1.01l17.23-3.48c8.78-1.77 16.57-6.73 21.93-13.97l1.89-2.55c5.88-7.93 14.73-12.66 23.65-12.67 8.92.01 17.76 4.74 23.65 12.67l1.89 2.55c5.37 7.23 13.16 12.19 21.93 13.97l17.23 3.48c.36-.34.73-.66 1.08-1.01 1.02-1.02 1.97-2.1 2.85-3.23l-20.19-4.08c-7.57-1.53-14.3-5.82-18.94-12.07zM126.14 279.61l2.55 1.89c6.25 4.64 10.54 11.37 12.07 18.95l4.08 20.19c1.13-.88 2.22-1.84 3.24-2.86.35-.35.67-.72 1-1.07l-3.48-17.23c-1.78-8.78-6.74-16.57-13.97-21.93l-2.55-1.89c-7.93-5.88-12.66-14.72-12.67-23.64.01-8.92 4.74-17.77 12.67-23.65l2.55-1.89c7.23-5.37 12.19-13.16 13.97-21.94l3.48-17.24c-.33-.36-.65-.73-1-1.08-1.02-1.02-2.1-1.97-3.23-2.86l-4.08 20.2c-1.53 7.58-5.82 14.31-12.07 18.95l-2.55 1.89c-9.17 6.81-14.66 17.13-14.66 27.61-.01 10.47 5.47 20.79 14.65 27.6zm96.36 95.71 1.89 2.55c6.81 9.17 17.13 14.65 27.61 14.66 10.48-.01 20.8-5.49 27.6-14.66l1.89-2.55c4.64-6.25 11.37-10.54 18.95-12.07l20.2-4.08c-.88-1.14-1.84-2.22-2.86-3.24-.35-.35-.71-.66-1.07-1l-17.24 3.49c-8.78 1.77-16.57 6.73-21.93 13.97l-1.89 2.55c-5.88 7.93-14.73 12.66-23.65 12.67-8.92-.01-17.76-4.74-23.65-12.67l-1.89-2.55c-5.37-7.23-13.16-12.19-21.93-13.97l-17.24-3.48c-.36.33-.72.65-1.07 1-1.02 1.02-1.98 2.1-2.86 3.24l20.2 4.08c7.57 1.52 14.3 5.81 18.94 12.06zm112.36-208.2c2.2.44 4.38.92 6.54 1.39 12.91 2.82 25.1 5.48 36.31-.32 1.98-1.02 3.9-2.46 5.71-4.2 7.84-7.85 10.55-18.88 8.12-28.93l-5.08.61c1.91 7.17.66 15.01-3.74 21.31l-.01-.01c-.91-2.89-3.22-4.7-6.18-5.94-2.96-1.24-6.57-1.92-10.09-2.56-2.8-.51-5.29-1.82-7.23-3.69-1.88-1.94-3.18-4.43-3.69-7.23-.64-3.52-1.32-7.13-2.56-10.09s-3.05-5.26-5.93-6.18c4.39-3.07 9.53-4.6 14.68-4.6 2.23 0 4.45.29 6.62.86l.61-5.08c-2.37-.57-4.81-.86-7.23-.86-7.85 0-15.71 3-21.7 8.99a35.706 35.706 0 0 0-8.76 14.28 39.646 39.646 0 0 1-9.97 16.68 44.95 44.95 0 0 1-10.42 7.78l-18.33 10.01c16.22-7.47 30.04-4.69 42.33-2.22zm5.48 6.26c-2.14-.47-4.29-.94-6.46-1.37-12.94-2.61-26.32-5.3-42.5 3.48l-.24.13c.67 1.81 1.37 4.12 1.86 6.85 1.34 7.42.08 18.41-5.51 29.34 0 0 1.17.81 2.53 2.17 1.36 1.36 2.17 2.53 2.17 2.53 8.32-4.25 16.68-6 23.47-6 2.13 0 4.11.17 5.88.49 6.96 1.26 11.26 3.88 11.26 3.88l11.87-21.74c2.02-3.74 4.61-7.26 7.78-10.42a39.68 39.68 0 0 1 7.88-6.12c-6.52-.28-13.17-1.73-19.99-3.22zm-173.22-4.24c.44-2.2.92-4.38 1.39-6.54 2.82-12.91 5.48-25.1-.32-36.31-1.02-1.98-2.46-3.9-4.2-5.71-7.85-7.84-18.88-10.55-28.93-8.12l.61 5.08c7.17-1.91 15.01-.66 21.31 3.74l-.01.01c-2.89.91-4.7 3.22-5.94 6.18-1.24 2.96-1.92 6.57-2.56 10.09-.51 2.8-1.82 5.29-3.69 7.23-1.94 1.88-4.43 3.18-7.23 3.69-3.52.64-7.13 1.32-10.09 2.56s-5.26 3.05-6.18 5.93c-3.07-4.39-4.6-9.53-4.6-14.68 0-2.23.29-4.45.86-6.62l-5.08-.61c-.57 2.37-.86 4.81-.86 7.23 0 7.85 3 15.71 8.99 21.7 4.15 4.15 9.06 7.07 14.28 8.76 6.1 1.83 11.86 5.15 16.68 9.97a44.95 44.95 0 0 1 7.78 10.42l10.01 18.33c-7.47-16.22-4.69-30.04-2.22-42.33zm6.26-5.48c-.47 2.14-.94 4.29-1.37 6.46-2.61 12.94-5.3 26.32 3.48 42.5l.13.24c1.81-.67 4.12-1.37 6.85-1.86 7.42-1.34 18.41-.08 29.34 5.51 0 0 .81-1.17 2.17-2.53 1.36-1.36 2.53-2.17 2.53-2.17-4.25-8.32-6-16.68-6-23.47 0-2.13.17-4.11.49-5.88 1.26-6.96 3.88-11.26 3.88-11.26l-21.74-11.87a44.668 44.668 0 0 1-10.42-7.78 39.68 39.68 0 0 1-6.12-7.88c-.28 6.53-1.72 13.17-3.22 19.99zm-4.24 173.22c-2.2-.44-4.38-.92-6.54-1.39-12.91-2.82-25.1-5.48-36.31.32-1.98 1.02-3.9 2.46-5.71 4.2-7.84 7.85-10.55 18.88-8.12 28.93l5.08-.61c-1.91-7.17-.66-15.01 3.74-21.31l.01.01c.91 2.89 3.22 4.7 6.18 5.94 2.96 1.24 6.57 1.92 10.09 2.56 2.8.51 5.29 1.82 7.23 3.69 1.88 1.94 3.18 4.43 3.69 7.23.64 3.52 1.32 7.13 2.56 10.09s3.05 5.26 5.93 6.18c-4.39 3.07-9.53 4.6-14.68 4.6-2.23 0-4.45-.29-6.62-.86l-.61 5.08c2.37.57 4.81.86 7.23.86 7.85 0 15.71-3 21.7-8.99 4.15-4.15 7.07-9.06 8.76-14.28 1.83-6.1 5.15-11.86 9.97-16.68a44.95 44.95 0 0 1 10.42-7.78l18.33-10.01c-16.22 7.47-30.04 4.69-42.33 2.22zm-5.47-6.26c2.14.47 4.29.94 6.46 1.37 12.94 2.61 26.32 5.3 42.5-3.48l.24-.13c-.67-1.81-1.37-4.12-1.86-6.85-1.34-7.42-.08-18.41 5.51-29.34 0 0-1.17-.81-2.53-2.17-1.36-1.36-2.17-2.53-2.17-2.53-8.32 4.25-16.68 6-23.47 6-2.13 0-4.11-.17-5.88-.49-6.96-1.26-11.26-3.88-11.26-3.88l-11.87 21.74a44.668 44.668 0 0 1-7.78 10.42 39.68 39.68 0 0 1-7.88 6.12c6.52.28 13.16 1.73 19.99 3.22zm173.21 4.24c-.44 2.2-.92 4.38-1.39 6.54-2.82 12.91-5.48 25.1.32 36.31 1.02 1.98 2.46 3.9 4.2 5.71 7.85 7.84 18.88 10.55 28.93 8.12l-.61-5.08c-7.17 1.91-15.01.66-21.31-3.74l.01-.01c2.89-.91 4.7-3.22 5.94-6.18 1.24-2.96 1.92-6.57 2.56-10.09.51-2.8 1.82-5.29 3.69-7.23 1.94-1.88 4.43-3.18 7.23-3.69 3.52-.64 7.13-1.32 10.09-2.56s5.26-3.05 6.18-5.93c3.07 4.39 4.6 9.53 4.6 14.68 0 2.23-.29 4.45-.86 6.62l5.08.61c.57-2.37.86-4.81.86-7.23 0-7.85-3-15.71-8.99-21.7a35.706 35.706 0 0 0-14.28-8.76 39.646 39.646 0 0 1-16.68-9.97 44.95 44.95 0 0 1-7.78-10.42l-10.01-18.33c7.47 16.22 4.7 30.04 2.22 42.33zm-6.26 5.47c.47-2.14.94-4.29 1.37-6.46 2.61-12.94 5.3-26.32-3.48-42.5l-.13-.24c-1.81.67-4.12 1.37-6.85 1.86-7.42 1.34-18.41.08-29.34-5.51 0 0-.81 1.17-2.17 2.53-1.36 1.36-2.53 2.17-2.53 2.17 4.25 8.32 6 16.68 6 23.47 0 2.13-.17 4.11-.49 5.88-1.26 6.96-3.88 11.26-3.88 11.26l21.74 11.87c3.74 2.02 7.26 4.61 10.42 7.78a39.68 39.68 0 0 1 6.12 7.88c.28-6.52 1.73-13.16 3.22-19.99z"></path></svg>