<svg style="enable-background:new 0 0 504 504;" version="1.1" viewbox="0 0 504 504" x="0px" xml:space="preserve" xmlns="http://www.w3.org/2000/svg" xmlns:xlink="http://www.w3.org/1999/xlink" y="0px"> <path d="M432,252l-6.78-1.72c-6.21-1.58-9.3-5.61-11.4-14.86l-0.17-0.77c-2.91-11.71-11.05-19.56-23.53-22.7 c-9.22-2.32-16.37-9.52-18.68-18.81l-0.76-3.04c-2.56-10.29-10.52-18.23-20.78-20.71c-2.39-0.58-4.65-1.6-6.66-2.98l20.01-20.01 l3.54,3.54l35.58-35.58l-12.73-12.73l-35.58,35.58l3.54,3.54L252,246.34L110.83,105.17l-5.66,5.66l53.97,53.97L72,252l6.78,1.72 c6.21,1.58,9.3,5.61,11.4,14.86l0.17,0.76c2.91,11.71,11.05,19.56,23.53,22.7c9.22,2.32,16.37,9.52,18.68,18.81l0.76,3.04 c2.56,10.29,10.52,18.23,20.78,20.71c2.39,0.58,4.65,1.6,6.66,2.98l-20.01,20.01l-3.54-3.54l-35.58,35.58l12.73,12.73l35.58-35.58 l-3.54-3.54L252,257.66l141.17,141.17l5.66-5.66l-53.97-53.97L432,252z M166.48,331.86c-3.11-2.38-6.68-4.11-10.51-5.03 c-7.35-1.78-13.06-7.47-14.89-14.86l-0.76-3.04c-3.02-12.15-12.4-21.59-24.49-24.63c-9.56-2.4-15.51-8.06-17.71-16.82l-0.14-0.63 c-1.57-6.93-4.19-14.24-11.16-18.4l77.98-77.98l17.77,17.77l-66.49,66.49l-4.27-4.27l-3.54,3.54l12.07,12.07l3.54-3.54l-4.27-4.27 l66.49-66.49l17.7,17.7l-66.49,66.49l-4.27-4.27l-3.54,3.54l12.07,12.07l3.54-3.54l-4.27-4.27L207.34,213l17.7,17.7l-66.49,66.49 l-4.27-4.27l-3.54,3.54l12.07,12.07l3.54-3.54l-4.27-4.27l66.49-66.49L246.34,252L166.48,331.86z M321.43,315.77l66.49-66.49 l4.27,4.27l3.54-3.54l-12.07-12.07l-3.54,3.54l4.27,4.27l-66.49,66.49l-17.7-17.7l66.49-66.49l4.27,4.27l3.54-3.54l-12.07-12.07 l-3.54,3.54l4.27,4.27L296.66,291l-17.7-17.7l66.49-66.49l4.27,4.27l3.54-3.54l-12.07-12.07l-3.54,3.54l4.27,4.27l-66.49,66.49 L257.66,252l79.86-79.86c3.11,2.38,6.68,4.11,10.51,5.03c7.35,1.78,13.06,7.47,14.89,14.86l0.76,3.04 c3.02,12.15,12.4,21.59,24.49,24.63c9.55,2.4,15.51,8.06,17.71,16.82l0.14,0.63c1.57,6.93,4.19,14.24,11.16,18.4l-77.98,77.98 L321.43,315.77z M290.84,110.95v32.7c-3.77,2.81-7.58,3.98-10.55,2.2l0,0c-0.09-0.05-0.16-0.13-0.24-0.18l-0.01,0.02 c-0.75-0.45-1.94-0.86-3.51,0.71c-1.58,1.58-1.16,2.76-0.71,3.51l-0.02,0.01c0.06,0.09,0.13,0.15,0.18,0.24l0,0 c2.32,3.87-0.36,9.14-5.12,13.91c-2.52,2.52-5.63,4.9-8.9,6.86c-0.51,0.31-1.03,0.6-1.56,0.89v-23.41c4.17-1.37,8.16-1.92,11.2-1.2 c0.3-1.28,0.99-2.53,2.1-3.64c1.11-1.11,2.35-1.82,3.64-2.12c-1.24-5.31,1.36-13.59,5.52-20.52 C285.1,117.17,287.91,113.64,290.84,110.95z M229.36,110.46c-7.78,12.3-16.24,25.7-15.93,38.37c-5.15-7.71-9.31-16.48-10.8-25.77 c-2.07-12.94,2.12-23.57,14.55-36.01c8.45-8.45,16.06-13.08,24.13-14.54c1.04,2.56,1.38,6.12,1.01,10.64 C241.69,90.96,235.7,100.44,229.36,110.46z M301.06,131.83c-1.52,2.54-3.31,4.98-5.22,7.13v-31.62 c-12.68-3.14-29.51,2.57-42.65,15.71c-13.15,13.15-18.85,29.97-15.71,42.66c2.37-4.61,7.72-9.48,13.58-12.99 c1.41-0.84,2.87-1.62,4.35-2.31v23.8c-6.82,2.79-13.68,3.65-17.12,0.73c-3.56-2.63-8.27-6.6-13.08-11.61 c-14.1-14.33-2.61-32.52,8.52-50.12c6.69-10.58,13-20.57,13.75-29.63c0.38-4.57,0.08-8.43-0.88-11.56c0.27,0,0.53-0.02,0.79-0.02 c1.89,0.02,3.83,0.19,5.82,0.5c23.64,3.79,43.92,24.86,51.87,35.64C308.95,112.71,306.17,123.29,301.06,131.83z M213.16,393.05 v-32.7c3.77-2.81,7.58-3.98,10.55-2.2l0,0c0.09,0.05,0.16,0.13,0.24,0.18l0.01-0.02c0.75,0.45,1.94,0.86,3.51-0.71 c1.58-1.58,1.16-2.76,0.71-3.51l0.02-0.01c-0.06-0.09-0.13-0.15-0.18-0.24l0,0c-2.32-3.87,0.36-9.14,5.12-13.91 c2.52-2.52,5.63-4.9,8.9-6.86c0.51-0.31,1.03-0.6,1.56-0.89v23.41c-4.17,1.37-8.16,1.92-11.2,1.2c-0.3,1.28-0.99,2.53-2.1,3.64 c-1.11,1.11-2.35,1.82-3.64,2.12c1.24,5.31-1.36,13.59-5.52,20.52C218.9,386.83,216.09,390.36,213.16,393.05z M274.64,393.54 c7.78-12.3,16.24-25.7,15.93-38.37c5.15,7.71,9.31,16.48,10.8,25.77c2.07,12.94-2.12,23.57-14.55,36.01 c-8.45,8.45-16.06,13.08-24.13,14.54c-1.04-2.56-1.38-6.12-1.01-10.64C262.31,413.04,268.3,403.56,274.64,393.54z M202.94,372.17 c1.52-2.54,3.31-4.98,5.22-7.13v31.62c12.68,3.14,29.51-2.57,42.65-15.71c13.15-13.15,18.85-29.97,15.71-42.66 c-2.37,4.61-7.72,9.48-13.58,12.99c-1.41,0.84-2.87,1.62-4.35,2.31v-23.8c6.82-2.79,13.68-3.65,17.12-0.73 c3.56,2.63,8.27,6.6,13.08,11.61c14.1,14.33,2.61,32.52-8.52,50.12c-6.69,10.58-13,20.57-13.75,29.63 c-0.38,4.57-0.08,8.43,0.88,11.56c-0.27,0-0.53,0.02-0.79,0.02c-1.89-0.02-3.83-0.19-5.82-0.5c-23.64-3.79-43.92-24.86-51.87-35.64 C195.05,391.29,197.83,380.71,202.94,372.17z"></path> </svg>