<svg viewbox="0 0 504 504" xml:space="preserve" xmlns="http://www.w3.org/2000/svg"><path d="M291.56 382.8a31.122 31.122 0 0 1 .6-7.63l-2.71 2.71c-44.09 44.09-115.23 45.01-160.46 2.77l8.21-8.21c40.77 37.8 104.48 36.88 144.13-2.77l88.35-88.35c39.65-39.65 40.57-103.35 2.77-144.13l26.38-26.38-5.66-5.66-14.63 14.63c-46.7-43.73-119.98-43.27-166.11 1.39a31.122 31.122 0 0 1-.6 7.63l2.71-2.71C258.63 82 329.77 81.08 375 123.32l-8.21 8.21C326 93.75 262.3 94.67 222.65 134.32l-88.35 88.35c-39.65 39.65-40.57 103.35-2.77 144.13l-26.38 26.38 5.66 5.66 14.63-14.63c46.7 43.71 119.99 43.25 166.12-1.41zm-151.6-154.48 88.35-88.35c36.52-36.52 95.16-37.43 132.8-2.76l-18.39 18.39c.99.88 1.96 1.79 2.91 2.74.95.95 1.86 1.93 2.74 2.92l18.39-18.39c34.67 37.64 33.77 96.28-2.76 132.8l-88.35 88.35c-36.52 36.52-95.16 37.43-132.8 2.76l18.39-18.39c-.99-.88-1.96-1.79-2.91-2.74-.95-.95-1.86-1.93-2.74-2.92l-18.39 18.39c-34.67-37.64-33.77-96.27 2.76-132.8zm28.98 106.72c.95.95 1.94 1.85 2.94 2.71l19.54-19.54c10.77 8.03 26.08 7.16 35.86-2.62l88.31-88.31c9.78-9.78 10.65-25.09 2.62-35.86l19.54-19.54a57.5 57.5 0 0 0-2.71-2.94c-.95-.95-1.94-1.85-2.94-2.71l-19.54 19.54c-10.77-8.03-26.08-7.16-35.86 2.62l-88.31 88.31c-9.78 9.78-10.65 25.09-2.62 35.86l-19.54 19.54c.86 1 1.76 1.99 2.71 2.94zm143.11-111.28-88.31 88.31c-7.82 7.82-19.95 8.66-28.73 2.56l119.6-119.6c6.1 8.77 5.26 20.91-2.56 28.73zm-120.13 56.48 88.31-88.31c7.82-7.82 19.95-8.66 28.73-2.56l-119.6 119.6c-6.1-8.77-5.26-20.91 2.56-28.73zm61.83 61.88 88.35-88.35c25.33-25.33 25.33-66.55 0-91.88s-66.55-25.33-91.88 0l-88.35 88.35c-25.33 25.33-25.33 66.55 0 91.88s66.55 25.33 91.88 0zm-88.35-88.35 88.35-88.35c23.38-23.38 61.43-23.38 84.81 0 23.38 23.38 23.38 61.43 0 84.81l-88.35 88.35c-23.38 23.38-61.43 23.38-84.81 0-23.38-23.38-23.38-61.43 0-84.81zm-45.93-43.17c-14.09 0-25.51-11.42-25.51-25.51 0-9.21 4.89-17.28 12.21-21.77l11.05 22.86 4.5-2.18-11.05-22.86c2.74-1.01 5.71-1.56 8.8-1.56 14.09 0 25.51 11.42 25.51 25.51s-11.42 25.51-25.51 25.51zm37.06-85.51c-.08-.81-.12-1.63-.12-2.45 0-14.09 11.42-25.51 25.51-25.51s25.51 11.42 25.51 25.51-11.42 25.51-25.51 25.51c-11.53 0-21.27-7.65-24.43-18.15l24.91-4.91-.97-4.91-24.9 4.91zm-52.59 33.72 46.78-10.09 5.98 10.68 4.37-2.44-30.02-53.65c2.98-1.76 4.57-5.25 3.88-8.68l-.31-1.57a2.304 2.304 0 0 0-3.89-1.17l-12.16 12.16a2.535 2.535 0 0 0 1.8 4.33c.39 0 .77-.09 1.14-.27l5.08-2.54 9.18 16.42-29.71 29.71-4.27-8.8c-.7-1.41-2.04-2.4-3.59-2.65-1.55-.25-3.14.26-4.24 1.36l-10.48 10.42 3.53 3.55 10.38-10.32 6.55 13.55zm34.36-32.29 9.87 17.63-35.06 7.56 25.19-25.19zm246.23 166.85c14.09 0 25.51 11.42 25.51 25.51 0 9.21-4.89 17.28-12.21 21.77l-11.05-22.86-4.5 2.18 11.05 22.86a25.415 25.415 0 0 1-8.8 1.56c-14.09 0-25.51-11.42-25.51-25.51s11.42-25.51 25.51-25.51zm-37.06 85.5c.08.81.12 1.63.12 2.45 0 14.09-11.42 25.51-25.51 25.51s-25.51-11.42-25.51-25.51 11.42-25.51 25.51-25.51c11.53 0 21.27 7.65 24.43 18.15l-24.91 4.91.97 4.91 24.9-4.91zm69.54-30.49-10.38 10.32-6.58-13.54-46.78 10.09-5.98-10.68-4.37 2.44 30.02 53.65c-2.98 1.76-4.57 5.25-3.88 8.68l.31 1.57a2.304 2.304 0 0 0 3.89 1.17l12.16-12.16a2.535 2.535 0 0 0-1.8-4.33c-.39 0-.77.09-1.14.27l-5.08 2.54-9.18-16.42 29.71-29.71 4.27 8.8c.7 1.41 2.04 2.4 3.59 2.65 1.55.25 3.14-.26 4.24-1.36l10.48-10.42-3.5-3.56zm-51.31 29.07-9.87-17.63 35.06-7.56-25.19 25.19zM209.41 109.34a30.46 30.46 0 0 0-2.58-4.36c33.07-28.54 76.7-38.56 117.19-30.05l-1.91 4.7c-39.04-7.93-81 1.98-112.7 29.71zm85.14 285.32c.73 1.52 1.6 2.97 2.58 4.36-33.07 28.54-76.7 38.56-117.19 30.05l1.91-4.7c39.04 7.93 81-1.98 112.7-29.71z"></path></svg>