<svg viewbox="0 0 504 504" xml:space="preserve" xmlns="http://www.w3.org/2000/svg"><path d="m142.68 355.66 5.66 5.66-37.51 37.51-5.66-5.66 37.51-37.51zm15.78-191.54 5.66-5.66-53.29-53.29-5.66 5.66 53.29 53.29zm187.08 175.76-5.66 5.66 53.29 53.29 5.66-5.66-53.29-53.29zm53.29-229.05-5.66-5.66-37.51 37.51 5.66 5.66 37.51-37.51zm-50.89 249.84 3.54 3.54L283.69 432l-44.39-44.39-26.68 26.68-122.9-122.9 26.68-26.68-44.4-44.4 67.79-67.79 3.54 3.54-64.26 64.26 40.86 40.86 20.36-20.36-7.74-7.74a6.497 6.497 0 0 1-7.07-10.6 6.497 6.497 0 0 1 10.6 7.07l7.74 7.74 28.79-28.79-7.74-7.74a6.497 6.497 0 0 1-7.07-10.6 6.497 6.497 0 0 1 10.6 7.07l7.74 7.74 28.79-28.79-7.74-7.74a6.497 6.497 0 0 1-7.07-10.6 6.497 6.497 0 0 1 10.6 7.07l7.74 7.74 28.79-28.79-7.74-7.74a6.497 6.497 0 0 1-7.07-10.6 6.497 6.497 0 0 1 10.6 7.07l7.74 7.74 20.36-20.36-40.86-40.86-64.26 64.26-3.54-3.54L220.31 72l44.39 44.39 26.68-26.68 122.9 122.9-26.68 26.68 44.4 44.4-67.79 67.79-3.54-3.54 64.26-64.26-40.86-40.86-20.36 20.36 7.74 7.74a6.497 6.497 0 0 1 7.07 10.6 6.497 6.497 0 0 1-10.6-7.07l-7.74-7.74-28.79 28.79 7.74 7.74a6.497 6.497 0 0 1 7.07 10.6 6.497 6.497 0 0 1-10.6-7.07l-7.74-7.74-28.79 28.79 7.74 7.74a6.497 6.497 0 0 1 7.07 10.6 6.497 6.497 0 0 1-10.6-7.07l-7.74-7.74-28.79 28.79 7.74 7.74a6.497 6.497 0 0 1 7.07 10.6 6.497 6.497 0 0 1-10.6-7.07l-7.74-7.74-20.36 20.36 40.86 40.86 64.22-64.22zm-90.41-2.61 3.54-3.54-23.6-23.6 93.45-93.45 23.6 23.6 3.54-3.54-23.6-23.6 44.91-44.91-3.54-3.54-44.91 44.91-57.31-57.31 44.91-44.91-3.54-3.54-44.91 44.91-23.6-23.6-3.54 3.54 23.6 23.6-93.45 93.45-23.6-23.6-3.54 3.54 23.6 23.6-44.91 44.91 3.54 3.54 44.91-44.91 57.31 57.31-44.91 44.91 3.54 3.54 44.91-44.91 23.6 23.6zm10.35-86.65 3.54-3.54L255.54 252l15.88-15.88-3.54-3.54L252 248.46l-15.88-15.88-3.54 3.54L248.46 252l-15.88 15.88 3.54 3.54L252 255.54l15.88 15.87z"></path></svg>