<svg viewbox="0 0 504 504" xml:space="preserve" xmlns="http://www.w3.org/2000/svg"><path d="M286.81 159.51c11.92-11.91 26.38-3.59 37.54-15.3 3.34-3.36 8.81-3.29 12.16.07L359.23 167a8.643 8.643 0 0 1 0 12.23l-20.27 20.27c-.16-.22-16.83-16.77-16.98-16.99-8.47-8.47-22.51-8.78-30.66 0-3.39 3.65-9.31 6.61-13.95 2.88-4.36-3.28-7.31-9.42-2.73-13.85 5.18-5.12 12.09-11.96 12.17-12.03zm7.91 27.37c-7.03 7.24-16.38 7.99-23.18-.16-13.06 10.79-14.86 30.68-2.59 42.79 14.1 16.56 32.49 29.29 51.87 11.67 9.8-10.04 28.02-22.81 14.1-37.76-10.56-9.7-25.11-32.09-40.2-16.54zm55.77 146.63L432 252l-69.23-69.23-5.66 5.66L416.69 248h-17.87l-40.17-40.17-3.54 3.54L391.75 248h-17.87l-15.22-15.22-3.54 3.54L370.8 252l-15.69 15.69 3.54 3.54L373.87 256h17.87l-36.63 36.63 3.54 3.54L398.82 256h17.87l-71.86 71.86 5.66 5.65zm13.92-168.4 24.54-24.54-26.35-25.66-24.2 24.19 26.01 26.01zM248 87.31v17.87l-40.17 40.17 3.54 3.54L248 112.25v17.87l-15.22 15.22 3.54 3.54L252 133.2l15.69 15.69 3.54-3.54L256 130.13v-17.87l36.63 36.63 3.54-3.54L256 105.18V87.31l57.83 57.83c2.49-.84 4.76-2.14 6.9-4.38l.02-.02L252 72l-81.51 81.51 5.66 5.66L248 87.31zm-142.83 23.52 288 288 5.66-5.66-288-288-5.66 5.66zm104.11 206.29c7.03-7.24 16.38-7.99 23.18.16 13.06-10.79 14.86-30.68 2.59-42.79-14.1-16.56-32.49-29.29-51.87-11.67-9.8 10.04-28.02 22.81-14.1 37.76 10.56 9.7 25.11 32.09 40.2 16.54zM256 416.69v-17.87l40.17-40.17-3.54-3.54L256 391.75v-17.87l15.22-15.22-3.54-3.54L252 370.8l-15.69-15.69-3.54 3.54L248 373.87v17.87l-36.63-36.63-3.54 3.54L248 398.82v17.87l-57.83-57.83c-2.49.84-4.76 2.14-6.9 4.38l-.02.02L252 432l81.51-81.51-5.66-5.66L256 416.69zm-102.49-246.2L72 252l69.23 69.23 5.66-5.66L87.31 256h17.87l40.17 40.17 3.54-3.54L112.25 256h17.87l15.22 15.22 3.54-3.54L133.2 252l15.69-15.69-3.54-3.54L130.13 248h-17.88l36.63-36.63-3.54-3.54L105.18 248H87.31l71.86-71.86-5.66-5.65zm-13.92 168.4-24.54 24.54 26.35 25.66 24.19-24.19c-.05-.06-25.94-25.95-26-26.01zm89.76-6.43c4.58-4.43 1.63-10.57-2.73-13.85-4.64-3.73-10.55-.78-13.95 2.88-8.14 8.77-22.19 8.46-30.66 0-.15-.22-16.82-16.77-16.98-16.99l-20.27 20.27a8.643 8.643 0 0 0 0 12.23l22.72 22.72c3.35 3.35 8.82 3.43 12.16.07 11.16-11.71 25.62-3.39 37.54-15.3.09-.07 7-6.91 12.17-12.03z"></path></svg>