<svg viewbox="0 0 504 504" xml:space="preserve" xmlns="http://www.w3.org/2000/svg"><path d="m143.86 149.51-38.69-38.68 5.66-5.66 50.4 50.39a81.46 81.46 0 0 0-17.37-6.05zm-38.69 243.66 5.66 5.66 50.37-50.37a81.265 81.265 0 0 1-17.35 6.04l-38.68 38.67zm54.36-130.73h5v-20.88h-5v20.88zm30.05 2.68h5v-26.23h-5v26.23zm-2.17-68.48c2.07 6.99 2.12 15.11 2.17 23.55l5-.03c-.05-9.85-.11-19.27-3.21-27.49l-3.96 3.97zm0 110.72 3.96 3.96c3.1-8.21 3.15-17.64 3.21-27.49l-5-.03c-.05 8.45-.1 16.57-2.17 23.56zm211.42-196.53-5.66-5.66-50.4 50.39a81.376 81.376 0 0 1 17.36-6.05l38.7-38.68zM342.8 348.45l50.37 50.37 5.66-5.66-38.68-38.68a80.154 80.154 0 0 1-17.35-6.03zM432 283h-23.78v68.98h-30.34c-20.44 0-39.67-7.98-54.16-22.47a76.764 76.764 0 0 1-5.47-6.13L252 389.62l-66.25-66.25c-1.74 2.16-3.56 4.23-5.47 6.14-14.49 14.49-33.72 22.47-54.16 22.47H95.78V283H72v-62h23.78v-68.98h30.34c20.44 0 39.67 7.98 54.16 22.47 1.91 1.91 3.74 3.97 5.47 6.14L252 114.38l66.25 66.25c1.74-2.16 3.56-4.23 5.47-6.13 14.49-14.49 33.72-22.47 54.16-22.47h30.34V221H432v62zm-177.5 13.85v78.96L378.31 252 254.5 128.19v78.97c-.83-.05-1.66-.07-2.5-.07s-1.67.03-2.5.07V128.2L125.69 252 249.5 375.81v-78.96c.83.05 1.66.07 2.5.07s1.67-.03 2.5-.07zM95.78 275v-46H80v46h15.78zm84.28 42.68L114.38 252l65.68-65.68a70.495 70.495 0 0 0-5.44-6.17c-12.98-12.98-30.2-20.13-48.5-20.13h-22.34v183.95h22.34c18.3 0 35.53-7.15 48.5-20.13 1.91-1.9 3.72-3.97 5.44-6.16zm220.16-157.66h-22.34c-18.3 0-35.53 7.15-48.51 20.13-1.9 1.9-3.72 3.97-5.44 6.16l65.7 65.69-65.69 65.69c1.72 2.19 3.53 4.26 5.44 6.17 12.98 12.98 30.2 20.12 48.5 20.12h22.34V160.02zM424 229h-15.78v46H424v-46zm-79.53 12.56h-5v20.88h5v-20.88zm-30.05-2.67h-5v26.23h5v-26.23zm2.17-42.25-3.96-3.96c-3.1 8.21-3.15 17.64-3.21 27.49l5 .03c.05-8.45.09-16.57 2.17-23.56zm0 110.72c-2.07-6.99-2.12-15.11-2.17-23.55l-5 .03c.05 9.85.11 19.27 3.21 27.49l3.96-3.97zm-61.18-14.59c4.37-.36 8.56-1.41 12.44-3.04l-2.4-2.1-10.04 5.14zm-21.63-60.73 1.74-11.68-4.18-3.66c-7.54 4.43-13.55 11.2-17 19.31l5.89 3.86 13.55-7.83zm36.45 39.93-1.74 11.68 4.17 3.65c7.54-4.43 13.55-11.2 17-19.31l-5.88-3.85-13.55 7.83zm-20.73-27.72-13.44-7.76-13.43 7.76v15.51l13.43 7.76 13.44-7.76v-15.51zm-29.29 19.89-5.88 3.85a41.187 41.187 0 0 0 17 19.31l4.18-3.66-1.74-11.67-13.56-7.83zm28.42-52.91c-4.39.36-8.58 1.4-12.47 3.04l2.41 2.11 10.06-5.15zm-31 32.91-5-3.28c-1 3.54-1.55 7.27-1.55 11.13s.55 7.59 1.55 11.13l5-3.28v-15.7zm47.58 27.58L252 264.09l-13.21 7.63 1.68 11.27L252 288.9l11.53-5.91 1.68-11.27zm2.63-57.45a40.57 40.57 0 0 0-12.47-3.04l10.06 5.15 2.41-2.11zm-13.34 45.49 13.44 7.76 13.43-7.76v-15.51l-13.43-7.76-13.44 7.76v15.51zm-15.71-27.47 13.21 7.63 13.21-7.63-1.68-11.27-11.53-5.9-11.53 5.91-1.68 11.26zm44.99 7.58 5.89-3.86a41.187 41.187 0 0 0-17-19.31l-4.18 3.66 1.74 11.69 13.55 7.82zm2.59 19.99 5 3.28c1-3.54 1.55-7.27 1.55-11.13s-.55-7.59-1.55-11.13l-5 3.28v15.7zm-50.21 29.87c3.88 1.64 8.07 2.68 12.44 3.04l-10.04-5.14-2.4 2.1z"></path></svg>