<svg viewbox="0 0 504 504" xml:space="preserve" xmlns="http://www.w3.org/2000/svg"><path d="m419.65 158.07-10.34-10.56c-.43-.44-1.01-.69-1.62-.7h-.01c-.62-.01-1.21.23-1.65.66-.72.7-.9 1.78-.46 2.68l1.92 3.94-12.38 6.89-25.5-25.49 11.35-6.32c1.54 2.52 4.5 3.89 7.46 3.33l1.35-.26a2.1 2.1 0 0 0 1.63-1.45c.24-.75.04-1.56-.51-2.12l-10.34-10.56c-.43-.44-1.01-.69-1.62-.7h-.01c-.62-.01-1.21.23-1.65.66-.72.7-.9 1.78-.46 2.68l1.92 3.94-12.79 7.12-21.33-21.32-15.6 8.07v.07c0 9.08-7.4 16.47-16.48 16.47s-16.48-7.39-16.48-16.47 7.4-16.47 16.48-16.47c5.46 0 10.3 2.67 13.3 6.78l-14.45 7.48 2.3 4.44 33.26-17.21c1.31-.65 2.24-1.9 2.48-3.34.24-1.44-.24-2.92-1.26-3.95l-8.95-9.02-3.56 3.52 8.52 8.59-11.18 5.78c-4.38-6.66-11.91-11.07-20.46-11.07-13.5 0-24.49 10.98-24.49 24.47s10.99 24.47 24.49 24.47c12.55 0 22.92-9.48 24.32-21.65l5.46 23.51-9.84 5.48 2.44 4.37 9.84-5.48 25.51 25.49-9 5.01 2.44 4.37 20.97-11.67 6.48 27.66 4.83-1.13.05-.01-6.86-29.05 20.55-11.44c1.54 2.52 4.5 3.89 7.46 3.33l1.35-.26a2.1 2.1 0 0 0 1.63-1.45c.23-.74.04-1.55-.51-2.11zm-58.28-23.73-5 2.78-9.25-17.02 14.25 14.24zm-19.56-13.53L352 139.56l-5.17 2.88-5.02-21.63zm7.45 26 5.13-2.86 9.5 17.48-14.63-14.62zm26.06 25.17-16.56-30.46 6.29-3.5 25.5 25.49-15.23 8.47zm1.74 27.64c0 9.08 7.4 16.47 16.48 16.47s16.48-7.39 16.48-16.47c0-7.72-5.34-14.19-12.52-15.97l-1.97-8.41c12.57 1.02 22.5 11.56 22.5 24.38 0 13.49-10.99 24.47-24.49 24.47-13.5 0-24.49-10.98-24.49-24.47 0-8.88 4.76-16.67 11.87-20.96l1.97 8.41c-3.56 3.02-5.83 7.52-5.83 12.55zM92.77 280.81c-18.5-30-24.94-65.54-18.12-100.39l4.91.96c-6.57 33.59-.37 67.86 17.46 96.78a30.51 30.51 0 0 0-4.25 2.65zm34.17 23.57c0-9.08-7.4-16.47-16.48-16.47s-16.48 7.39-16.48 16.47c0 7.72 5.34 14.19 12.52 15.97l1.97 8.41c-12.57-1.02-22.5-11.56-22.5-24.38 0-13.49 10.99-24.47 24.49-24.47 13.5 0 24.49 10.98 24.49 24.47 0 8.88-4.76 16.67-11.87 20.96l-1.97-8.41c3.56-3.02 5.83-7.52 5.83-12.55zm302.41 19.2-4.91-.96c6.57-33.59.37-67.86-17.46-96.78 1.49-.77 2.91-1.65 4.24-2.65 18.51 30 24.95 65.55 18.13 100.39zM191.5 360.89c-12.55 0-22.92 9.48-24.32 21.65l-5.46-23.51 9.84-5.48-2.44-4.37-9.84 5.48-25.51-25.49 9-5.01-2.44-4.37-20.97 11.67-6.48-27.66-4.83 1.13-.05.01 6.81 29.05-20.55 11.44c-1.54-2.52-4.5-3.89-7.46-3.33l-1.35.26c-.77.14-1.4.7-1.63 1.45-.24.75-.04 1.56.51 2.12l10.34 10.56c.43.44 1.01.69 1.62.7h.01c.62.01 1.21-.23 1.65-.66.72-.7.9-1.78.46-2.68l-1.92-3.94 12.38-6.89 25.5 25.49-11.35 6.32c-1.54-2.52-4.5-3.89-7.46-3.33l-1.35.26c-.77.14-1.4.7-1.63 1.45-.24.75-.04 1.56.51 2.12l10.34 10.56c.43.44 1.01.69 1.62.7h.01c.62.01 1.21-.23 1.65-.66.72-.7.9-1.78.46-2.68l-1.92-3.94 12.79-7.12 21.34 21.32 15.6-8.07v-.07c0-9.08 7.4-16.47 16.48-16.47s16.48 7.39 16.48 16.47-7.4 16.47-16.48 16.47c-5.46 0-10.3-2.67-13.3-6.78l14.45-7.48-2.3-4.44-33.26 17.21c-1.31.65-2.24 1.9-2.48 3.34-.24 1.44.24 2.92 1.26 3.95l8.95 9.02 3.56-3.52-8.52-8.59 11.18-5.78c4.38 6.66 11.91 11.07 20.46 11.07 13.5 0 24.49-10.98 24.49-24.47S205 360.89 191.5 360.89zm-36.76-3.7-5.13 2.86-9.5-17.48 14.63 14.62zm-41.29-16.69 15.23-8.48 16.56 30.46-6.29 3.5-25.5-25.48zm29.18 29.16 5-2.78 9.25 17.02-14.25-14.24zm9.37-5.22 5.17-2.88 5.02 21.62L152 364.44zm101.77-202.56c-25.33-25.33-66.55-25.33-91.88 0s-25.33 66.55 0 91.88l88.35 88.35c25.33 25.33 66.55 25.33 91.88 0s25.33-66.55 0-91.88l-88.35-88.35zm84.81 176.7c-23.38 23.38-61.43 23.38-84.81 0l-88.35-88.35c-23.38-23.38-23.38-61.43 0-84.81 23.38-23.38 61.43-23.38 84.81 0l88.35 88.35c23.38 23.38 23.38 61.43 0 84.81zm57.34-109.59c-.79.06-1.58.11-2.38.11-1.18 0-2.35-.08-3.49-.21l-.09.01c25.89 39.94 32.44 98.6-8.85 146.55l-8.65-8.65c37.8-40.77 36.88-104.48-2.77-144.13l-88.35-88.35c-39.65-39.65-103.35-40.57-144.13-2.77l-26.38-26.38-5.66 5.66 14.18 14.18c-42.31 48.85-36.77 108.45-11.28 150 .79-.06 1.58-.11 2.38-.11 1.18 0 2.35.08 3.49.21h.1c-25.89-39.94-32.45-98.61 8.85-146.56l8.65 8.65c-37.8 40.77-36.88 104.48 2.77 144.13l88.35 88.35c39.65 39.65 103.35 40.57 144.13 2.77l26.38 26.38 5.66-5.66-14.18-14.18c42.3-48.86 36.76-108.46 11.27-150zm-29.14 132.13-18.39-18.39c-.88.99-1.79 1.96-2.74 2.91-.95.95-1.93 1.86-2.92 2.74l18.39 18.39c-37.64 34.67-96.28 33.77-132.8-2.76l-88.35-88.35c-36.52-36.52-37.43-95.16-2.76-132.8l18.39 18.39c.88-.99 1.79-1.96 2.74-2.91.95-.95 1.93-1.86 2.92-2.74l-18.39-18.39c37.64-34.67 96.28-33.77 132.8 2.76l88.35 88.35c36.53 36.53 37.44 95.16 2.76 132.8zm-51.18-84.41-88.31-88.31c-9.78-9.78-25.09-10.65-35.86-2.62l-19.54-19.54a57.5 57.5 0 0 0-2.94 2.71c-.95.95-1.85 1.94-2.71 2.94l19.54 19.54c-8.03 10.77-7.16 26.08 2.62 35.86l88.31 88.31c9.78 9.78 25.09 10.65 35.86 2.62l19.54 19.54c1-.87 1.99-1.76 2.94-2.71s1.85-1.94 2.71-2.94l-19.54-19.54c8.03-10.78 7.16-26.08-2.62-35.86zm-91.84-84.77 88.31 88.31c7.82 7.82 8.66 19.95 2.56 28.73l-119.6-119.6c8.77-6.11 20.91-5.26 28.73 2.56zm56.48 120.12-88.31-88.31c-7.82-7.82-8.66-19.95-2.56-28.73l119.6 119.6c-8.77 6.11-20.91 5.26-28.73-2.56z"></path></svg>