<svg viewbox="0 0 504 504" xml:space="preserve" xmlns="http://www.w3.org/2000/svg"><path d="M144.5 278.46c0 20.02-16.23 36.25-36.25 36.25S72 298.48 72 278.46s16.23-36.25 36.25-36.25 36.25 16.23 36.25 36.25zm251.25-16.67c20.02 0 36.25-16.23 36.25-36.25s-16.23-36.25-36.25-36.25-36.25 16.23-36.25 36.25 16.23 36.25 36.25 36.25zM192.46 120.87c.35.3.7.6 1.05.91.36.33.71.66 1.05 1.01.62.59 1.21 1.2 1.79 1.82A139.554 139.554 0 0 1 252 113c31.73 0 62.76 10.97 87.38 30.89.82.67 1.63 1.34 2.44 2.03l3.55-3.55c-.94-.8-1.88-1.59-2.84-2.36-25.5-20.64-57.65-32-90.52-32a144.2 144.2 0 0 0-59.55 12.86zm188.12 66.32a145.268 145.268 0 0 0-18.97-28.54l-3.55 3.55a140.28 140.28 0 0 1 17.99 27.11c1.46-.8 2.98-1.5 4.53-2.12zm-93.17 20.21 73.36-73.36c4.25-4.27 7.1-10.2 9.86-15.93.59-1.23 1.18-2.46 1.78-3.66 6.66-13.37 12.19-19.77 23.71-27.38l9.28-6.14 17.68 17.68-6.14 9.28c-7.61 11.51-14.01 17.05-27.38 23.71-1.2.6-2.43 1.19-3.66 1.78-5.73 2.75-11.66 5.6-15.93 9.86l-73.35 73.35c.1.6.15 1.2.15 1.81 0 6.15-5 11.15-11.15 11.15s-11.15-5-11.15-11.15 5-11.15 11.15-11.15c.59 0 1.19.05 1.79.15zm69.09-57.78 9.92-9.92c4.88-4.86 11.19-7.89 17.3-10.83 1.21-.58 2.42-1.16 3.6-1.75 12.6-6.27 18.31-11.2 25.44-21.99l3.88-5.87-11.9-11.9-5.87 3.89c-10.78 7.13-15.71 12.84-21.99 25.44-.59 1.18-1.17 2.38-1.75 3.6-2.94 6.11-5.97 12.42-10.82 17.3l-7.8 7.8v4.23zm-15.93 15.93 11.38-11.38v-4.24l-11.38 11.38v4.24zm-15.92 15.92 11.38-11.38v-4.24l-11.38 11.38v4.24zm-37.2 31.06a6.158 6.158 0 0 0-8 5.87c0 3.39 2.76 6.15 6.15 6.15a6.158 6.158 0 0 0 5.87-8l-.45-1.44 29.08-29.09v-4.24l-31.21 31.21-1.44-.46zM165.63 87.61c10.06-5.53 16.14-7.44 19.56-7.84.49-2.8.56-5.43-.22-6.96-.18-.35-.46-.8-1.5-.81-.33 0-.74.04-1.25.14-6.62 1.29-14.22 5.04-20.52 8.5-61.94 35.71-96.14 104.91-88.59 176.12a41.52 41.52 0 0 1 7.29-8.82c-3.95-65.23 28.43-127.58 85.23-160.33zm-37.44 62.04c1.2-1.98 3.26-4.56 6.6-7.56 5.73-5.16 12.9-9.55 20.04-12.38.22-.24.43-.46.65-.7 2.95-3.23 5.85-6.67 8.61-10.17-12.73 2.03-25.85 9.38-34.66 17.31-3.6 3.24-6.3 6.42-8.09 9.43-.49.91-1.02 2.54-.36 3.2 1.15 1.14 4.6 1.21 7.21.87zm7.19 63.23c.83.9 1.8 1.62 2.84 2.17-.9-7.16 5.73-19.5 18.4-33.58 9.58-10.64 21.41-21.02 33.32-29.38-.26-2.98-.95-5.74-2.07-8.29-13.25 9-26.57 20.51-37.2 32.32-8.06 8.95-13.79 17.11-17.14 24.26l.07.03c-1.85 4.58-1.18 9.24 1.78 12.47zm70.48 7.6 1.01-1.01 70.05 70.05 3.54-3.54-70.06-70.06 1.11-1.12-9.5-9.45c4.99-4.94 15.45-15.63 25.07-27.56 18.83-23.36 24.21-38.81 16.46-47.22-.1-.11-.21-.21-.32-.31-7.85-6.8-21.56-5.34-39.79 4.17 1.22 2.39 2.18 4.89 2.93 7.5 14.69-7.78 26.28-9.94 31.43-5.78 1.64 2.02 4.41 10.12-16.9 36.57-12.59 15.63-27.19 29.57-27.34 29.71-.78.74-1.23 1.77-1.24 2.85-.01 1.08.41 2.12 1.18 2.88l12.37 12.32zm-25.01-14.44c10.21-11.93 17.52-25.52 20.59-38.26 4.08-16.92.49-31.28-10.37-41.54a25.626 25.626 0 0 0-6.45-4.77c-.83 1.17-1.69 2.36-2.6 3.58-.73.98-1.48 1.97-2.26 2.98 2.12.93 4.02 2.21 5.65 3.87l.12.12c8.82 8.29 11.56 19.69 8.14 33.89-5.96 24.74-29.34 50.04-44.72 54.49-1.64.5-4.01.94-5.64.94-1.47 0-2.91-.22-4.29-.6-2.76-.77-5.3-2.28-7.32-4.48-.63-.69-1.18-1.42-1.67-2.19.06 4.43 1.62 8.16 4.72 11.06 2.02 1.96 5.25 3.92 10.12 3.92 1.86 0 3.95-.29 6.31-.97 9.13-2.65 19.95-10.68 29.67-22.04zm-4.31-95.75c-1.51 2.24-3.15 4.58-4.96 7.01-5.14 6.92-10.65 13.39-16.04 18.93-3.54 3.63-7.06 6.92-10.42 9.66-4.7 3.83-8.95 6.47-12.26 7.71-.25.09-.77.29-1.36.45-1.8.49-4.16.73-6.27.73-2.26 0-4.58-.37-6.39-1.44-.01 2.08.62 3.96 1.94 5.56.07.09.15.17.23.25 4.15 4.24 12.59 6.45 29.17-7.07 5.24-4.28 10.84-9.75 16.3-15.86 7.25-8.1 14.17-17.21 19.61-25.94 7.5-11.96 14.57-26.82 9.47-34.4-1.39-2.06-3.3-3.26-5.55-3.82 1.08 3.7.33 9.26-1.18 14.07l-.01.01c-1.17 4.69-4.35 12.02-10.89 22.08-.47.69-.93 1.38-1.39 2.07zm135 272.84c-.35-.3-.7-.6-1.05-.91-.36-.33-.71-.66-1.05-1.01-.62-.59-1.21-1.2-1.79-1.82A139.554 139.554 0 0 1 252 391c-31.73 0-62.76-10.97-87.38-30.89-.82-.67-1.63-1.34-2.44-2.03l-3.55 3.55c.94.8 1.88 1.59 2.84 2.36 25.5 20.64 57.65 32 90.52 32a144.2 144.2 0 0 0 59.55-12.86zm-188.12-66.32c5.16 10.21 11.54 19.8 18.97 28.54l3.55-3.55a140.28 140.28 0 0 1-17.99-27.11c-1.46.8-2.98 1.5-4.53 2.12zm93.17-20.21-73.36 73.36c-4.25 4.27-7.1 10.2-9.86 15.93-.59 1.23-1.18 2.46-1.78 3.66-6.66 13.37-12.19 19.77-23.71 27.38l-9.28 6.14-17.68-17.68 6.14-9.28c7.61-11.51 14.01-17.05 27.38-23.71 1.2-.6 2.43-1.19 3.66-1.78 5.73-2.75 11.66-5.6 15.93-9.86l73.35-73.35c-.1-.6-.15-1.2-.15-1.81 0-6.15 5-11.15 11.15-11.15s11.15 5 11.15 11.15-5 11.15-11.15 11.15c-.59 0-1.19-.05-1.79-.15zm-69.09 57.78-9.92 9.92c-4.88 4.86-11.19 7.89-17.3 10.83-1.21.58-2.42 1.16-3.6 1.75-12.6 6.27-18.31 11.2-25.44 21.99l-3.88 5.87 11.9 11.9 5.87-3.89c10.78-7.13 15.71-12.84 21.99-25.44.59-1.18 1.17-2.38 1.75-3.6 2.94-6.11 5.97-12.42 10.82-17.3l7.8-7.8v-4.23zm15.93-15.93-11.38 11.38v4.24l11.38-11.38v-4.24zm15.92-15.92-11.38 11.38v4.24l11.38-11.38v-4.24zm37.2-31.06a6.158 6.158 0 0 0 8-5.87c0-3.39-2.76-6.15-6.15-6.15a6.158 6.158 0 0 0-5.87 8l.45 1.44-29.08 29.09v4.24l31.21-31.21 1.44.46zm214.33-44.23a41.52 41.52 0 0 1-7.29 8.82c3.95 65.22-28.42 127.58-85.23 160.33-10.06 5.53-16.14 7.44-19.56 7.84-.49 2.8-.56 5.43.22 6.96.18.35.46.8 1.5.81.33 0 .74-.04 1.25-.14 6.62-1.29 14.22-5.04 20.52-8.5 61.95-35.71 96.14-104.92 88.59-176.12zm-55.07 107.11c-1.2 1.98-3.26 4.56-6.6 7.56-5.73 5.16-12.9 9.55-20.04 12.38-.22.24-.43.46-.65.7-2.95 3.23-5.85 6.67-8.61 10.17 12.73-2.03 25.85-9.38 34.66-17.31 3.6-3.24 6.3-6.42 8.09-9.43.49-.91 1.02-2.54.36-3.2-1.15-1.14-4.6-1.21-7.21-.87zm-7.19-63.23c-.83-.9-1.8-1.62-2.84-2.17.9 7.16-5.73 19.5-18.4 33.58-9.58 10.64-21.41 21.02-33.32 29.38.26 2.98.95 5.74 2.07 8.29 13.25-9 26.57-20.51 37.2-32.32 8.06-8.95 13.79-17.11 17.14-24.26l-.07-.03c1.85-4.58 1.18-9.24-1.78-12.47zm-58.17 10.45c.78-.74 1.23-1.77 1.24-2.85.01-1.08-.41-2.12-1.18-2.88l-12.37-12.31-1.01 1.01-70.05-70.05-3.54 3.54 70.06 70.06-1.11 1.12 9.5 9.45c-4.99 4.94-15.45 15.63-25.07 27.56-18.83 23.36-24.21 38.81-16.46 47.22.1.11.21.21.32.31 7.85 6.8 21.56 5.34 39.79-4.17-1.22-2.39-2.18-4.89-2.93-7.5-14.69 7.78-26.28 9.94-31.43 5.78-1.64-2.02-4.41-10.12 16.9-36.57 12.6-15.65 27.2-29.58 27.34-29.72zm61.85-13.83c.63.69 1.18 1.42 1.67 2.19-.06-4.43-1.62-8.16-4.72-11.06-2.02-1.96-5.25-3.92-10.12-3.92-1.86 0-3.95.29-6.31.97-9.14 2.65-19.96 10.68-29.68 22.04-10.21 11.93-17.52 25.52-20.59 38.26-4.08 16.92-.49 31.28 10.37 41.54 1.91 1.94 4.07 3.53 6.45 4.77.83-1.17 1.69-2.36 2.6-3.58.73-.98 1.48-1.97 2.26-2.98-2.12-.93-4.02-2.21-5.65-3.87l-.12-.12c-8.82-8.29-11.56-19.69-8.14-33.89 5.96-24.74 29.34-50.04 44.72-54.49 1.64-.5 4.01-.94 5.64-.94 1.47 0 2.91.22 4.29.6 2.78.78 5.32 2.28 7.33 4.48zm-44.84 105.97c1.51-2.24 3.15-4.58 4.96-7.01 5.14-6.92 10.65-13.39 16.04-18.93 3.54-3.63 7.06-6.92 10.42-9.66 4.7-3.83 8.95-6.47 12.26-7.71.25-.09.77-.29 1.36-.45 1.8-.49 4.16-.73 6.27-.73 2.26 0 4.58.37 6.39 1.44.01-2.08-.62-3.96-1.94-5.56-.07-.09-.15-.17-.23-.25-4.15-4.24-12.59-6.45-29.17 7.07-5.24 4.28-10.84 9.75-16.3 15.86-7.25 8.1-14.17 17.21-19.61 25.94-7.5 11.96-14.57 26.82-9.47 34.4 1.39 2.06 3.3 3.26 5.55 3.82-1.08-3.7-.33-9.26 1.18-14.07l.01-.01c1.17-4.69 4.35-12.02 10.89-22.08.47-.69.93-1.38 1.39-2.07z"></path></svg>