<svg viewbox="0 0 504 504" xml:space="preserve" xmlns="http://www.w3.org/2000/svg"><path d="M393.38 107.9 256 225.11v-60.62l5.24-13.1c8.13-20.32 10.62-47.68 6.06-66.54-.79-3.28-3.1-8.47-4.63-10.91-.99-1.58-2.9-2.29-4.75-1.75C254.09 73.29 239 88.28 239 102v18.13c0 11.45 1.83 22.76 5.46 33.62l3.54 10.63v67.67c-1.83 1.61-3.64 3.23-5.46 4.86l-14.93-14.93 15.39-15.4v-7.07l-18.92 18.92-15.51-15.51L243 168.49v-3.32l-.94-2.82-37.03 37.03-15.51-15.51 45.91-45.91c-.34-2.08-.59-4.16-.81-6.26l-48.63 48.63-15.51-15.51 63.54-63.54c.17-5.74 2.44-11.63 5.57-16.88l-74.76 74.76-54-54-5.66 5.66 54 54L72 252l5.66 5.66 87.17-87.17L180.34 186l-66 66 3.54 3.54 66-66 15.51 15.51L152.42 252l3.54 3.54 46.96-46.96 15.51 15.51L190.51 252l3.54 3.54 27.91-27.91 14.66 14.66a709.341 709.341 0 0 0-36.93 36.45A711.402 711.402 0 0 0 150 337.63l-42.17 55.86c-.67.89-.44 1.9.18 2.52.62.62 1.63.85 2.52.18l55.86-42.17a709.76 709.76 0 0 0 58.89-49.69c7.75-7.29 15.33-14.77 22.74-22.41v57.72l-3.55 10.63a106.111 106.111 0 0 0-5.45 33.62v18.13c0 13.71 15.09 28.71 18.92 29.81.41.12.83.18 1.23.18 1.42 0 2.75-.7 3.52-1.93 1.53-2.44 3.84-7.63 4.63-10.92 4.56-18.86 2.07-46.23-6.06-66.54l-5.24-13.1v-65.98c1.92-2.04 3.82-4.09 5.71-6.15l14.66 14.66-15.37 15.37v7.07l18.9-18.9 15.51 15.51-34.41 34.41v3.05l1.15 2.87 36.8-36.8 15.51 15.51-44.2 44.19c.49 1.89.93 3.81 1.33 5.74l46.4-46.4 15.51 15.51-58.98 58.97c0 4.11-.21 8.12-.64 11.95l65.27-65.27 54 54 5.66-5.66-54-54L432 252.01l-5.66-5.66-87.17 87.17-15.51-15.51 66-66-3.54-3.54-66 66-15.51-15.51L351.57 252l-3.54-3.54-46.96 46.96-15.51-15.51L313.47 252l-3.54-3.54-27.91 27.91-14.93-14.93c3.82-4.25 7.59-8.55 11.31-12.89l117.7-137.93c.77-.9.54-1.97-.1-2.62-.65-.64-1.71-.87-2.62-.1zm-113 119.64c.25 1.75.48 4.85-.25 8.43-.74 3.59-2.49 7.71-6.09 11.39l-24.87 25.43c-4.77 4.77-12.31 4.96-17.61-.33s-5.1-12.84-.33-17.61l25.43-24.87c3.68-3.6 7.8-5.35 11.39-6.09 3.59-.74 6.69-.51 8.43-.25 1.01.15 1.91.63 2.59 1.32.68.67 1.16 1.57 1.31 2.58z"></path></svg>