<svg viewbox="0 0 504 504" xml:space="preserve" xmlns="http://www.w3.org/2000/svg"><path d="m241.78 101.2-8.56-8.56 3.54-3.54 8.56 8.56-3.54 3.54zM228.2 80.56 219.65 72l-3.54 3.54 8.56 8.56 3.53-3.54zm-127 161.22-8.56-8.56-3.54 3.54 8.56 8.56 3.54-3.54zm161.23-127-8.56-8.56-3.54 3.54 8.56 8.56 3.54-3.54zm9.13 33.06-43.81 43.81 12.73 12.73 43.81-43.81-3.54-3.53 7.36-7.36 66.22 66.22-7.36 7.36-3.54-3.53-43.81 43.81 12.73 12.73 43.81-43.81-3.54-3.54L432 149.53l-5.66-5.66-66.35 66.35L293.77 144l66.35-66.35-5.65-5.65-79.37 79.37-3.54-3.53zm103.57-59.8c16.68-16.68 39.33-21.06 50.61-9.78s6.89 33.93-9.78 50.61c-16.68 16.68-39.33 21.06-50.61 9.78-11.27-11.27-6.89-33.93 9.78-50.61zm33.27 33.27c-9.32 9.32-19.45 15.85-27.81 18.57 2.22.12 4.59-.06 7.09-.54 8.59-1.66 17.38-6.63 24.74-14 7.37-7.37 12.34-16.15 14-24.74.48-2.5.66-4.87.54-7.09-2.71 8.35-9.24 18.48-18.56 27.8zm1.28-38.66c-7.52 3.03-15.85 8.88-23.45 16.48s-13.45 15.93-16.48 23.45c-2.34 5.8-2.67 10.71-.86 12.53 1.81 1.81 6.73 1.48 12.53-.86 7.52-3.03 15.85-8.88 23.45-16.48s13.45-15.93 16.48-23.45c2.34-5.8 2.67-10.71.86-12.53-1.82-1.81-6.74-1.47-12.53.86zm-45.01 33.67c-.48 2.5-.66 4.87-.54 7.09 2.71-8.36 9.25-18.49 18.57-27.81s19.45-15.85 27.81-18.57c-2.22-.12-4.59.06-7.09.54-8.59 1.66-17.38 6.63-24.74 14s-12.35 16.16-14.01 24.75zM84.09 224.67l-8.56-8.56-3.53 3.54 8.56 8.56 3.53-3.54zm293.04 11.88 3.54-3.54-8.56-8.56-3.54 3.54 8.56 8.56zm-97.59-104.66-8.56-8.56-3.54 3.54 8.56 8.56 3.54-3.54zM126.87 267.45l-3.54 3.54 8.56 8.56 3.54-3.54-8.56-8.56zm131.82 138.88 8.56 8.56 3.54-3.54-8.56-8.56-3.54 3.54zm17.11 17.11 8.56 8.56 3.54-3.54-8.56-8.56-3.54 3.54zm109.89-178.33 8.56 8.56 3.54-3.54-8.56-8.56-3.54 3.54zM128.87 415.96c-16.68 16.68-39.33 21.06-50.61 9.78-11.27-11.27-6.89-33.93 9.78-50.61 16.68-16.68 39.33-21.06 50.61-9.78 11.27 11.27 6.89 33.93-9.78 50.61zM95.6 382.69c9.32-9.32 19.45-15.85 27.81-18.57-2.22-.12-4.59.06-7.09.54-8.59 1.66-17.38 6.63-24.74 14-7.37 7.37-12.34 16.15-14 24.74-.48 2.5-.66 4.87-.54 7.09 2.71-8.35 9.24-18.48 18.56-27.8zm-1.28 38.66c7.52-3.03 15.85-8.88 23.45-16.48s13.45-15.93 16.48-23.45c2.34-5.8 2.67-10.71.86-12.53-1.81-1.81-6.73-1.48-12.53.86-7.52 3.03-15.85 8.88-23.45 16.48s-13.45 15.93-16.48 23.45c-2.34 5.8-2.67 10.71-.86 12.53 1.82 1.81 6.74 1.47 12.53-.86zm45.01-33.67c.48-2.5.66-4.87.54-7.09-2.71 8.36-9.25 18.49-18.57 27.81s-19.45 15.85-27.81 18.57c2.22.12 4.59-.06 7.09-.54 8.59-1.66 17.38-6.63 24.74-14 7.38-7.38 12.35-16.16 14.01-24.75zM423.44 275.8l-3.54 3.54 8.56 8.56 3.54-3.54-8.56-8.56zm-20.64-13.58 8.56 8.56 3.54-3.54-8.56-8.56-3.54 3.54zm-170.36 93.94 43.81-43.81-12.73-12.73-43.81 43.81 3.54 3.54-7.36 7.36-66.22-66.22 7.36-7.36 3.54 3.53 43.81-43.81-12.73-12.73-43.81 43.81 3.54 3.54L72 354.47l5.66 5.66 66.35-66.35L210.23 360l-66.35 66.35 5.66 5.66 79.37-79.37 3.53 3.52zM109.76 250.34l-3.54 3.54 8.56 8.56 3.54-3.54-8.56-8.56zm131.81 138.88 8.56 8.56 3.54-3.54-8.56-8.56-3.54 3.54zm-17.11-17.11 8.56 8.56 3.54-3.54-8.56-8.56-3.54 3.54zM379.77 341l-3.54-3.54-17.62 17.62-209.7-209.7 17.62-17.62-3.54-3.54-17.62 17.62-35.62-35.62-3.54 3.54 35.62 35.62L124.24 163l3.54 3.54 17.61-17.61 209.7 209.7-17.61 17.61 3.54 3.54 17.61-17.61 35.61 35.61L396 396l1.77-1.77-35.61-35.61L379.77 341z"></path></svg>