<svg viewbox="0 0 504 504" xml:space="preserve" xmlns="http://www.w3.org/2000/svg"><path d="m315.99 182.35 77.18-77.18 5.66 5.66-77.18 77.18-5.66-5.66zM248 95.79v38.98h8V95.79c37.24.93 72.28 14.83 99.95 39.54l3.54-3.54c-27.6-24.7-63.76-40.04-103.48-41V72h-8v18.79c-39.72.97-75.88 16.3-103.48 41l3.54 3.54c27.65-24.71 62.69-38.61 99.93-39.54zM135.33 355.95c-24.71-27.66-38.61-62.71-39.54-99.95h38.98v-8H95.79c.93-37.24 14.83-72.28 39.54-99.95l-3.54-3.54c-24.7 27.6-40.04 63.76-41 103.48H72v8h18.78c.97 39.72 16.3 75.88 41 103.48l3.55-3.52zm180.66-34.3 77.18 77.18 5.66-5.66-77.18-77.18-5.66 5.66zm18.26-.13 3.55 3.55c35.86-42.01 35.86-104.13 0-146.14l-3.55 3.55c33.92 40.04 33.92 99 0 139.04zM182.48 169.75c40.04-33.92 99-33.92 139.04 0l3.55-3.55c-42.01-35.86-104.13-35.86-146.14 0l3.55 3.55zm139.04 164.5c-40.04 33.92-99 33.92-139.04 0l-3.55 3.55c42.01 35.86 104.13 35.86 146.14 0l-3.55-3.55zM169.75 182.48l-3.55-3.55c-35.86 42.01-35.86 104.13 0 146.14l3.55-3.55c-33.92-40.04-33.92-99 0-139.04zM413.21 248c-.97-39.72-16.3-75.88-41-103.48l-3.54 3.54c24.71 27.66 38.61 62.71 39.54 99.95h-38.98v8h38.98c-.93 37.24-14.83 72.28-39.54 99.94l3.54 3.54c24.7-27.6 40.03-63.76 41-103.48H432v-8h-18.79zM256 408.21v-38.98h-8v38.98c-37.24-.93-72.28-14.83-99.95-39.54l-3.54 3.54c27.6 24.7 63.76 40.03 103.48 41V432h8v-18.79c39.72-.97 75.88-16.3 103.48-41l-3.54-3.54c-27.65 24.71-62.69 38.61-99.93 39.54zm-73.65-220.2 5.66-5.66-77.18-77.18-5.66 5.66 77.18 77.18zm0 127.98-77.18 77.18 5.66 5.66 77.18-77.18-5.66-5.66zm131.55-2.09H190.1V190.1h123.8v123.8zM271.01 252c0-10.5-8.51-19.02-19.02-19.02-10.5 0-19.02 8.51-19.02 19.02 0 10.5 8.51 19.02 19.02 19.02s19.02-8.52 19.02-19.02z"></path></svg>