<svg viewbox="0 0 504 504" xml:space="preserve" xmlns="http://www.w3.org/2000/svg"><path d="M408.98 200.72c-21.94-21.94-53.72-28.19-81.27-18.77l71.18-71.18-5.66-5.66-101.2 101.2h11.32c27.59-27.51 72.41-27.49 99.97.06 27.58 27.58 27.58 72.47 0 100.05l-45.59 45.64-21.85-21.85 53.68-53.68-40.14-40.14-1.35 5.72 34.42 34.42-50.14 50.14-29.08-29.08h-11.32l101.29 101.29 5.66-5.66-35.51-35.51 45.59-45.64c30.69-30.69 30.69-80.65 0-111.35zM200.75 297.6l-.04.04c-27.58 27.56-72.45 27.56-100.02-.02-27.58-27.58-27.58-72.46 0-100.05l45.59-45.64 21.85 21.85-53.68 53.68 41.13 41.13 1.33-5.74-35.39-35.39 50.14-50.14 28.99 28.99h11.32l-101.2-101.2-5.66 5.66 35.51 35.51-45.6 45.64c-30.7 30.7-30.7 80.66 0 111.36 21.94 21.94 53.72 28.19 81.27 18.77l-71.18 71.18 5.66 5.66L212.06 297.6h-11.31zm142.34-56.2-12.53 10.09 8.19 9.85-4.62 19.47-15.53 11.79h-21.26l4.45-18.91h4.53l2.89-12.44h-12.64l4.64-20.06h12.52l2.66-10.95h-9.64l4.39-18.92h26.43l9.85 11.83-4.33 18.25zM290 273.69h5.7l-4.45 18.91h-15.77l-61.29-62.29h-5.67l4.29-18.99h15.86L290 273.69zm-101.08.07h9.65l-4.4 18.84h-26.46l-9.81-11.91 4.44-19.16 12.61-10.12-8.19-9.85 4.47-18.38 15.4-11.87h20.1l-4.45 19.15h-3.3l-2.69 11.12h12.64l-4.64 20.07h-12.52l-2.85 12.11zm41.98-17.74 15.55 15.64-21.06 20.94h-25.2l4.4-18.84h8.32l17.99-17.74zm42.24-8.16-15.56-15.55 21.2-20.99h26.27l-4.4 18.92h-9.44l-18.07 17.62zm-43.65-126.04c-.77-13.29-5.38-25.86-13.28-36.41C224.8 77.8 235.84 72.89 248 72v49.82h-18.51zm58.3-36.41C279.2 77.8 268.16 72.89 256 72v49.82h18.51c.77-13.29 5.38-25.85 13.28-36.41zm-66.32 44.41h-23.31c.85 11.6 5.36 22.18 12.39 30.59 6.41-8.96 10.18-19.48 10.92-30.59zm0-8c-.73-11.11-4.51-21.63-10.92-30.59a53.715 53.715 0 0 0-12.39 30.59h23.31zm53.04 8H256v49.82c12.16-.89 23.2-5.8 31.79-13.41-7.9-10.55-12.51-23.12-13.28-36.41zm8.03-8h23.31a53.715 53.715 0 0 0-12.39-30.59c-6.41 8.96-10.19 19.48-10.92 30.59zm0 8c.73 11.11 4.51 21.63 10.92 30.59a53.784 53.784 0 0 0 12.39-30.59h-23.31zm-34.54 0h-18.51c-.77 13.29-5.38 25.86-13.28 36.41 8.6 7.61 19.63 12.52 31.79 13.41v-49.82zm8 252.36V432c12.16-.89 23.2-5.8 31.79-13.41-7.91-10.56-12.51-23.12-13.28-36.41H256zm-39.79 36.41c8.59 7.61 19.63 12.52 31.79 13.41v-49.82h-18.51c-.77 13.29-5.38 25.85-13.28 36.41zm66.32-44.41h23.31a53.715 53.715 0 0 0-12.39-30.59c-6.41 8.96-10.18 19.48-10.92 30.59zm0 8c.73 11.11 4.51 21.63 10.92 30.59a53.715 53.715 0 0 0 12.39-30.59h-23.31zm-53.04-8H248v-49.82c-12.16.89-23.2 5.8-31.79 13.41 7.9 10.55 12.51 23.12 13.28 36.41zm-8.03 8h-23.31c.85 11.6 5.36 22.18 12.39 30.59 6.41-8.96 10.19-19.48 10.92-30.59zm0-8c-.73-11.11-4.51-21.63-10.92-30.59a53.784 53.784 0 0 0-12.39 30.59h23.31zm34.54 0h18.51c.77-13.29 5.38-25.86 13.28-36.41-8.6-7.61-19.63-12.52-31.79-13.41v49.82z"></path></svg>