<svg viewbox="0 0 504 504" xml:space="preserve" xmlns="http://www.w3.org/2000/svg"><path d="M124.45 212.54c.9 0 1.8-.05 2.69-.12l-51.6 51.6-3.54-3.53 48.22-48.22c1.39.17 2.8.27 4.23.27zM109.46 209c-1.53-.77-3-1.66-4.41-2.66L72 239.39l3.54 3.54L109.46 209zM281.59 72 72 281.59l5.66 5.66L287.24 77.66 281.59 72zm-21.87 103.07 14.14-14.14-3.54-3.54-14.14 14.14 3.54 3.54zm-49.39 49.4 14.14-14.14-3.54-3.54-14.14 14.14 3.54 3.54zm218.13 36.61L394.54 295c1.53.77 3 1.66 4.41 2.66L432 264.61l-3.54-3.53zm-242.83-11.91 14.14-14.14-3.54-3.54-14.14 14.14 3.54 3.54zm191.24 42.4c.89-.07 1.79-.12 2.69-.12 1.42 0 2.83.1 4.22.27L432 243.51l-3.54-3.54-51.59 51.6zm33.07 79.62c.25.81.04 1.69-.55 2.3l-12.03 12.25c-.98 1-2.59 1.01-3.59.03a2.53 2.53 0 0 1-.5-2.92l2.41-4.93-16.42-9.19-25.67 25.67-14.59-7.05c.04-.5.08-1 .08-1.52 0-11.29-9.16-20.45-20.45-20.45s-20.45 9.16-20.45 20.45 9.16 20.45 20.45 20.45c7.21 0 13.53-3.74 17.16-9.38l-18.25-8.82 2.18-4.5 38.59 18.65c1.43.71 2.42 2.05 2.67 3.6.25 1.55-.26 3.13-1.37 4.24l-6.81 6.81a4.857 4.857 0 0 1-4.57 1.3 4.832 4.832 0 0 1-3.51-3.2l-2.1-6.25 4.74-1.59 2.04 6.07 6.57-6.56-12.93-6.25c-4.97 8.3-14.03 13.87-24.41 13.87-15.71 0-28.45-12.74-28.45-28.45s12.74-28.45 28.45-28.45c14.2 0 25.97 10.4 28.1 24l5.84-27.59-10.67-5.97 2.44-4.36 25.48 14.25 7.3-33.35 4.88 1.07-7.62 34.83 23.53 13.16a8.21 8.21 0 0 1 8.71-4.12l1.57.3c.82.19 1.5.79 1.75 1.6zm-35.22-4.99-17.59-9.84-7.36 34.79 24.95-24.95zm8.1-21.13-1.81 8.25c15.03-.76 26.99-13.19 26.99-28.41 0-15.71-12.74-28.45-28.45-28.45s-28.45 12.74-28.45 28.45c0 10.95 6.19 20.45 15.26 25.2l1.8-8.22c-5.46-3.67-9.06-9.91-9.06-16.98 0-11.29 9.16-20.45 20.45-20.45S400 313.62 400 324.91c0 10.18-7.44 18.6-17.18 20.16zm-98.4-194.69 14.14-14.14-3.54-3.54-14.14 14.14 3.54 3.54zm38.84-38.84-3.54-3.54-14.14 14.14 3.54 3.54 14.14-14.14zm-88.23 88.23 14.14-14.14-3.54-3.54-14.14 14.14 3.54 3.54zm48.03 97.44 14.14-14.14-3.54-3.54-14.14 14.14 3.54 3.54zm-102.32 95.25 3.54 3.54 14.14-14.14-3.54-3.54-14.14 14.14zm77.62-70.55 14.14-14.14-3.54-3.54-14.14 14.14 3.54 3.54zm-24.69 24.69 14.14-14.14-3.54-3.54-14.14 14.14 3.54 3.54zm-14.09 7.02-14.14 14.14 3.54 3.54 14.14-14.14-3.54-3.54zm206.76-136.86L216.76 426.34l5.66 5.66L432 222.41l-5.66-5.65zm-265.41 57.1 14.14-14.14-3.54-3.54-14.14 14.14 3.54 3.54zm232.24-168.69-288 288 5.66 5.66 288-288-5.66-5.66zM111.54 323.26l14.14-14.14-3.54-3.54L108 319.72l3.54 3.54zm196.22-50.75 14.14-14.14-3.54-3.54-14.14 14.14 3.54 3.54zm-171.52 26.05 14.14-14.14-3.54-3.54-14.14 14.14 3.54 3.54zm196.22-50.75 14.14-14.14-3.54-3.54-14.14 14.14 3.54 3.54zm49.39-49.39 14.14-14.14-3.54-3.54-14.14 14.14 3.54 3.54zm-24.7 24.69 14.14-14.14-3.54-3.54-14.14 14.14 3.54 3.54zM152.9 179.09c0-10.95-6.19-20.45-15.26-25.2l-1.8 8.22c5.46 3.67 9.06 9.91 9.06 16.98 0 11.29-9.16 20.45-20.45 20.45S104 190.38 104 179.09c0-10.18 7.45-18.6 17.19-20.17l1.81-8.25c-15.05.77-27 13.2-27 28.42 0 15.71 12.74 28.45 28.45 28.45s28.45-12.74 28.45-28.45zm-58.84-46.28a2.32 2.32 0 0 1 .55-2.3l12.03-12.25c.98-1 2.59-1.01 3.59-.03.78.77.98 1.94.5 2.92l-2.41 4.93 16.42 9.19 25.67-25.67 14.59 7.05c-.04.5-.08 1-.08 1.52 0 11.29 9.16 20.45 20.45 20.45s20.45-9.16 20.45-20.45-9.16-20.45-20.45-20.45c-7.21 0-13.53 3.74-17.16 9.38l18.25 8.82-2.18 4.5-38.59-18.65a4.895 4.895 0 0 1-2.67-3.6c-.25-1.55.26-3.13 1.37-4.24l6.81-6.81c1.2-1.2 2.91-1.69 4.57-1.3 1.66.39 2.97 1.58 3.51 3.2l2.1 6.25-4.74 1.59-2.04-6.07-6.57 6.56 12.93 6.25c4.97-8.3 14.03-13.87 24.41-13.87 15.71 0 28.45 12.74 28.45 28.45s-12.74 28.45-28.45 28.45c-14.2 0-25.97-10.4-28.1-24l-5.84 27.59 10.67 5.97-2.44 4.36-25.48-14.25-7.3 33.35-4.88-1.07 7.62-34.83-23.53-13.16a8.21 8.21 0 0 1-8.71 4.12l-1.57-.3c-.82-.19-1.5-.79-1.75-1.6zm35.22 4.99 17.59 9.84 7.36-34.79-24.95 24.95z"></path></svg>