<svg viewbox="0 0 504 504" xml:space="preserve" xmlns="http://www.w3.org/2000/svg"><path d="M130.21 130.21v74.84c-32.15 0-58.21-26.06-58.21-58.21 0-25.02 15.79-46.35 37.95-54.58L130.21 72v16.63l49.9 24.95-8.32 16.63h-41.58zm243.58 0v74.84c32.15 0 58.21-26.06 58.21-58.21 0-25.02-15.79-46.35-37.95-54.58L373.79 72v16.63l-49.9 24.95 8.32 16.63h41.58zm-41.3 176.62c-4.3 0-6.35-1.31-8.71-2.82-2.65-1.69-5.65-3.61-11.41-3.61s-8.76 1.92-11.41 3.61c-2.37 1.52-4.41 2.82-8.71 2.82-4.3 0-6.35-1.31-8.71-2.82-2.65-1.69-5.65-3.61-11.41-3.61s-8.76 1.92-11.41 3.61c-2.37 1.52-4.41 2.82-8.71 2.82-4.3 0-6.35-1.31-8.71-2.82-2.65-1.69-5.65-3.61-11.41-3.61s-8.76 1.92-11.41 3.61c-2.37 1.52-4.42 2.82-8.71 2.82-4.3 0-6.35-1.31-8.72-2.82-2.65-1.69-5.65-3.61-11.41-3.61s-8.76 1.92-11.41 3.61c-2.37 1.52-4.42 2.82-8.72 2.82v5c5.76 0 8.76-1.92 11.41-3.61 2.37-1.52 4.42-2.82 8.72-2.82s6.35 1.31 8.72 2.82c2.65 1.69 5.65 3.61 11.41 3.61s8.76-1.92 11.41-3.61c2.37-1.52 4.41-2.82 8.71-2.82s6.35 1.31 8.71 2.82c2.65 1.69 5.65 3.61 11.41 3.61s8.76-1.92 11.41-3.61c2.37-1.52 4.42-2.82 8.71-2.82s6.35 1.31 8.71 2.82c2.65 1.69 5.65 3.61 11.41 3.61s8.76-1.92 11.41-3.61c2.37-1.52 4.41-2.82 8.71-2.82 4.3 0 6.35 1.31 8.71 2.82 2.65 1.69 5.65 3.61 11.41 3.61v-5zm0 14.25c-4.3 0-6.35-1.31-8.71-2.82-2.65-1.69-5.65-3.61-11.41-3.61s-8.76 1.92-11.41 3.61c-2.37 1.52-4.41 2.82-8.71 2.82-4.3 0-6.35-1.31-8.71-2.82-2.65-1.69-5.65-3.61-11.41-3.61s-8.76 1.92-11.41 3.61c-2.37 1.52-4.41 2.82-8.71 2.82-4.3 0-6.35-1.31-8.71-2.82-2.65-1.69-5.65-3.61-11.41-3.61s-8.76 1.92-11.41 3.61c-2.37 1.52-4.42 2.82-8.71 2.82-4.3 0-6.35-1.31-8.72-2.82-2.65-1.69-5.65-3.61-11.41-3.61s-8.76 1.92-11.41 3.61c-2.37 1.52-4.42 2.82-8.72 2.82v5c5.76 0 8.76-1.92 11.41-3.61 2.37-1.52 4.42-2.82 8.72-2.82s6.35 1.31 8.72 2.82c2.65 1.69 5.65 3.61 11.41 3.61s8.76-1.92 11.41-3.61c2.37-1.52 4.41-2.82 8.71-2.82s6.35 1.31 8.71 2.82c2.65 1.69 5.65 3.61 11.41 3.61s8.76-1.92 11.41-3.61c2.37-1.52 4.42-2.82 8.71-2.82s6.35 1.31 8.71 2.82c2.65 1.69 5.65 3.61 11.41 3.61s8.76-1.92 11.41-3.61c2.37-1.52 4.41-2.82 8.71-2.82 4.3 0 6.35 1.31 8.71 2.82 2.65 1.69 5.65 3.61 11.41 3.61v-5zm0 14.26c-4.3 0-6.35-1.31-8.71-2.82-2.65-1.69-5.65-3.61-11.41-3.61s-8.76 1.92-11.41 3.61c-2.37 1.52-4.41 2.82-8.71 2.82-4.3 0-6.35-1.31-8.71-2.82-2.65-1.69-5.65-3.61-11.41-3.61s-8.76 1.92-11.41 3.61c-2.37 1.52-4.41 2.82-8.71 2.82-4.3 0-6.35-1.31-8.71-2.82-2.65-1.69-5.65-3.61-11.41-3.61s-8.76 1.92-11.41 3.61c-2.37 1.52-4.42 2.82-8.71 2.82-4.3 0-6.35-1.31-8.72-2.82-2.65-1.69-5.65-3.61-11.41-3.61s-8.76 1.92-11.41 3.61c-2.37 1.52-4.42 2.82-8.72 2.82v5c5.76 0 8.76-1.92 11.41-3.61 2.37-1.52 4.42-2.82 8.72-2.82s6.35 1.31 8.72 2.82c2.65 1.69 5.65 3.61 11.41 3.61s8.76-1.92 11.41-3.61c2.37-1.52 4.41-2.82 8.71-2.82s6.35 1.31 8.71 2.82c2.65 1.69 5.65 3.61 11.41 3.61s8.76-1.92 11.41-3.61c2.37-1.52 4.42-2.82 8.71-2.82s6.35 1.31 8.71 2.82c2.65 1.69 5.65 3.61 11.41 3.61s8.76-1.92 11.41-3.61c2.37-1.52 4.41-2.82 8.71-2.82 4.3 0 6.35 1.31 8.71 2.82 2.65 1.69 5.65 3.61 11.41 3.61v-5zm0 14.25c-4.3 0-6.35-1.31-8.71-2.82-2.65-1.69-5.65-3.61-11.41-3.61s-8.76 1.92-11.41 3.61c-2.37 1.52-4.41 2.82-8.71 2.82-4.3 0-6.35-1.31-8.71-2.82-2.65-1.69-5.65-3.61-11.41-3.61s-8.76 1.92-11.41 3.61c-2.37 1.52-4.41 2.82-8.71 2.82-4.3 0-6.35-1.31-8.71-2.82-2.65-1.69-5.65-3.61-11.41-3.61s-8.76 1.92-11.41 3.61c-2.37 1.52-4.42 2.82-8.71 2.82-4.3 0-6.35-1.31-8.72-2.82-2.65-1.69-5.65-3.61-11.41-3.61s-8.76 1.92-11.41 3.61c-2.37 1.52-4.42 2.82-8.72 2.82v5c5.76 0 8.76-1.92 11.41-3.61 2.37-1.52 4.42-2.82 8.72-2.82s6.35 1.31 8.72 2.82c2.65 1.69 5.65 3.61 11.41 3.61s8.76-1.92 11.41-3.61c2.37-1.52 4.41-2.82 8.71-2.82s6.35 1.31 8.71 2.82c2.65 1.69 5.65 3.61 11.41 3.61s8.76-1.92 11.41-3.61c2.37-1.52 4.42-2.82 8.71-2.82s6.35 1.31 8.71 2.82c2.65 1.69 5.65 3.61 11.41 3.61s8.76-1.92 11.41-3.61c2.37-1.52 4.41-2.82 8.71-2.82 4.3 0 6.35 1.31 8.71 2.82 2.65 1.69 5.65 3.61 11.41 3.61v-5zm-202.28 24.2v-74.84c-32.15 0-58.21 26.06-58.21 58.21 0 25.02 15.79 46.35 37.95 54.58L130.21 432v-16.63l49.9-24.95-8.32-16.63h-41.58zm202 0-8.32 16.63 49.9 24.95V432l20.26-20.26c22.16-8.23 37.95-29.56 37.95-54.58 0-32.15-26.06-58.21-58.21-58.21v74.84h-41.58zm-.26-150.39h-15.87v61.29h-8v-30.2H195.92v30.2h-8v-61.16h-15.8l9.46-9.46-9.46-9.46H196v18.84h112.08v-.06h-.01v-18.92h23.88l-9.46 9.46 9.46 9.47zm-136.03 13.08h112.17v-8.02H195.92v8.02zm112.16 13.02v-8.02H195.92v8.02h112.16zm-19.83-76.63h-31.41l-2.19 18.54h-11.13l-7.84-18.54H224.5l-.02-7.8c0-13.95 11.31-25.25 25.25-25.25 13.95 0 25.25 11.31 25.25 25.25v2.8h13.26v5zm-36.44 0h-10.69l5.72 13.54h3.37l1.6-13.54z"></path></svg>