<svg viewbox="0 0 504 504" xml:space="preserve" xmlns="http://www.w3.org/2000/svg"><path d="m432 252-63.51-63.52-3.54 3.54 16.28 16.28-83.64 83.64-19.82-19.82 140.11-140.11-45.9-45.9-140.1 140.11-121.05-121.05-5.66 5.66 54 54L72 252l63.52 63.52 3.54-3.54-16.28-16.28 83.64-83.64 19.82 19.82-140.12 140.1 45.9 45.9 140.11-140.11 121.05 121.05 5.66-5.66-54-54L432 252zm-312.76 40.16L79.07 252l83.64-83.64 40.16 40.17-83.63 83.63zm153.94-22.51-14.11-14.11 14.11-14.11 14.11 14.11-14.11 14.11zm-137.63 74.11 14.11-14.11 14.11 14.11-14.11 14.11-14.11-14.11zm10.58 17.65-14.11 14.11-14.11-14.11 14.11-14.11 14.11 14.11zm7.07-35.29 14.11-14.11 14.11 14.11-14.11 14.11-14.11-14.11zm17.64-17.65 14.11-14.11 14.11 14.11-14.11 14.11-14.11-14.11zm17.65-17.64 14.11-14.11 14.11 14.11-14.11 14.11-14.11-14.11zm17.64-17.65 14.11-14.11 14.11 14.11-14.11 14.11-14.11-14.11zm17.65-17.64 14.11-14.11L252 255.54l-14.11 14.11-14.11-14.11zm17.64-17.65 14.11-14.11 14.11 14.11-14.1 14.11-14.12-14.11zm116.46-88.23-14.11 14.11-14.11-14.11 14.11-14.11 14.11 14.11zm-10.58-17.65 14.11-14.11 14.11 14.11-14.11 14.11-14.11-14.11zm-7.07 35.3-14.11 14.11-14.11-14.11 14.11-14.11 14.11 14.11zm-17.65 17.64-14.11 14.11-14.11-14.11 14.11-14.11 14.11 14.11zm-17.64 17.65-14.11 14.11-14.11-14.11 14.11-14.11 14.11 14.11zm-17.65 17.64-14.11 14.11-14.11-14.11 14.11-14.11 14.11 14.11zm3.54 31.76-14.11-14.11 14.11-14.11 14.11 14.11L290.83 252zm17.64-17.65-14.11-14.11 14.11-14.11 14.11 14.11-14.11 14.11zm17.65-17.64-14.11-14.11 14.11-14.11 14.11 14.11-14.11 14.11zm17.64-17.65-14.11-14.11 14.11-14.11 14.11 14.11-14.11 14.11zm17.65-17.64-14.11-14.11 14.11-14.11 14.11 14.11-14.11 14.11zm17.65-17.65-14.11-14.11 14.11-14.11 14.11 14.11-14.11 14.11zm31.75-31.75-14.11 14.11-14.11-14.11 14.11-14.11 14.11 14.11zm-17.64-17.65-14.11 14.11-14.11-14.11 14.11-14.11 14.11 14.11zM93.19 371.98l278.8-278.8 3.54 3.54-278.8 278.8-3.54-3.54zm7.07 7.08 14.11-14.11 14.11 14.11-14.11 14.11-14.11-14.11zm31.75 31.75L117.9 396.7l14.11-14.11 14.11 14.11-14.11 14.11zm17.65-17.64-14.11-14.11 14.11-14.11 14.11 14.11-14.11 14.11zm17.65-17.65-14.11-14.11 14.11-14.11 14.11 14.11-14.11 14.11zm17.64-17.65-14.11-14.11 14.11-14.11 14.11 14.11-14.11 14.11zm17.65-17.64-14.11-14.11 14.11-14.11 14.11 14.11-14.11 14.11zm17.64-17.65-14.11-14.11 14.11-14.11 14.11 14.11-14.11 14.11zm17.65-17.64-14.11-14.11 14.11-14.11L252 290.83l-14.11 14.11zm17.65-17.65-14.11-14.11 14.11-14.11 14.11 14.11-14.11 14.11zm45.59 8.18 83.64-83.64L424.93 252l-83.64 83.64-40.16-40.17z"></path><path d="M231.89 180.05c29.84 0 54.03-24.19 54.03-54.03S261.73 72 231.89 72s-54.03 24.19-54.03 54.03 24.19 54.02 54.03 54.02zm45.72-71.69a48.721 48.721 0 0 1 3.31 17.67c0 26.27-20.78 47.78-46.77 48.97-5.34-2.11-17.02-8.26-18.29-21.92-.72-7.69 1.89-14.79 4.4-19.67 21.4 3.67 38.39-6.74 44.81-16.09 4.78-6.97 9.63-8.66 12.54-8.96zM231.89 77c12.72 0 24.32 4.87 33.04 12.84-5.43-.18-13.58 1.98-22.66 12.72-16.34 19.31-36.91 15.25-36.91 15.25-3.21-16.17-7.03-22.41-9.68-24.8C204.65 83.18 217.56 77 231.89 77zm-48.09 39.51c6.96 2.89 15.51 18.79 17.37 22.37-3.26 5.52-5.71 13.41-2.61 23.05-9.64-8.96-15.69-21.73-15.69-35.9-.01-3.26.32-6.44.93-9.52zM272.11 323.95c-29.84 0-54.03 24.19-54.03 54.03s24.19 54.03 54.03 54.03 54.03-24.19 54.03-54.03c-.01-29.84-24.2-54.03-54.03-54.03zm-45.72 71.69a48.721 48.721 0 0 1-3.31-17.67c0-26.27 20.78-47.78 46.77-48.97 5.34 2.11 17.02 8.26 18.29 21.92.72 7.69-1.89 14.79-4.4 19.67-21.4-3.67-38.39 6.74-44.81 16.09-4.78 6.97-9.63 8.66-12.54 8.96zM272.11 427c-12.72 0-24.32-4.87-33.04-12.84 5.43.18 13.58-1.98 22.66-12.72 16.34-19.31 36.91-15.25 36.91-15.25 3.21 16.17 7.03 22.41 9.68 24.8-8.98 9.83-21.89 16.01-36.21 16.01zm48.09-39.51c-6.96-2.89-15.51-18.79-17.37-22.37 3.26-5.52 5.71-13.41 2.61-23.05 9.64 8.96 15.69 21.73 15.69 35.9 0 3.26-.32 6.44-.93 9.52z"></path></svg>