<svg viewbox="0 0 504 504" xml:space="preserve" xmlns="http://www.w3.org/2000/svg"><path d="m270.59 168.5-47.87-47.87 3.54-3.54 47.87 47.87c-.8.3-1.54.76-2.16 1.38-.63.63-1.08 1.38-1.38 2.16zm-32.31 134.92 38.38 38.38 3.54-3.54-36.84-36.84-5.08 2zm4.1 43.67-.46.46-.46.46c-.44.44-.96.81-1.5 1.11l37.78 37.78 3.54-3.54-37.78-37.78c-.32.55-.68 1.06-1.12 1.51zm144.52-69.35-37.78-37.78c-.31.55-.67 1.06-1.12 1.5l-.46.46-.46.46c-.44.44-.96.81-1.5 1.11l37.78 37.78 3.54-3.53zm-39.48-83.51-4.82 2.25 85.87 85.87 3.54-3.54-84.59-84.58zm-45.94 49.19 36.79 36.79 3.54-3.54-38.33-38.33-2 5.08zM168.5 270.59l-47.87-47.87-3.54 3.54 47.87 47.87c.29-.79.75-1.53 1.38-2.16.62-.61 1.36-1.08 2.16-1.38zm25.78 76.88L278.81 432l3.54-3.54-85.82-85.82-2.25 4.83zm11.59-36.7-22.23 47.67.34 1.81a50.24 50.24 0 0 0 5.65 15.52l2.35 4.16-1.25 4.49A88.876 88.876 0 0 1 178.34 411l-3.06 4.46-2.39-.28c-6.58-.76-12.86-3.68-17.67-8.24l-1.68-1.6 1-4.12c3.58-14.72 9.78-28.49 18.41-40.93l3.06-4.41 8.5-18.22L72 225.19l3.54-3.54 111.21 111.21 9.22-19.76c-1.94-2.12-3.77-4.22-5.51-6.29-11.02-13.17-17.96-25.04-20.76-30.2-.21-.39-.09-.82.19-1.1.28-.28.71-.41 1.1-.19 5.15 2.8 17.03 9.74 30.2 20.76.65.54 1.3 1.09 1.95 1.65l9.37-20.1-50.3-50.3 3.54-3.54 49.01 49.01 7.81-16.75-18.9-18.9c-26.95-26.95-51.49-56.86-72.93-88.9l-25.62-38.29-.01-.02c-.04-.06-.06-.12-.1-.19-.07-.12-.15-.25-.21-.38-.04-.1-.07-.2-.1-.29-.03-.1-.08-.21-.1-.31-.02-.11-.03-.22-.05-.33-.01-.1-.03-.2-.04-.3 0-.1.01-.21.01-.31.01-.11 0-.22.02-.32.01-.1.04-.19.06-.28.03-.11.04-.22.08-.33.03-.1.08-.2.13-.3.04-.1.08-.19.13-.29.07-.13.16-.25.25-.37.04-.05.07-.11.11-.17l.01-.01c.07-.08.15-.15.22-.23.08-.08.16-.17.25-.25l.01-.01c.04-.03.09-.06.13-.09.13-.1.26-.19.4-.27.08-.04.17-.07.25-.11.11-.05.22-.11.33-.14.1-.03.21-.05.31-.07.1-.02.2-.05.31-.07.1-.01.21-.01.31-.02.11-.01.21-.02.32-.01.11 0 .21.03.32.04.1.01.21.02.31.04.12.03.24.07.36.12.08.03.16.05.24.08.16.07.31.16.46.25.04.02.08.04.11.06l.01.01.01.01 38.29 25.62c32.04 21.44 61.95 45.98 88.9 72.93l18.85 18.85 16.75-7.81-48.97-48.97 3.54-3.54 50.25 50.25 20.1-9.37c-.55-.64-1.08-1.27-1.61-1.9-11.02-13.17-17.96-25.04-20.76-30.2-.21-.39-.09-.82.19-1.1.28-.28.71-.41 1.1-.19 5.15 2.8 17.03 9.74 30.2 20.76 2.06 1.72 4.14 3.54 6.24 5.46l19.77-9.22L221.65 75.54l3.54-3.54 112.45 112.45 18.4-8.58 4.4-3.05a122.014 122.014 0 0 1 40.93-18.41l4.12-1 1.59 1.69c4.56 4.81 7.48 11.09 8.24 17.67l.28 2.39-4.46 3.06a89.105 89.105 0 0 1-26.58 12.39l-4.49 1.25-4.16-2.35a50.296 50.296 0 0 0-15.53-5.65l-1.81-.34-47.67 22.23-20.2 51.45 9.99 9.99c26.77 26.77 51.16 56.46 72.49 88.25l25.72 38.6.02.02c.04.06.07.13.11.2.07.12.14.24.19.36.04.1.07.2.1.3.03.1.07.2.1.31.02.11.03.22.05.33.01.1.03.2.04.3 0 .11-.01.21-.01.32-.01.11 0 .21-.02.32-.01.1-.04.2-.07.3-.02.11-.04.22-.08.32-.04.11-.09.21-.13.31-.04.09-.07.18-.12.27-.07.13-.16.24-.24.36-.04.05-.07.11-.11.17 0 0-.01 0-.01.01-.14.17-.3.33-.48.48-.02.01-.03.02-.05.03-.05.04-.11.07-.16.11-.14.1-.29.19-.44.27-.07.03-.14.07-.21.1-.15.07-.31.12-.47.16-.07.02-.13.04-.2.05-.23.05-.46.07-.68.07a3.053 3.053 0 0 1-.77-.1c-.15-.03-.29-.08-.44-.13a.865.865 0 0 1-.17-.07c-.17-.07-.33-.16-.49-.26-.02-.01-.04-.02-.07-.04l-38.62-25.73c-31.8-21.34-61.49-45.73-88.26-72.5l-10.04-10.04-51.3 20.13zm56.17-82.24 24.81 24.81 6.92-17.64-11.22-11.22 4.82-2.25 8.39 8.39 8.56-21.81-42.28 19.72zm-8.75 58.26-24.71-24.71-19.64 42.12 21.63-8.49-8.29-8.29 2.25-4.82 11.12 11.12 17.64-6.93zm39.82 6.19c0-19.03-14.85-35.95-14.85-35.95l-49.23-49.23s-16.92-14.85-35.95-14.85c0 19.03 14.85 35.95 14.85 35.95l49.23 49.23s16.92 14.85 35.95 14.85zm-83.55 21.71-3.85 8.25c8.55 7.98 18.54 15.66 29.98 21.85.37.2.78.26 1.17.2s.77-.24 1.06-.53l.46-.46.46-.46c.29-.29.48-.67.53-1.06.06-.39-.01-.81-.2-1.17-6.14-11.34-13.73-21.25-21.64-29.75l-7.97 3.13zm133.99-75.85.46-.46.46-.46c.29-.29.48-.67.53-1.06s-.01-.81-.2-1.17c-6.2-11.46-13.89-21.47-21.89-30.03l-8.08 3.77-3.2 8.16c8.49 7.89 18.38 15.46 29.69 21.58.37.2.78.26 1.17.2.39-.05.77-.24 1.06-.53z"></path></svg>