<svg viewbox="0 0 504 504" xml:space="preserve" xmlns="http://www.w3.org/2000/svg"><path d="M140.53 171.35 239.88 72l3.54 3.54-104.91 104.91c.99-2.88 1.68-5.92 2.02-9.1zm21.54-59.71 36.1-36.1-3.54-3.54-35.9 35.9c1.46 1.15 2.57 2.39 3.34 3.74zm-35.61 57.12c1.76-24.72 5.54-32.96 13.9-43.1 4.86-5.9 8.01-12.76 9.3-17.71-.23-.11-.47-.22-.72-.33-8.88-3.91-16.65-6.51-22.58-7.69-6.35-1.25-9.53-1.6-11.37.45 10.47 13.44 1.19 31.93-15.54 33.31 0 0 .36 3.66.73 9.03l11.21-5.72c1.23-.63 2.73-.14 3.36 1.09.63 1.23.14 2.74-1.09 3.36l-13.14 6.71c.07 1.32.14 2.69.21 4.09l8.84-4.52c1.23-.63 2.73-.14 3.36 1.09.63 1.23.14 2.74-1.09 3.36l-10.92 5.58c.04 1.38.06 2.77.08 4.16l6.75-3.45c1.23-.63 2.73-.14 3.36 1.09.63 1.23.14 2.74-1.09 3.36l-9.05 4.62c-.01.62-.03 1.24-.05 1.85-.03.83-.09 1.64-.16 2.45l5.16-2.64c1.23-.63 2.73-.14 3.36 1.09.63 1.23.14 2.74-1.09 3.36l-8.31 4.24c-2.34 11.63-7.84 21.47-8.62 29-.04.35-.04.69-.03 1.02 21.68-10.38 34.17-24.24 35.23-39.15zm4.99.35c-1.2 16.78-14.68 32.11-38.04 43.32 1.32 1.02 3.16 1.4 5.29.7 1.08-.36 3.57-1.5 6.77-3.36l2.33 2.65-1.09-3.39c3.32-2.01 7.24-4.72 11.12-8.09l3.15 2.63-2.06-3.6c3.68-3.32 7.25-7.22 10.15-11.67l2.89 1.33-2.27-2.28c3.22-5.19 5.51-11.1 5.99-17.66.47-6.33 1.27-11.66 2.27-16.21 4-15.38 11.74-21.16 15.33-26.38 5.46-7.95 7.7-12.16.75-16.38-1.7 5.63-5.06 12.35-9.82 18.12-7.36 8.94-11.02 15.83-12.76 40.27zM432 171.84l-32.11 32.11c.47 14.48-2.07 29.04-7.63 42.65l34.09-34.09 5.66 5.66-151.56 151.56c-40.3 40.3-105.88 40.3-146.18 0a103.035 103.035 0 0 1-19.52-27.16l-37.1 37.1-5.65-5.66 39.28-39.28c-3.57-9.04-5.82-18.48-6.75-28.03l-29 29-3.53-3.54 32.11-32.11c-.47-14.48 2.07-29.05 7.63-42.65l-34.09 34.09-5.65-5.67 151.55-151.55c40.3-40.3 105.88-40.3 146.18 0 8.16 8.16 14.66 17.35 19.52 27.16l37.1-37.1 5.66 5.66-39.28 39.28c3.57 9.04 5.82 18.48 6.75 28.03l29-29 3.52 3.54zM112.16 292l129.82-129.82c27.53-27.53 72.31-27.53 99.84 0a70.19 70.19 0 0 1 17.53 29.15l23.89-23.89a94.844 94.844 0 0 0-19.17-27.51c-37.18-37.18-97.68-37.18-134.86 0l-89.27 89.27c-17.42 17.42-26.68 39.95-27.78 62.8zm215.35-68.84 27.79-27.79a65.213 65.213 0 0 0-17.01-29.66c-25.58-25.58-67.19-25.58-92.77 0l-79.8 79.8c-14.61 14.61-20.86 34.46-18.78 53.56L258 188.01c15.99-15.99 42-15.99 57.99 0 9.56 9.56 13.4 22.71 11.52 35.15zm-17.18 17.18.01-.01c12.85-12.87 12.85-33.8-.01-46.66-12.87-12.87-33.81-12.87-46.68 0l-69.99 69.99c-12.87 12.87-12.87 33.81 0 46.68s33.81 12.87 46.68 0l69.99-70zM148.7 308.62a65.213 65.213 0 0 0 17.01 29.66c25.58 25.58 67.19 25.58 92.77 0l79.8-79.8c14.61-14.61 20.86-34.46 18.78-53.56L246 315.99c-15.99 15.99-42 15.99-57.99 0-9.56-9.56-13.4-22.71-11.52-35.15l-27.79 27.78zm-31.2 19.89 25.01-25.01c-2.19-13.27-.6-27.04 4.79-39.57l-35.19 35.19a95.55 95.55 0 0 0 5.39 29.39zM391.84 212 262.02 341.82c-27.53 27.53-72.32 27.53-99.84 0a70.19 70.19 0 0 1-17.53-29.15l-23.89 23.89a94.844 94.844 0 0 0 19.17 27.51c37.18 37.18 97.68 37.18 134.86 0l89.28-89.27.02-.02c17.4-17.41 26.65-39.94 27.75-62.78zm.06-7.13c-.26-9.96-2.04-19.89-5.4-29.38l-25.01 25.01c2.19 13.27.6 27.04-4.79 39.57l35.2-35.2zm-26.41 118.68L260.58 428.46l3.54 3.54 99.35-99.35c.34-3.18 1.03-6.22 2.02-9.1zm-23.56 68.81-36.1 36.1 3.54 3.54 35.9-35.9c-1.46-1.15-2.57-2.39-3.34-3.74zm35.61-57.12c-1.76 24.72-5.54 32.96-13.9 43.1-4.86 5.9-8.01 12.76-9.3 17.71.23.11.47.22.72.33 8.88 3.91 16.65 6.51 22.58 7.69 6.35 1.25 9.53 1.6 11.37-.45-10.47-13.44-1.19-31.93 15.54-33.31 0 0-.36-3.66-.73-9.03L392.61 367c-1.23.63-2.73.14-3.36-1.09a2.492 2.492 0 0 1 1.09-3.36l13.14-6.71c-.07-1.32-.14-2.69-.21-4.09l-8.84 4.52c-1.23.63-2.73.14-3.36-1.09a2.492 2.492 0 0 1 1.09-3.36l10.92-5.58c-.04-1.38-.06-2.77-.08-4.16l-6.75 3.45c-1.23.63-2.73.14-3.36-1.09a2.492 2.492 0 0 1 1.09-3.36l9.05-4.62c.01-.62.03-1.24.05-1.85.03-.83.09-1.64.16-2.45l-5.16 2.64c-1.23.63-2.73.14-3.36-1.09a2.492 2.492 0 0 1 1.09-3.36l8.31-4.24c2.34-11.63 7.84-21.47 8.62-29 .04-.35.04-.69.03-1.02-21.68 10.38-34.17 24.24-35.23 39.15zm-4.99-.35c1.2-16.78 14.68-32.11 38.04-43.32-1.32-1.02-3.16-1.4-5.29-.7-1.08.36-3.57 1.5-6.77 3.36l-2.33-2.65 1.09 3.39a81.594 81.594 0 0 0-11.12 8.09l-3.15-2.63 2.06 3.6c-3.68 3.32-7.25 7.22-10.15 11.67l-2.89-1.33 2.27 2.28c-3.22 5.19-5.51 11.1-5.99 17.66-.47 6.33-1.27 11.66-2.27 16.21-4 15.38-11.74 21.16-15.33 26.38-5.46 7.95-7.7 12.16-.75 16.38 1.7-5.63 5.06-12.35 9.82-18.12 7.36-8.94 11.02-15.83 12.76-40.27z"></path></svg>