<svg viewbox="0 0 504 504" xml:space="preserve" xmlns="http://www.w3.org/2000/svg"><path d="M173.14 361.46c.71.53 1.53.79 2.36.79 1.03 0 2.03-.43 2.79-1.2 5.69 4.37 11.01 9.5 15.54 15.09h-18.19l-3.54 7.76c1.46.8 2.93 1.59 4.42 2.36l2.34-5.12h5.79l-3.42 7.49c1.5.74 3 1.45 4.51 2.15l4.4-9.64h6.68c1.35 0 2.57-.75 3.18-1.97.6-1.21.47-2.63-.34-3.7-10.03-13.3-24.46-24.54-38.58-30.06-8.12-3.17-15.63-7.99-22.38-14.3 3.39-4.19 5.43-9.53 5.43-15.35 0-13.48-10.93-24.41-24.42-24.41-13.48 0-24.41 10.93-24.41 24.41s10.93 24.41 24.41 24.41c5.86 0 11.24-2.07 15.45-5.51 2.53 2.37 5.15 4.54 7.88 6.51-2.34-.23-4.67-.33-6.96-.27-3.07.08-5.93.44-8.52 1.08-2.11.52-3.4 2.64-2.89 4.75.51 2.11 2.64 3.4 4.75 2.89 2.04-.5 4.35-.79 6.86-.85 5.79-.17 20.94.76 36.86 12.69zm-53.44-29.3c-9.06 0-16.4-7.34-16.4-16.4 0-9.06 7.34-16.4 16.4-16.4 9.06 0 16.4 7.34 16.4 16.4 0 9.06-7.34 16.4-16.4 16.4zm5.98-137.28-3.54 3.54L108 184.28l3.54-3.54 14.14 14.14zm-4.21 119.1 8.06 8.06c-.45.7-.96 1.36-1.57 1.96-.6.6-1.26 1.12-1.96 1.57l-8.06-8.06 3.53-3.53zm209.39-171.44c-.71-.53-1.53-.79-2.36-.79-1.03 0-2.03.43-2.79 1.2-5.69-4.37-11.01-9.5-15.54-15.09h18.19l3.54-7.76c-1.46-.8-2.93-1.59-4.42-2.36l-2.34 5.12h-5.79l3.42-7.49c-1.5-.74-3-1.45-4.51-2.15l-4.4 9.64h-6.68c-1.35 0-2.57.75-3.18 1.97-.6 1.21-.47 2.63.34 3.7 10.03 13.3 24.46 24.54 38.58 30.06 8.12 3.17 15.63 7.99 22.38 14.3a24.324 24.324 0 0 0-5.43 15.35c0 13.48 10.93 24.41 24.42 24.41 13.48 0 24.41-10.93 24.41-24.41s-10.93-24.41-24.41-24.41c-5.86 0-11.24 2.07-15.45 5.51a79.995 79.995 0 0 0-7.88-6.51c2.34.23 4.67.33 6.96.27 3.07-.08 5.93-.44 8.52-1.08 2.11-.52 3.4-2.64 2.89-4.75a3.932 3.932 0 0 0-4.75-2.89c-2.04.5-4.35.79-6.86.85-5.79.17-20.94-.76-36.86-12.69zm53.44 29.3c9.06 0 16.4 7.34 16.4 16.4 0 9.06-7.34 16.4-16.4 16.4-9.06 0-16.4-7.34-16.4-16.4 0-9.06 7.34-16.4 16.4-16.4zM211.48 383.15c-9.98 0-18.55 5.99-22.34 14.56-23.4-9.95-42.3-23.58-42.3-23.58l-13.55 10.21 3.01 3.99 10.68-8.05c11.12 7.5 25.75 15.88 40.62 22.19-.35 1.64-.53 3.34-.53 5.08 0 13.48 10.93 24.41 24.41 24.41s24.41-10.93 24.41-24.41c.01-13.47-10.92-24.4-24.41-24.4zm0 40.81c-9.06 0-16.4-7.34-16.4-16.4 0-.69.06-1.37.14-2.04 2.52.93 5.06 1.81 7.54 2.58.61.19 1.2.36 1.81.53 2.3.68 4.59 1.29 6.83 1.8l1.1-4.88c-3.18-.72-6.45-1.64-9.76-2.71-2.03-.65-4.09-1.37-6.14-2.14 2.6-5.63 8.28-9.54 14.88-9.54 9.06 0 16.4 7.34 16.4 16.4 0 9.06-7.34 16.4-16.4 16.4zM77.66 216.76l209.59 209.59-5.66 5.66L72 222.41l5.66-5.65zM432 232.27l-3.54 3.54-25.2-25.2c.6-.51 1.2-1.05 1.76-1.62.62-.62 1.2-1.27 1.76-1.93L432 232.27zm-212.42-81.89-14.14-14.14 3.54-3.54 14.14 14.14-3.54 3.54zm72.94-29.53c9.98 0 18.55-5.99 22.34-14.56 23.4 9.95 42.3 23.58 42.3 23.58l13.55-10.21-3.01-3.99-10.68 8.05c-11.12-7.5-25.75-15.88-40.62-22.19.35-1.64.53-3.34.53-5.08 0-13.48-10.93-24.41-24.41-24.41s-24.42 10.91-24.42 24.4c0 13.48 10.93 24.41 24.42 24.41zm0-40.81c9.06 0 16.4 7.34 16.4 16.4 0 .69-.06 1.37-.14 2.04-2.52-.93-5.06-1.81-7.54-2.58-.61-.19-1.2-.36-1.81-.53-2.3-.68-4.59-1.29-6.83-1.8l-1.1 4.88c3.18.72 6.45 1.64 9.76 2.71 2.03.65 4.09 1.37 6.14 2.14-2.6 5.63-8.28 9.54-14.88 9.54-9.06 0-16.4-7.34-16.4-16.4 0-9.06 7.34-16.4 16.4-16.4zm99.14 136.6L432 256.98l-3.54 3.54-42.97-42.97c2.11-.09 4.17-.39 6.17-.91zm-196.78-90.96-14.14-14.14 3.54-3.54 14.14 14.14-3.54 3.54zm-82.54 161.68L72 247.02l3.54-3.54 42.97 42.97c-2.11.09-4.17.39-6.17.91zM72 271.73l3.54-3.54 25.2 25.2c-.6.51-1.2 1.05-1.76 1.62-.62.62-1.2 1.27-1.76 1.93L72 271.73zm310.53-81.71-8.06-8.06c.45-.7.96-1.36 1.57-1.96.6-.6 1.26-1.12 1.96-1.57l8.06 8.06-3.53 3.53zm-85.32 30.91-3.54 3.54-14.14-14.14 3.54-3.54 14.14 14.14zm24.69 24.7-3.54 3.54-14.14-14.14 3.54-3.54 14.14 14.14zm24.7 24.7-3.54 3.54-14.14-14.14 3.54-3.54 14.14 14.14zm-74.09-74.09-3.54 3.54-14.14-14.14 3.54-3.54 14.14 14.14zm98.79 98.79-3.54 3.54-14.14-14.14 3.54-3.54 14.14 14.14zM247.81 171.54l-3.54 3.54-14.14-14.14 3.54-3.54 14.14 14.14zM432 281.59l-5.66 5.66L216.76 77.66l5.66-5.66L432 281.59zm-36 38.13-3.54 3.54-14.14-14.14 3.54-3.54L396 319.72zm-171.53-26.05-3.54 3.54-14.14-14.14 3.54-3.54 14.14 14.14zm-113.64-188.5 288 288-5.66 5.66-288-288 5.66-5.66zm39.55 114.41-3.54 3.54-14.14-14.14 3.54-3.54 14.14 14.14zm24.7 24.7-3.54 3.54-14.14-14.14 3.54-3.54 14.14 14.14zm74.09 74.09-3.54 3.54-14.14-14.14 3.54-3.54 14.14 14.14zm-49.4-49.39-3.54 3.54-14.14-14.14 3.54-3.54 14.14 14.14zm109.35 109.34 14.14 14.14-3.54 3.54-14.14-14.14 3.54-3.54zm-24.7-24.7 14.14 14.14-3.54 3.54-14.14-14.14 3.54-3.54zm-10.55-10.55-3.54 3.54-14.14-14.14 3.54-3.54 14.14 14.14z"></path></svg>