<svg viewbox="0 0 504 504" xml:space="preserve" xmlns="http://www.w3.org/2000/svg"><path d="M204.04 128.18c5.34-5.34 7.59-9.94 8.95-14.45l3.95 3.95c-1.61 4.33-4.24 8.92-9.36 14.04-8.64 8.64-15.77 10.2-22.67 11.72-6.48 1.42-12.6 2.77-20.2 10.37l-3.54-3.53c8.64-8.64 15.77-10.2 22.67-11.72 6.48-1.44 12.6-2.78 20.2-10.38zm15.25-19.13c1.32-6.02 2.59-11.73 8.85-18.61l-3.54-3.54c-6.47 7.03-8.36 13.07-9.7 18.85l4.19 4.19c.07-.3.14-.6.2-.89zm160.49 158.51 9.19 9.19 18.69-18.68-9.19-9.19-18.69 18.68zM290.2 84.42c1.61-1.61 2.97-3.17 4.14-4.69l-3.57-3.57c-1.12 1.52-2.46 3.09-4.1 4.73-4.26 4.26-8.06 6.56-11.72 8l3.81 3.81c3.56-1.67 7.33-4.17 11.44-8.28zm-88.57 6.96c1.32-6.02 2.61-11.73 8.86-18.6l.74-.78h-6.64c-4.6 5.87-6.19 11.07-7.35 16.08l4.19 4.19c.07-.3.13-.6.2-.89zm48.24-12.91c1.28-.28 2.57-.57 3.87-.89l-4.16-4.16-.78.18c-5.93 1.3-12.03 2.66-19.11 8.49l3.56 3.56c6.01-4.83 11.19-5.99 16.62-7.18zM72 270.27l9.19 9.19 18.68-18.68-9.19-9.19L72 270.27zm95.24-144.51c6.9-1.51 14.03-3.08 22.67-11.72 5.12-5.12 7.75-9.71 9.36-14.04l-3.95-3.95c-1.36 4.51-3.61 9.12-8.95 14.45-7.6 7.6-13.72 8.95-20.2 10.37-6.9 1.51-14.03 3.08-22.67 11.72l3.54 3.53c7.6-7.59 13.72-8.93 20.2-10.36zm-46.56 95.83 9.19 9.19 18.69-18.68-9.19-9.19-18.69 18.68zm105.6 1.16L109.77 106.24l-3.54 3.53 116.4 116.39c1.21-1.14 2.43-2.28 3.65-3.41zm-53.45-34.92-9.19-9.19-18.61 18.61 9.19 9.19 18.61-18.61zm123.59-77.47c3.57-1.66 7.33-4.16 11.45-8.28 1.61-1.61 2.97-3.17 4.14-4.69l-3.57-3.57c-1.12 1.52-2.46 3.09-4.1 4.73-4.26 4.26-8.06 6.56-11.72 8l3.8 3.81zm-59.46 16.35c1.32-6.02 2.59-11.73 8.85-18.61l-3.54-3.54c-6.47 7.03-8.36 13.07-9.7 18.85l4.19 4.19c.07-.29.14-.59.2-.89zm-15.25 19.13c-7.6 7.6-13.72 8.95-20.2 10.37-6.9 1.51-14.03 3.08-22.66 11.72l3.54 3.53c7.6-7.6 13.72-8.95 20.2-10.37 6.9-1.51 14.03-3.08 22.66-11.72 5.12-5.12 7.75-9.71 9.36-14.04l-3.95-3.95c-1.37 4.52-3.62 9.13-8.95 14.46zm-106.68 81.41-18.69 18.68 9.19 9.19 18.68-18.68-9.18-9.19zm199.06-99.22c3.57-1.66 7.34-4.16 11.45-8.28 1.61-1.61 2.97-3.17 4.14-4.69l-3.57-3.57c-1.12 1.52-2.46 3.09-4.1 4.73-4.26 4.26-8.06 6.56-11.72 8l3.8 3.81zm-11.22 3.44c1.28-.28 2.57-.56 3.87-.89l-4.16-4.16c-.26.06-.52.12-.78.17-5.93 1.3-12.03 2.66-19.11 8.49l3.56 3.56c6.01-4.82 11.19-5.98 16.62-7.17zm-82.63 47.29c6.9-1.52 14.03-3.08 22.67-11.72 5.12-5.12 7.75-9.71 9.36-14.04l-3.95-3.95c-1.36 4.51-3.61 9.12-8.95 14.45-7.6 7.6-13.72 8.95-20.2 10.37-6.9 1.52-14.03 3.08-22.67 11.72l3.54 3.53c7.6-7.59 13.73-8.93 20.2-10.36zm34.39-34.38c1.32-6.02 2.59-11.73 8.85-18.61l-3.54-3.54c-6.47 7.03-8.36 13.07-9.7 18.85l4.19 4.19c.07-.3.13-.59.2-.89zm17.67 17.67c1.32-6.02 2.59-11.73 8.86-18.61l-3.54-3.54c-6.47 7.03-8.36 13.07-9.7 18.85l4.19 4.19c.06-.3.12-.6.19-.89zm16.78-49.14-4.16-4.16c-.26.06-.52.12-.78.17-5.93 1.3-12.03 2.66-19.11 8.49l3.56 3.56c6.01-4.81 11.19-5.97 16.63-7.16 1.27-.29 2.55-.57 3.86-.9zm-51.17 83.52c6.9-1.51 14.03-3.08 22.67-11.72 5.12-5.12 7.75-9.71 9.36-14.04l-3.95-3.95c-1.36 4.51-3.61 9.12-8.95 14.45-7.6 7.6-13.72 8.95-20.2 10.37-6.9 1.51-14.03 3.08-22.67 11.72l3.53 3.53c7.61-7.59 13.73-8.94 20.21-10.36zm13-93.13c6.01-4.81 11.19-5.97 16.63-7.16 1.28-.28 2.57-.56 3.87-.89l-4.16-4.16c-.26.06-.52.12-.78.17-5.93 1.3-12.03 2.66-19.11 8.49l3.55 3.55zm51.46 309.32c-1.32 6.02-2.61 11.73-8.86 18.6l-.74.78h6.64c4.6-5.87 6.19-11.07 7.35-16.08l-4.19-4.19c-.07.3-.13.6-.2.89zm17.79-47.17c3.24-.71 6.53-1.44 10-2.9-.5-1.65-.92-3.29-1.28-4.9-3.33 1.5-6.52 2.2-9.8 2.92-6.9 1.52-14.03 3.08-22.67 11.72-5.12 5.12-7.75 9.71-9.36 14.04l3.95 3.95c1.36-4.51 3.61-9.12 8.95-14.45 7.61-7.61 13.73-8.95 20.21-10.38zm17.9 12.5c-.43.1-.87.19-1.3.29-6.9 1.51-14.03 3.08-22.67 11.72-5.12 5.12-7.75 9.71-9.36 14.04l3.95 3.95c1.36-4.51 3.61-9.12 8.95-14.45 7.6-7.6 13.72-8.95 20.2-10.37 1.38-.3 2.77-.61 4.18-.97l-1.63-1.62c-.82-.84-1.59-1.7-2.32-2.59zm-83.93 47.58c-1.28.28-2.57.57-3.87.89l4.16 4.16.78-.18c5.93-1.3 12.03-2.66 19.11-8.49l-3.56-3.56c-6.01 4.83-11.19 5.99-16.62 7.18zm-1.04-24.83c-6.01 4.81-11.19 5.97-16.63 7.16-1.28.28-2.57.56-3.87.89l4.16 4.16c.26-.06.52-.12.78-.17 5.93-1.3 12.03-2.66 19.11-8.49l-3.55-3.55zm31.62-5.75c-1.32 6.02-2.59 11.73-8.85 18.61l3.54 3.54c6.47-7.03 8.36-13.07 9.7-18.85l-4.19-4.19c-.07.3-.14.6-.2.89zm98.61-112.54-9.19-9.19-18.69 18.68 9.19 9.19 18.69-18.68zm-52.15 33.76 9.19 9.19 18.61-18.61-9.19-9.19-18.61 18.61zm91.64-91.63-18.68 18.68 9.19 9.19L432 233.73l-9.19-9.19zm-18.47 148.7c1.92 1.92 2.97 4.46 2.97 7.16s-1.05 5.24-2.96 7.15l-8.43 8.43-.09.09-8.49 8.49a10.045 10.045 0 0 1-7.15 2.96c-2.7 0-5.24-1.05-7.15-2.96l-28.41-28.29c-11.32-11.32-11.62-31.75-11.47-37.47l-59.88-59.88c-3.13 3.31-6.28 6.61-9.5 9.89-1.78 1.82-3.62 3.57-5.53 5.24s-3.87 3.29-5.9 4.82c-7.53 5.68-24.47 18.79-48.58 36.13-24.1 17.34-55.37 38.9-91.55 61.48-1.53.95-3.17.55-4.2-.48-1.03-1.03-1.44-2.68-.48-4.2 22.58-36.18 44.14-67.45 61.48-91.55 17.34-24.1 30.45-41.04 36.13-48.57 1.53-2.03 3.14-4 4.82-5.9s3.43-3.75 5.24-5.53c33.53-32.85 68.72-61.13 99.68-83.69 30.96-22.56 57.7-39.4 74.33-49.37 2.48-1.49 5.13-.82 6.79.84 1.66 1.66 2.32 4.31.84 6.79-9.97 16.63-26.81 43.37-49.37 74.33-19.05 26.15-42.2 55.31-68.73 83.95l60.4 60.4c6.5-.1 25.91.58 36.8 11.47l28.39 28.27zM278.9 257.37c11.31-13.78 14.72-27.3 5.08-36.95-9.65-9.65-23.17-6.24-36.95 5.08-15 12.31-38.26 28.93-17.66 49.53 14.28 14.28 26.65 7.48 36.99-3.02L252 257.66l-4.3 4.3a4.008 4.008 0 0 1-5.66 0 4.008 4.008 0 0 1 0-5.66l14.25-14.25a4.008 4.008 0 0 1 5.66 0 4.008 4.008 0 0 1 0 5.66l-4.3 4.3 14.08 14.08c2.54-2.98 4.92-5.98 7.17-8.72zm99.79 121.29c-4.05-6.85-9.24-12.69-14.76-18.3-5.61-5.52-11.45-10.7-18.3-14.76 4.06 6.84 9.24 12.69 14.76 18.3 5.61 5.52 11.45 10.71 18.3 14.76zm-177.56-6.13c-1.28.28-2.57.56-3.87.89l4.16 4.16c.26-.06.52-.12.78-.17 5.93-1.3 12.03-2.66 19.11-8.49l-3.56-3.56c-6.01 4.82-11.19 5.98-16.62 7.17zm82.63-47.29c-6.9 1.52-14.03 3.08-22.67 11.72-5.12 5.12-7.75 9.71-9.36 14.04l3.95 3.95c1.36-4.51 3.61-9.12 8.95-14.45 7.6-7.6 13.72-8.95 20.2-10.37 6.45-1.42 13.11-2.88 21.01-10.14l-3.54-3.54c-6.85 6.21-12.54 7.47-18.54 8.79zm-69.96 94.34a48.222 48.222 0 0 0-4.14 4.69l3.57 3.57c1.12-1.52 2.46-3.09 4.1-4.73 4.26-4.26 8.06-6.56 11.72-8l-3.81-3.81c-3.56 1.67-7.33 4.17-11.44 8.28zm35.57-59.96c-1.32 6.02-2.59 11.73-8.85 18.61l3.54 3.54c6.47-7.03 8.36-13.07 9.7-18.85l-4.19-4.19c-.07.3-.13.59-.2.89zm32.92-1.46c7.6-7.6 13.72-8.95 20.2-10.37 6.45-1.42 13.11-2.88 21.01-10.14l-3.54-3.54c-6.85 6.22-12.54 7.48-18.55 8.8-6.9 1.51-14.03 3.08-22.66 11.72-5.12 5.12-7.75 9.71-9.36 14.04l3.95 3.95c1.37-4.52 3.62-9.13 8.95-14.46zm-74.72 35.48c-3.57 1.66-7.33 4.16-11.45 8.28a48.222 48.222 0 0 0-4.14 4.69l3.57 3.57c1.12-1.52 2.46-3.09 4.1-4.73 4.26-4.26 8.06-6.56 11.72-8l-3.8-3.81zm59.47-16.35c-1.32 6.02-2.59 11.73-8.85 18.61l3.54 3.54c6.47-7.03 8.36-13.07 9.7-18.85l-4.19-4.19c-.07.29-.14.59-.2.89zm-.95-69.72c-6.9 1.51-14.03 3.08-22.67 11.72-5.12 5.12-7.75 9.71-9.36 14.04l3.95 3.95c1.36-4.51 3.61-9.12 8.95-14.45 7.6-7.6 13.72-8.95 20.2-10.37 6.45-1.42 13.11-2.88 21.01-10.14l-3.54-3.54c-6.84 6.21-12.54 7.47-18.54 8.79zm-76.18 68.4c-3.57 1.66-7.34 4.16-11.45 8.28a48.222 48.222 0 0 0-4.14 4.69l3.57 3.57c1.12-1.52 2.46-3.09 4.1-4.73 4.26-4.26 8.06-6.56 11.72-8l-3.8-3.81zm25.01 15.12 4.16 4.16c.26-.06.52-.12.78-.17 5.93-1.3 12.03-2.66 19.11-8.49l-3.56-3.56c-6.01 4.81-11.19 5.97-16.63 7.16-1.27.29-2.55.57-3.86.9zm16.78-49.14c-1.32 6.02-2.59 11.73-8.86 18.61l3.54 3.54c6.47-7.03 8.36-13.07 9.7-18.85l-4.19-4.19c-.06.3-.12.6-.19.89z"></path></svg>