<svg viewbox="0 0 504 504" xml:space="preserve" xmlns="http://www.w3.org/2000/svg"><path d="M248.07 90.98v5h-18.79c1.52-1.94 3.19-3.61 4.97-5h13.82zm42.6 24.42c-1.6 2.45-2.05 5.01-1.34 7.62.92 3.37 3.55 5.97 5.13 6.74 4.21 2.05 8.09 2.09 12.59.16.61-.26 1.21-.53 1.8-.8 4.34-1.97 8.8-3.97 14.63-1.42.08-.69.13-1.38.13-2.09 0-9.97-8.08-18.05-18.05-18.05-6.19-.01-11.64 3.1-14.89 7.84zm-29.48 133.06 137.64-137.64-5.66-5.66-137.63 137.65 5.65 5.65zm48.89-116.62c-.61.28-1.23.56-1.85.83-2.57 1.11-5.02 1.66-7.43 1.66-2.56 0-5.08-.62-7.66-1.88-1.57-.77-4.01-2.84-5.59-5.86.51 9.51 8.36 17.07 18 17.07 8.2 0 15.11-5.47 17.31-12.95-4.91-2.43-8.45-.83-12.78 1.13zm-87.3-22.5h38.65v-5H224.5c-.65 1.56-1.23 3.22-1.72 5zm-11.09 40.36c-2.45-6.31-4.09-13.82-4.09-22.72C207.6 89 229.9 72 252 72c17.47 0 35.06 10.64 41.66 33.86a.3.3 0 0 1-.08.04 22.908 22.908 0 0 0-6.61 6.06C282.17 88.68 266.09 80 252 80c-16.79 0-36.4 12.3-36.4 46.98 0 6.59 1.18 12.73 3.11 18.62 2.88 8.01 7.29 13.81 11.25 17.73 8.47 8.38 17.67 11.4 21.86 11.4h.15c4.31 0 13.62-3.05 22.14-11.5 3.6-3.57 7.58-8.7 10.42-15.64 1-2.72 1.82-5.49 2.47-8.33 1.86 2.53 4.16 4.61 6.78 6.17a56.63 56.63 0 0 1-1.93 5.43c-3.59 9.61-8.83 18.47-13.97 27.16-9 15.21-17.51 29.58-17.51 47.32h-.06l.16 5.47-8.46 8.46-9.07-9.07.14-4.89c-.03-17.71-8.39-32.08-17.24-47.29-5.27-9.03-10.62-18.26-14.15-28.32zm22.76 27.24c6.43 11.11 12.69 22.6 15.32 35.68h3.91c2.64-13 8.92-24.42 15.41-35.45-6.42 3.79-12.63 5.57-17.05 5.57h-.28c-4.45 0-10.77-1.84-17.31-5.8zm26.98-32.53H223.6c.67 1.79 1.41 3.46 2.22 5h35.61v-5zm-24.59 18.36h11.23v-5h-16.48c.64.72 1.27 1.4 1.89 2.01 1.12 1.11 2.25 2.1 3.36 2.99zm37.95-45.07h-53.64c-.2 1.6-.34 3.26-.43 5h54.07v-5zm0 13.35h-54.03c.13 1.74.32 3.41.6 5h53.43v-5zm6.43 263.61h-38.65v5h36.94c.64-1.56 1.22-3.22 1.71-5zm-52.01-8.36h53.64c.2-1.6.34-3.26.43-5h-54.07v5zm40.54 26.72c1.78-1.39 3.45-3.06 4.97-5h-18.79v5h13.82zm-40.54-40.07h54.03a50.69 50.69 0 0 0-.6-5h-53.43v5zM105.17 110.83l288 288 5.66-5.66-288-288-5.66 5.66zm161.99 230.4h-11.23v5h16.48c-.64-.72-1.27-1.4-1.89-2.01-1.12-1.11-2.25-2.1-3.36-2.99zm86.83-99.97v8h20.74c-.52-2.7-.86-5.37-1.01-8h-19.73zm65.15 45.48c-1.78.67-3.63.99-5.53.99-4.54 0-9.31-1.84-13.83-5.13l-32.1 2.24c0 .03.01.05.01.08 0 2.1-1.7 3.8-3.8 3.8-2.07 0-3.74-1.66-3.79-3.71-.31-.02-.63-.04-.94-.07l-23.23-2.14c-.22-.02-.43-.06-.64-.1a3.798 3.798 0 0 1-7.52-.76c0-1.65 1.06-3.04 2.54-3.57a6.55 6.55 0 0 1 .41-5.23l5.3-9.95c-.84-7.02.16-15.28 3.26-23.54 6.02-16.07 17.98-26.93 28.56-26.93 1.74 0 3.44.29 5.07.9 1.65.62 3.14 1.54 4.47 2.7l2.56-12.23a3.737 3.737 0 0 1 3.66-2.97h26.26c2.38 0 4.15 2.18 3.66 4.51l-1.33 6.33c-4.9-3.23-10.11-5.03-15.2-5.03-2.52 0-4.97.44-7.28 1.3-4.57 1.71-8.31 4.94-11.04 9.4 0-.01.01-.02.01-.02-.94 1.52-1.75 3.19-2.44 4.99-1.2-1.85-2.84-3.46-5.09-4.3a9.393 9.393 0 0 0-3.32-.59c-8.55 0-18.82 10.18-23.88 23.68-3.07 8.19-4 16.54-2.62 23.52.7 3.54 2.66 9.78 7.94 11.76 1.04.39 2.16.59 3.32.59 8.3 0 18.22-9.6 23.42-22.51.51 1.8 1.09 3.6 1.76 5.39.19.5.38 1 .58 1.49-4.49 8.69-10.74 15.23-17.19 18.44 1.32.06 2.64.04 3.95-.05l29.36-2.05c-4.83-5.02-9.07-11.72-12.02-19.58-7.64-20.39-3.61-40.74 9-45.47 1.78-.67 3.63-.99 5.53-.99 11.53 0 24.57 11.84 31.13 29.35 7.66 20.38 3.63 40.73-8.97 45.46zm-76.34-8.34c-2.16-1.99-3.85-4.68-5.03-7.85l-2.63 4.93c-.36.68-.12 1.27 0 1.5.12.23.49.76 1.25.83l6.41.59zm52.87-61.39 8.16 25.9 17.62-4.58c-6.65-14.06-16.95-21.41-24.44-21.41-.46 0-.9.03-1.34.09zm-9.47 36.79 14.62-3.8-9.84-31.23c-4.28 2.92-6.02 8.56-6.69 11.97-1.36 6.88-.68 14.98 1.91 23.06zm28.89 28.81-8.17-25.93-17.76 4.62c6.65 14.07 16.96 21.42 24.45 21.42.5 0 .99-.04 1.48-.11zm9.33-36.79-14.48 3.77 9.82 31.2c4.19-2.95 5.9-8.5 6.56-11.88 1.37-6.9.68-15-1.9-23.09zm-274.41-4.56h-19.72c-.15 2.63-.49 5.3-1.01 8h20.74v-8zm92.8 14.28L105.17 393.17l5.66 5.66 137.64-137.64-5.66-5.65zm-.24 104.05h37.83c-.67-1.79-1.41-3.46-2.22-5h-35.61v5zm-106.25-74.75-32.1-2.24c-4.52 3.29-9.29 5.13-13.83 5.13-1.9 0-3.75-.32-5.53-.99-12.61-4.72-16.63-25.08-9-45.47 6.56-17.51 19.59-29.35 31.13-29.35 1.9 0 3.75.32 5.53.99 12.61 4.72 16.63 25.08 9 45.47-2.94 7.85-7.19 14.56-12.02 19.58l29.36 2.05c1.31.1 2.63.11 3.95.05-6.45-3.21-12.7-9.76-17.19-18.44.2-.49.39-.99.58-1.49.67-1.79 1.25-3.59 1.76-5.39 5.2 12.92 15.12 22.51 23.42 22.51 1.16 0 2.28-.2 3.32-.59 5.28-1.98 7.24-8.21 7.94-11.76 1.38-6.98.45-15.33-2.62-23.52-5.06-13.5-15.32-23.68-23.88-23.68-1.16 0-2.28.2-3.32.59-2.25.84-3.89 2.46-5.09 4.3-.69-1.8-1.51-3.47-2.44-4.99 0 .01.01.02.01.02-2.73-4.46-6.47-7.69-11.04-9.4-2.31-.86-4.76-1.3-7.28-1.3-5.09 0-10.3 1.81-15.2 5.03l-1.33-6.33c-.49-2.32 1.29-4.51 3.66-4.51h26.26c1.77 0 3.3 1.24 3.66 2.97l2.56 12.23a14.18 14.18 0 0 1 4.47-2.7c1.63-.61 3.33-.9 5.07-.9 10.58 0 22.54 10.86 28.56 26.93 3.1 8.27 4.1 16.53 3.26 23.54l5.3 9.95c.87 1.63 1 3.52.41 5.23a3.79 3.79 0 0 1 2.54 3.57c0 2.1-1.7 3.8-3.8 3.8-1.84 0-3.37-1.3-3.72-3.04-.21.04-.42.08-.64.1l-23.23 2.14c-.31.03-.63.04-.94.07a3.79 3.79 0 0 1-3.79 3.71c-2.1 0-3.8-1.7-3.8-3.8.03-.03.04-.05.04-.07zm24.88-6.44 6.41-.59c.76-.07 1.13-.6 1.25-.83.12-.22.37-.82 0-1.5l-2.63-4.93c-1.18 3.17-2.87 5.86-5.03 7.85zM103.18 250l14.62 3.8c2.58-8.08 3.26-16.18 1.9-23.07-.67-3.41-2.41-9.05-6.69-11.97L103.18 250zm-20.63-11.67 17.62 4.58 8.16-25.9c-.44-.05-.88-.09-1.33-.09-7.49 0-17.79 7.35-24.45 21.41zm11.52 11.26-14.48-3.77c-2.59 8.09-3.27 16.19-1.91 23.08.67 3.37 2.38 8.93 6.56 11.88l9.83-31.19zm20.77 11.71-17.76-4.62-8.17 25.93c.49.06.98.11 1.48.11 7.49 0 17.79-7.35 24.45-21.42zm79.08 110.86c.61-.28 1.23-.56 1.85-.83 2.57-1.11 5.02-1.66 7.43-1.66 2.56 0 5.08.62 7.66 1.88 1.57.77 4.01 2.84 5.59 5.86-.51-9.51-8.36-17.07-18-17.07-8.2 0-15.11 5.47-17.31 12.95 4.91 2.43 8.45.83 12.78-1.13zm98.39-17.86c2.45 6.31 4.09 13.82 4.09 22.72C296.4 415 274.1 432 252 432c-17.47 0-35.06-10.64-41.66-33.86a.3.3 0 0 1 .08-.04c2.66-1.62 4.88-3.69 6.61-6.06C221.83 415.32 237.91 424 252 424c16.79 0 36.4-12.3 36.4-46.98 0-6.59-1.18-12.73-3.11-18.62-2.88-8.01-7.29-13.81-11.25-17.73-8.47-8.38-17.67-11.4-21.86-11.4h-.15c-4.31 0-13.62 3.05-22.14 11.5-3.6 3.57-7.58 8.7-10.42 15.64-1 2.72-1.82 5.49-2.47 8.33a23.023 23.023 0 0 0-6.78-6.17c.57-1.9 1.22-3.72 1.93-5.43 3.59-9.61 8.83-18.47 13.97-27.16 9-15.21 17.51-29.58 17.51-47.32h.06l-.16-5.47 8.46-8.46 9.07 9.07-.14 4.89c.03 17.71 8.39 32.08 17.24 47.29 5.27 9.03 10.62 18.26 14.15 28.32zm-22.76-27.24c-6.43-11.11-12.69-22.6-15.32-35.68h-3.91c-2.64 13-8.92 24.42-15.41 35.45 6.42-3.79 12.63-5.57 17.05-5.57h.28c4.45 0 10.77 1.84 17.31 5.8zm-56.22 61.54c1.6-2.45 2.05-5.01 1.34-7.62-.92-3.37-3.55-5.97-5.13-6.74-4.21-2.05-8.09-2.09-12.59-.16-.61.26-1.21.53-1.8.8-4.34 1.97-8.8 3.97-14.63 1.42-.08.69-.13 1.38-.13 2.09 0 9.97 8.08 18.05 18.05 18.05 6.19.01 11.64-3.1 14.89-7.84z"></path></svg>