<svg viewbox="0 0 504 504" xml:space="preserve" xmlns="http://www.w3.org/2000/svg"><path d="M432 152.03v18.48h-8v-10.48h-74.37l-25.92 25.92L389.77 252l-66.06 66.06 25.92 25.92H424V333.5h8v18.48h-74.37l41.19 41.2-5.66 5.66-75.11-75.11-39.66 39.66a41.479 41.479 0 0 0-6.77-4.54L378.46 252 271.62 145.17c2.38-1.28 4.65-2.8 6.77-4.55l39.67 39.67 75.11-75.11 5.66 5.66-41.19 41.2H432zm-143.48-43.49c0 20.18-16.36 36.54-36.54 36.54s-36.54-16.36-36.54-36.54S231.8 72 251.98 72s36.54 16.36 36.54 36.54zm-13.26 3.74c-3-.96-6.43-1.69-10.26-1.98-2.29 7.37-7.89 19.94-20.83 28.8 3.8.96 7.74 1.21 11.61.74 12.71-9.42 17.72-21.68 19.48-27.56zm-13.94-16.12c-5.52 0-10.82.85-15.78 2.41a51.48 51.48 0 0 0 4.64 7.77c15.48-3.37 26.18.37 33.3 3.89.17-3.23-.15-6.48-.97-9.64-6.44-2.84-13.62-4.43-21.19-4.43zm-20.48-17.14c.04 2.42.28 5.16.86 8.1 5.2-1.67 10.77-2.59 16.56-2.59 5.97 0 11.7.97 17.03 2.73-.32-.36-.66-.71-1-1.05-6.15-6.15-14.23-9.23-22.31-9.23-3.78.02-7.55.7-11.14 2.04zm-17.99 17.41c2.04 17.44 11.85 28.38 15.38 31.8 2.4-2.07 4.81-4.58 7.06-7.63-5.02-5.01-14.68-16.77-16.01-33.97a31.332 31.332 0 0 0-6.43 9.8zM427.99 321.5c-2.21 0-4 1.79-4 4s1.79 4 4 4a3.999 3.999 0 1 0 0-8zm0-139c2.21 0 4-1.79 4-4s-1.79-4-4-4a3.999 3.999 0 1 0 0 8zm-44.28 56.37 5 5V191.5H424v121h-35.29v-52.37l-5 5v52.37H432v-131h-48.29v52.37zM76.01 321.5c-2.21 0-4 1.79-4 4s1.79 4 4 4 4-1.79 4-4c0-2.2-1.8-4-4-4zm231.35-45.88 6.22 11.66c.96 1.79 1.13 3.86.56 5.76 2.03.57 3.52 2.41 3.52 4.61 0 2.66-2.15 4.81-4.81 4.81-2.42 0-4.4-1.79-4.74-4.12-.18.03-.36.07-.54.08l-29 2.68c-.62.06-1.25.1-1.87.13 0 .07.02.13.02.2 0 2.66-2.15 4.81-4.81 4.81-2.66 0-4.81-2.15-4.81-4.81 0-.18.03-.35.05-.53l-44.52-3.31c-6.45 3.45-13.1 4.41-19.06 2.18-15.39-5.76-20.3-30.61-10.98-55.49 9.32-24.88 29.35-40.38 44.74-34.62 15.39 5.76 20.3 30.61 10.98 55.49-4.45 11.88-11.34 21.61-19 27.92l41.8 3.11c2.04.15 4.1.14 6.15 0-9.54-4.25-18.86-14.43-24.75-28.05.16-.41.32-.81.48-1.22 2.35-6.29 3.89-12.68 4.6-18.91h25.49v-5h-25.1c.19-4.77-.13-9.4-.99-13.73-2.42-12.24-8.78-20.87-17.91-24.29a24.092 24.092 0 0 0-8.5-1.52c-6.13 0-12.41 2.22-18.31 6.19l-1.86-8.87c-.59-2.84 1.57-5.5 4.47-5.5h32.05a4.56 4.56 0 0 1 4.47 3.63l3.74 17.83c1.83-1.78 3.93-3.17 6.31-4.06 14.44-5.41 33.24 9.14 41.98 32.49 4.02 10.73 5.21 21.46 3.93 30.45zm-1.74 7.36c-1.62 4.7-4.11 8.58-7.38 11.28l8.86-.82c.88-.08 1.63-.58 2.05-1.36.42-.78.42-1.68.01-2.46l-3.54-6.64zm-73.06 75.75L125.84 252l106.72-106.72a42.206 42.206 0 0 1-6.8-4.51l-39.67 39.67-75.26-75.26-5.66 5.66 41.19 41.2H72v18.48h8v-10.48h74.37l26.07 26.07L114.53 252l65.91 65.91-26.07 26.07H80V333.5h-8v18.48h74.37l-41.15 41.16 5.66 5.66 75.22-75.22 39.67 39.67c2.11-1.74 4.38-3.25 6.79-4.52zM76.01 182.5c2.21 0 4-1.79 4-4s-1.79-4-4-4-4 1.79-4 4 1.79 4 4 4zm44.28 82.34-5-5v52.66H80v-121h35.29v52.66l5-5V186.5H72v131h48.29v-52.66zm168.26 130.62c0 20.18-16.36 36.54-36.54 36.54s-36.54-16.36-36.54-36.54 16.36-36.54 36.54-36.54 36.54 16.36 36.54 36.54zm-59.81-3.74c3 .96 6.43 1.69 10.26 1.98 2.29-7.37 7.89-19.94 20.83-28.8-3.8-.96-7.74-1.21-11.61-.74-12.71 9.42-17.72 21.68-19.48 27.56zm13.94 16.12c5.52 0 10.82-.85 15.78-2.41a51.48 51.48 0 0 0-4.64-7.77c-15.48 3.37-26.18-.37-33.3-3.89-.17 3.23.15 6.48.97 9.64 6.44 2.84 13.62 4.43 21.19 4.43zm20.48 17.14a45.84 45.84 0 0 0-.86-8.1 54.101 54.101 0 0 1-16.56 2.59c-5.97 0-11.7-.97-17.03-2.73.32.36.66.71 1 1.05 6.15 6.15 14.23 9.23 22.31 9.23 3.78-.02 7.55-.7 11.14-2.04zm17.99-17.41c-2.04-17.44-11.85-28.38-15.38-31.8-2.4 2.07-4.81 4.58-7.06 7.63 5.02 5.01 14.68 16.77 16.01 33.97 2.82-2.92 4.96-6.25 6.43-9.8z"></path></svg>