<svg viewbox="0 0 504 504" xml:space="preserve" xmlns="http://www.w3.org/2000/svg"><path d="m179.81 152.46 35.83 35.82-7.32 7.32 5.66 5.66 12.98-12.98-47.14-47.13-12.98 12.98 5.66 5.66 7.31-7.33zm-34.8 142.47.83-4.93a82.338 82.338 0 0 1-18.6-5.42l-1.95 4.6a87.66 87.66 0 0 0 19.72 5.75zm-65.58-50.89c2.78 6.27 6.3 12.21 10.48 17.66l3.97-3.04A82.05 82.05 0 0 1 84 242.01l-4.57 2.03zM77 211.94l-5 .21c.28 6.86 1.37 13.69 3.24 20.28l4.81-1.36A82.459 82.459 0 0 1 77 211.94zm80.43 79.16-.13 5c6.86.17 13.76-.46 20.46-1.87l-1.03-4.89a83.335 83.335 0 0 1-19.3 1.76zM81.49 181.39l-4.73-1.64a88.018 88.018 0 0 0-4.41 20.06l4.98.49c.64-6.44 2.04-12.8 4.16-18.91zm37.75-49.4-3.54-3.54-14.14 14.14 3.54 3.54 14.14-14.14zm-22.33 22.65-3.79-3.26a87.66 87.66 0 0 0-11.5 17.03l4.45 2.29c2.95-5.74 6.6-11.14 10.84-16.06zm19.97 124.64a82.66 82.66 0 0 1-15.29-11.9l-3.51 3.56a87.63 87.63 0 0 0 16.22 12.61l2.58-4.27zm39.31-63.33c0-2.24-1.81-4.05-4.05-4.05s-4.05 1.81-4.05 4.05 1.81 4.05 4.05 4.05 4.05-1.81 4.05-4.05zm95.8-86.33c7.46 0 13.51-6.05 13.51-13.51s-6.05-13.51-13.51-13.51-13.51 6.05-13.51 13.51 6.05 13.51 13.51 13.51zm-89.82 191.82 5.94 5.94L316.36 181.8l-9.23-9.23c-6.19 6.19-16.41 19.72-24.46 27.6-2.86 2.8-18.88 18.89-38.35 38.49l-133.53-133.5-5.66 5.66 133.55 133.52c-34.5 34.74-76.51 77.1-76.51 77.1zm217.7-221.59-69.21 69.19 9.23 9.23c14.18-14.18 66.27-66.26 66.27-66.26 27.74-26.87.63-48.79-18.22-36.51-14.8 9.64-1.16 23.29 7.82 15.3 5.11-4.55 12.98.99 4.11 9.05zm-20.88 109.22-.83 4.93a82.338 82.338 0 0 1 18.6 5.42l1.95-4.6a87.66 87.66 0 0 0-19.72-5.75zm65.58 50.89a86.944 86.944 0 0 0-10.48-17.66l-3.97 3.04a82.05 82.05 0 0 1 9.88 16.65l4.57-2.03zm2.43 32.1 5-.21a87.481 87.481 0 0 0-3.24-20.28l-4.81 1.36a82.459 82.459 0 0 1 3.05 19.13zm-80.43-79.16.13-5c-6.86-.17-13.76.46-20.46 1.87l1.03 4.89a83.335 83.335 0 0 1 19.3-1.76zm75.94 109.71 4.73 1.64a88.018 88.018 0 0 0 4.41-20.06l-4.98-.49c-.64 6.44-2.04 12.8-4.16 18.91zm-37.75 49.4 3.54 3.54 14.14-14.14-3.54-3.54-14.14 14.14zm22.33-22.65 3.79 3.26a87.66 87.66 0 0 0 11.5-17.03l-4.45-2.29a82.187 82.187 0 0 1-10.84 16.06zm-19.97-124.64a82.66 82.66 0 0 1 15.29 11.9l3.51-3.56a87.63 87.63 0 0 0-16.22-12.61l-2.58 4.27zm-62.94 126.82-35.83-35.82 7.32-7.32-5.66-5.66-12.98 12.98 47.14 47.13 12.98-12.98-5.66-5.66-7.31 7.33zm23.63-63.49c0 2.24 1.81 4.05 4.05 4.05 2.24 0 4.05-1.81 4.05-4.05 0-2.24-1.81-4.05-4.05-4.05-2.23 0-4.05 1.81-4.05 4.05zm-95.8 86.33c-7.46 0-13.51 6.05-13.51 13.51s6.05 13.51 13.51 13.51 13.51-6.05 13.51-13.51c-.01-7.46-6.05-13.51-13.51-13.51zm89.82-191.82-5.94-5.94L187.64 322.2l9.23 9.23c6.19-6.19 16.41-19.72 24.46-27.6 2.86-2.8 18.88-18.89 38.35-38.49l133.53 133.5 5.66-5.66-133.55-133.52c34.5-34.74 76.51-77.1 76.51-77.1zM124.12 404.15l69.21-69.19-9.23-9.23c-14.18 14.18-66.27 66.26-66.27 66.26-27.74 26.87-.63 48.79 18.22 36.51 14.8-9.64 1.16-23.29-7.82-15.3-5.1 4.55-12.97-.99-4.11-9.05zm103.32-163.96-18.12 18.12c-27.49 27.49-72.06 27.49-99.55 0-27.49-27.49-27.49-72.06 0-99.55l18.12-18.12 5.66 5.66-18.12 18.12c-24.36 24.36-24.36 63.87 0 88.23 24.36 24.36 63.87 24.36 88.23 0l18.12-18.12 5.66 5.66zm49.12 23.62 18.12-18.12c27.49-27.49 72.06-27.49 99.55 0 27.49 27.49 27.49 72.06 0 99.55l-18.12 18.12-5.66-5.66 18.12-18.12c24.36-24.36 24.36-63.87 0-88.23-24.36-24.36-63.87-24.36-88.23 0l-18.12 18.12-5.66-5.66z"></path></svg>