<svg viewbox="0 0 504 504" xml:space="preserve" xmlns="http://www.w3.org/2000/svg"><path d="M276.52 146.4c-1.58 1.58-1.16 2.76-.71 3.51l.17.25c3.54 5.91-4.58 15.11-14.02 20.77-.51.31-1.03.6-1.56.89V148.4c4.17-1.37 8.17-1.92 11.2-1.2.3-1.28.99-2.52 2.1-3.63 1.11-1.11 2.35-1.82 3.64-2.12-1.24-5.31 1.36-13.59 5.52-20.53 2.25-3.75 5.05-7.29 7.99-9.97v32.7c-3.77 2.81-7.58 3.98-10.55 2.2l-.25-.17c-.77-.44-1.95-.86-3.53.72zm-38.25 28.55c3.44 2.92 10.31 2.05 17.13-.75v-23.79c-1.48.7-2.94 1.46-4.35 2.31-5.86 3.51-11.21 8.38-13.58 12.99-3.13-12.68 2.57-29.51 15.71-42.65 13.15-13.15 29.97-18.85 42.65-15.71v31.62c1.91-2.15 3.69-4.59 5.22-7.14 5.11-8.54 7.88-19.1 4-23.67l.02-.02c-7.95-10.78-28.24-31.85-51.88-35.63-12.94-2.07-23.57 2.12-36.01 14.56-12.44 12.44-16.63 23.07-14.56 36.01 3.8 23.63 24.87 43.92 35.65 51.87zm122.31-5.82c6.04 3.87 12.29 7.86 24.7 7.86s18.66-4 24.7-7.86c5.69-3.64 11.06-7.08 22.01-7.08v-5c-12.41 0-18.66 4-24.7 7.86-5.69 3.64-11.06 7.08-22.01 7.08-10.95 0-16.32-3.44-22.01-7.08-3.61-2.31-7.31-4.66-12.35-6.18l47.9-47.9-5.66-5.66L252 246.35 110.83 105.17l-5.66 5.66 57.04 57.04c-8.83-.61-13.69-3.7-18.79-6.96-6.04-3.87-12.29-7.86-24.7-7.86s-18.66 4-24.7 7.86c-5.69 3.64-11.06 7.08-22.01 7.08v5c12.41 0 18.66-4 24.7-7.86 5.69-3.64 11.06-7.08 22.01-7.08 10.95 0 16.32 3.44 22.01 7.08 6.04 3.87 12.29 7.86 24.7 7.86.64 0 1.26-.01 1.87-.03l15.59 15.59c-4.37 2.43-9.4 4.3-17.46 4.3-10.95 0-16.32-3.44-22.01-7.08-6.04-3.87-12.29-7.86-24.7-7.86s-18.66 4-24.7 7.86c-5.69 3.64-11.06 7.08-22.01 7.08v5c12.41 0 18.66-4 24.7-7.86 5.69-3.64 11.06-7.08 22.01-7.08 10.95 0 16.32 3.44 22.01 7.08 6.04 3.87 12.29 7.86 24.7 7.86 10 0 16-2.6 21.12-5.63l12.47 12.47c-4.65 1.52-8.15 3.75-11.58 5.95-5.69 3.64-11.06 7.08-22.01 7.08-10.95 0-16.32-3.44-22.01-7.08-6.04-3.87-12.29-7.86-24.7-7.86s-18.66 4-24.7 7.86c-5.69 3.64-11.06 7.08-22.01 7.08v5c12.41 0 18.66-4 24.7-7.86 5.69-3.64 11.06-7.08 22.01-7.08 10.95 0 16.32 3.44 22.01 7.08 6.04 3.87 12.29 7.86 24.7 7.86s18.66-4 24.7-7.86c3.85-2.46 7.56-4.82 12.95-6.1l20.2 20.2c-3.12-.82-6.74-1.32-11.14-1.32-12.41 0-18.66 4-24.7 7.87-5.69 3.64-11.06 7.08-22.01 7.08-10.95 0-16.32-3.44-22.01-7.08-6.04-3.87-12.29-7.86-24.7-7.86s-18.66 4-24.7 7.86c-5.69 3.64-11.06 7.08-22.01 7.08v5c12.41 0 18.66-4 24.7-7.86 5.69-3.64 11.06-7.08 22.01-7.08 10.95 0 16.32 3.44 22.01 7.08 6.04 3.87 12.29 7.86 24.7 7.86s18.66-4 24.7-7.86c5.69-3.64 11.06-7.08 22.01-7.08 10.74 0 16.11 3.31 21.68 6.87l12.53 12.53-8.78 8.78c-.24-.15-.48-.31-.73-.46-6.04-3.87-12.29-7.86-24.7-7.86s-18.66 4-24.7 7.87c-5.69 3.64-11.06 7.08-22.01 7.08-10.95 0-16.32-3.44-22.01-7.08-6.04-3.87-12.29-7.86-24.7-7.86s-18.66 4-24.7 7.86c-5.69 3.64-11.06 7.08-22.01 7.08v5c12.41 0 18.66-4 24.7-7.86 5.69-3.64 11.06-7.08 22.01-7.08 10.95 0 16.32 3.44 22.01 7.08 6.04 3.87 12.29 7.86 24.7 7.86s18.66-4 24.7-7.86c5.69-3.64 11.06-7.08 22.01-7.08 10.82 0 16.19 3.36 21.81 6.95l-13.59 13.6c-2.42-.43-5.12-.69-8.21-.69-12.41 0-18.66 4-24.7 7.87-5.69 3.64-11.06 7.08-22.01 7.08-10.95 0-16.32-3.44-22.01-7.08-6.04-3.87-12.29-7.86-24.7-7.86s-18.66 4-24.7 7.86c-5.69 3.64-11.06 7.08-22.01 7.08v5c12.41 0 18.66-4 24.7-7.86 5.69-3.64 11.06-7.08 22.01-7.08 10.95 0 16.32 3.44 22.01 7.08 6.04 3.87 12.29 7.86 24.7 7.86s18.66-4 24.7-7.86c5.69-3.64 11.06-7.08 22.01-7.08 1.33 0 2.56.06 3.74.16l-26.05 26.05c-.81.5-1.61 1.01-2.4 1.51-5.69 3.64-11.06 7.08-22.01 7.08-10.95 0-16.32-3.44-22.01-7.08-6.04-3.87-12.29-7.86-24.7-7.86s-18.66 4-24.7 7.86c-5.69 3.64-11.06 7.08-22.01 7.08v5c12.41 0 18.66-4 24.7-7.86 5.69-3.64 11.06-7.08 22.01-7.08 10.95 0 16.32 3.44 22.01 7.08 6.04 3.87 12.29 7.86 24.7 7.86 5.08 0 9.12-.67 12.54-1.73l-20.78 20.78c-5.83-1.22-9.73-3.69-13.77-6.28-6.04-3.87-12.29-7.86-24.7-7.86s-18.66 4-24.7 7.86c-5.69 3.64-11.06 7.08-22.01 7.08v5c12.41 0 18.66-4 24.7-7.86 5.69-3.64 11.06-7.08 22.01-7.08 10.95 0 16.32 3.44 22.01 7.08 3.61 2.31 7.31 4.66 12.35 6.18l-47.9 47.9 5.66 5.66L252 257.67l141.17 141.18 5.66-5.66-57.04-57.04c8.84.61 13.7 3.7 18.8 6.96 6.04 3.87 12.29 7.86 24.7 7.86s18.66-4 24.7-7.86c5.69-3.64 11.06-7.08 22.01-7.08v-5c-12.41 0-18.66 4-24.7 7.86-5.69 3.64-11.06 7.08-22.01 7.08-10.95 0-16.32-3.44-22.01-7.08-6.04-3.87-12.29-7.86-24.7-7.86-.64 0-1.26.01-1.87.03l-15.59-15.59c4.37-2.43 9.4-4.3 17.46-4.3 10.95 0 16.32 3.44 22.01 7.08 6.04 3.87 12.29 7.86 24.7 7.86s18.66-4 24.7-7.86c5.69-3.64 11.06-7.08 22.01-7.08v-5c-12.41 0-18.66 4-24.7 7.86-5.69 3.64-11.06 7.08-22.01 7.08-10.95 0-16.32-3.44-22.01-7.08-6.04-3.87-12.29-7.86-24.7-7.86-10 0-16 2.6-21.12 5.63l-12.47-12.47c4.65-1.52 8.15-3.75 11.58-5.95 5.69-3.64 11.06-7.08 22.01-7.08 10.95 0 16.32 3.44 22.01 7.08 6.04 3.87 12.29 7.86 24.7 7.86s18.66-4 24.7-7.86c5.69-3.64 11.06-7.08 22.01-7.08v-5c-12.41 0-18.66 4-24.7 7.86-5.69 3.64-11.06 7.08-22.01 7.08-10.95 0-16.32-3.44-22.01-7.08-6.04-3.87-12.29-7.86-24.7-7.86s-18.66 4-24.7 7.86c-3.85 2.46-7.56 4.82-12.95 6.1l-20.2-20.2c3.12.82 6.74 1.33 11.14 1.33 12.41 0 18.66-4 24.7-7.87 5.69-3.64 11.06-7.08 22.01-7.08 10.95 0 16.32 3.44 22.01 7.08 6.04 3.87 12.29 7.86 24.7 7.86s18.66-4 24.7-7.86c5.69-3.64 11.06-7.08 22.01-7.08v-5c-12.41 0-18.66 4-24.7 7.86-5.69 3.64-11.06 7.08-22.01 7.08-10.95 0-16.32-3.44-22.01-7.08-6.04-3.87-12.29-7.86-24.7-7.86s-18.66 4-24.7 7.86c-5.69 3.64-11.06 7.08-22.01 7.08-10.74 0-16.12-3.31-21.69-6.87l-12.52-12.52 8.78-8.78c.24.15.49.31.73.46 6.04 3.87 12.29 7.86 24.7 7.86s18.66-4 24.7-7.87c5.69-3.64 11.06-7.08 22.01-7.08 10.95 0 16.32 3.44 22.01 7.08 6.04 3.87 12.29 7.86 24.7 7.86s18.66-4 24.7-7.86c5.69-3.64 11.06-7.08 22.01-7.08v-5c-12.41 0-18.66 4-24.7 7.86-5.69 3.64-11.06 7.08-22.01 7.08-10.95 0-16.32-3.44-22.01-7.08-6.04-3.87-12.29-7.86-24.7-7.86s-18.66 4-24.7 7.86c-5.69 3.64-11.06 7.08-22.01 7.08-10.82 0-16.19-3.36-21.81-6.95l13.59-13.6c2.42.43 5.12.69 8.21.69 12.41 0 18.66-4 24.7-7.87 5.69-3.64 11.06-7.08 22.01-7.08 10.95 0 16.32 3.44 22.01 7.08 6.04 3.87 12.29 7.86 24.7 7.86s18.66-4 24.7-7.86c5.69-3.64 11.06-7.08 22.01-7.08v-5c-12.41 0-18.66 4-24.7 7.86-5.69 3.64-11.06 7.08-22.01 7.08-10.95 0-16.32-3.44-22.01-7.08-6.04-3.87-12.29-7.86-24.7-7.86s-18.66 4-24.7 7.86c-5.69 3.64-11.06 7.08-22.01 7.08-1.33 0-2.56-.06-3.74-.16l26.04-26.04c.81-.5 1.61-1.01 2.4-1.51 5.69-3.64 11.06-7.08 22.01-7.08 10.95 0 16.32 3.44 22.01 7.08 6.04 3.87 12.29 7.86 24.7 7.86s18.66-4 24.7-7.86c5.69-3.64 11.06-7.08 22.01-7.08v-5c-12.41 0-18.66 4-24.7 7.86-5.69 3.64-11.06 7.08-22.01 7.08-10.95 0-16.32-3.44-22.01-7.08-6.04-3.87-12.29-7.86-24.7-7.86-5.08 0-9.12.67-12.54 1.73l20.78-20.78c5.84 1.26 9.73 3.73 13.77 6.32zm-136.6 189.19-.25-.17c-2.98-1.78-6.78-.6-10.55 2.2v32.7c2.94-2.69 5.74-6.22 7.99-9.97 4.15-6.94 6.76-15.21 5.52-20.53 1.28-.3 2.53-1.01 3.64-2.12 1.11-1.11 1.8-2.35 2.1-3.63 3.03.71 7.03.17 11.2-1.2v-23.41c-.52.29-1.05.58-1.56.89-9.44 5.65-17.56 14.85-14.02 20.77l.17.25c.45.75.86 1.93-.71 3.51-1.59 1.57-2.77 1.15-3.53.71zm41.77-29.27c-3.44-2.92-10.31-2.05-17.13.75v23.79c1.48-.7 2.94-1.46 4.35-2.31 5.86-3.51 11.21-8.38 13.58-12.99 3.13 12.68-2.57 29.51-15.71 42.65-13.15 13.15-29.97 18.85-42.65 15.71v-31.62a48.135 48.135 0 0 0-5.22 7.14c-5.11 8.54-7.88 19.1-4 23.67l-.02.02c7.95 10.78 28.24 31.85 51.88 35.63 12.94 2.07 23.57-2.12 36.01-14.56 12.44-12.44 16.63-23.07 14.56-36.01-3.8-23.63-24.87-43.92-35.65-51.87z"></path></svg>