<svg width="130" height="44" viewBox="0 0 130 44" fill="none" xmlns="http://www.w3.org/2000/svg">
<path d="M23.4604 26.7032L21.1798 33.6093H18.2567L25.7089 11.6382H29.1459L36.6623 33.6093H33.6429L31.298 26.7032H23.4604ZM30.6556 24.4868L28.5034 18.1589C28.0216 16.7134 27.7004 15.4286 27.3471 14.1437H27.2828C26.9616 15.4607 26.6083 16.7777 26.1586 18.1268L24.0064 24.4868H30.6556Z" fill="#0067DB"/>
<path d="M38.8788 33.6414C38.943 32.5814 39.0073 30.9753 39.0073 29.5619V10.4818H41.834V20.4073H41.8982C42.894 18.6407 44.7249 17.5164 47.2946 17.5164C51.2134 17.5164 53.9758 20.7928 53.9437 25.5789C53.9437 31.2323 50.3783 34.0268 46.877 34.0268C44.5964 34.0268 42.7655 33.1595 41.6091 31.0717H41.5127L41.3843 33.6735H38.8788V33.6414ZM41.834 27.3134C41.834 27.6668 41.8982 28.0201 41.9624 28.3413C42.5085 30.3329 44.1788 31.7141 46.2667 31.7141C49.254 31.7141 51.0528 29.2729 51.0528 25.6431C51.0528 22.4952 49.4146 19.7649 46.3631 19.7649C44.4037 19.7649 42.5727 21.114 41.9946 23.2983C41.9303 23.6195 41.834 24.0049 41.834 24.4868V27.3134Z" fill="#0067DB"/>
<path d="M56.8989 22.7843C56.8989 20.9212 56.8668 19.3152 56.7704 17.8697H59.2759L59.3722 20.9534H59.5007C60.2074 18.8334 61.9419 17.4843 63.8692 17.4843C64.1904 17.4843 64.4153 17.5164 64.6723 17.5806V20.2788C64.3832 20.2146 64.0941 20.1825 63.7086 20.1825C61.685 20.1825 60.2395 21.7243 59.854 23.8764C59.7898 24.2619 59.7256 24.7116 59.7256 25.2255V33.6413H56.8989V22.7843Z" fill="#0067DB"/>
<path d="M70.2293 13.4049C70.2614 14.3685 69.5547 15.1716 68.3984 15.1716C67.4026 15.1716 66.6638 14.4006 66.6638 13.4049C66.6638 12.4091 67.4026 11.6061 68.4626 11.6061C69.5547 11.6061 70.2293 12.4091 70.2293 13.4049ZM67.0493 33.6414V17.8698H69.9081V33.6414H67.0493Z" fill="#0067DB"/>
<path d="M77.4887 13.3085V17.8376H81.6003V20.0219H77.4887V28.534C77.4887 30.4934 78.0348 31.5856 79.6409 31.5856C80.3797 31.5856 80.9578 31.4892 81.3112 31.3928L81.4397 33.545C80.8936 33.7698 79.9942 33.9304 78.9021 33.9304C77.553 33.9304 76.493 33.5129 75.8184 32.7098C75.0154 31.8747 74.6942 30.4613 74.6942 28.5983V19.9897H72.2529V17.8055H74.6942V14.0151L77.4887 13.3085Z" fill="#0067DB"/>
<path d="M85.5832 26.2534C85.6475 30.1401 88.1208 31.7462 91.0117 31.7462C93.0675 31.7462 94.3202 31.3928 95.3802 30.9431L95.8621 32.9989C94.8663 33.4486 93.1318 33.9625 90.6263 33.9625C85.776 33.9625 82.8529 30.7825 82.8529 25.9964C82.8529 21.2425 85.6475 17.4843 90.2408 17.4843C95.3802 17.4843 96.7615 22.0134 96.7615 24.9043C96.7615 25.4825 96.6972 25.9322 96.6651 26.2534H85.5832ZM93.9669 24.1976C93.999 22.3667 93.2281 19.54 89.9839 19.54C87.0929 19.54 85.8081 22.2061 85.5832 24.1976H93.9669Z" fill="#0067DB"/>
<path d="M99.6525 10.4818H102.511V33.6414H99.6525V10.4818Z" fill="#0067DB"/>
<path d="M112.308 12.9873C112.308 14.6576 110.959 16.0067 109.225 16.0067C107.49 16.0067 106.141 14.6576 106.141 12.9873C106.141 11.317 107.522 10 109.257 10C110.959 10 112.308 11.317 112.308 12.9873ZM106.912 12.9873C106.912 14.3364 107.908 15.3964 109.257 15.3964C110.574 15.4285 111.537 14.3364 111.537 13.0194C111.537 11.6703 110.542 10.6103 109.225 10.6103C107.908 10.6103 106.912 11.6703 106.912 12.9873ZM108.743 14.5612H108.068V11.574C108.357 11.5418 108.743 11.4776 109.225 11.4776C109.803 11.4776 110.06 11.574 110.253 11.7024C110.445 11.8309 110.574 12.0558 110.574 12.3449C110.574 12.6982 110.285 12.9552 109.963 13.0515V13.0837C110.253 13.18 110.413 13.4049 110.51 13.8225C110.606 14.2722 110.67 14.4328 110.734 14.5612H109.996C109.899 14.4328 109.867 14.2079 109.771 13.8225C109.706 13.5012 109.546 13.3728 109.16 13.3728H108.839V14.5612H108.743ZM108.775 12.8588H109.096C109.482 12.8588 109.803 12.7303 109.803 12.4091C109.803 12.12 109.61 11.9594 109.16 11.9594C108.968 11.9594 108.839 11.9915 108.775 11.9915V12.8588Z" fill="#0067DB"/>
</svg>
