<?xml version="1.0" encoding="utf-8"?>
<!-- Generator: Adobe Illustrator 24.1.2, SVG Export Plug-In . SVG Version: 6.00 Build 0)  -->
<svg version="1.1" id="Ebene_1" xmlns="http://www.w3.org/2000/svg" xmlns:xlink="http://www.w3.org/1999/xlink" x="0px" y="0px"
	 viewBox="0 0 180.2 123" style="enable-background:new 0 0 180.2 123;" xml:space="preserve">
<style type="text/css">
    .st0{fill:#0060ff;}
    .st1{opacity:0.25;fill:#0060ff;}
    .st2{opacity:0.5;fill:#0060ff;}
</style>
<rect x="100.7" transform="matrix(-1 -1.224647e-16 1.224647e-16 -1 229.9712 28.623)" class="st0" width="28.6" height="28.6"/>
<rect x="129.3" transform="matrix(-1 -1.224647e-16 1.224647e-16 -1 309.4562 28.623)" class="st1" width="50.9" height="28.6"/>
<rect x="17.2" y="42" transform="matrix(-1 -1.224647e-16 1.224647e-16 -1 51.5905 112.525)" class="st2" width="17.2" height="28.6"/>
<rect x="34.4" y="41.9" transform="matrix(-1 -1.224647e-16 1.224647e-16 -1 97.4125 112.5206)" class="st0" width="28.6" height="28.6"/>
<rect x="129.2" y="84.5" transform="matrix(-1 -1.224647e-16 1.224647e-16 -1 287.0609 197.7043)" class="st0" width="28.6" height="28.6"/>
<g>
	<path class="st0" d="M0,0h4.7v10.9c0,0.5-0.2,0.7-0.3,0.9l0.4,0.4c0.2-0.2,0.5-0.4,0.8-0.4h13.2c0.4,0,0.6,0.2,0.8,0.4l0.4-0.4
		c-0.2-0.2-0.4-0.4-0.4-0.9V0h4.7v28.6h-4.7V16.9c0-0.5,0.2-0.6,0.4-0.9l-0.4-0.4c-0.2,0.2-0.5,0.4-0.8,0.4H5.5
		c-0.3,0-0.6-0.2-0.8-0.4L4.4,16c0.2,0.2,0.3,0.4,0.3,0.9v11.7H0V0z"/>
	<path class="st0" d="M28.8,19.1c0-5.7,4.2-10.2,9.7-10.2c5.7,0,9.2,4.3,9.2,10.1c0,0.5,0,1.1-0.1,1.5h-13c-0.4,0-0.6-0.2-0.7-0.3
		l-0.4,0.4c0.1,0.2,0.4,0.4,0.4,0.5c0.8,2.2,2.2,3.7,5.1,3.7c1.7,0,3-0.6,4.3-2.2l3,2.7c-1.8,2.4-4.4,3.7-7.5,3.7
		C32.9,29.1,28.8,24.9,28.8,19.1z M34.8,17.1h7.3c0.4,0,0.6,0.1,0.8,0.3l0.4-0.4c-0.3-0.3-0.4-0.4-0.5-0.7c-0.6-1.9-2.3-3.2-4.2-3.2
		c-2,0-3.7,1.2-4.3,3.2c-0.1,0.3-0.3,0.4-0.6,0.7l0.4,0.4C34.2,17.2,34.4,17.1,34.8,17.1z"/>
	<path class="st0" d="M52.3,0H57v28.6h-4.7V0z"/>
	<path class="st0" d="M62.7,0h4.7v28.6h-4.7V0z"/>
	<path class="st0" d="M72,19c0-5.5,4.4-10,10.3-10c6,0,10.3,4.5,10.3,10c0,5.6-4.3,10.1-10.3,10.1C76.4,29.1,72,24.6,72,19z
		 M87.8,19c0-3.2-2.3-5.7-5.5-5.7c-3.2,0-5.5,2.5-5.5,5.7c0,3.3,2.3,5.8,5.5,5.8C85.5,24.8,87.8,22.3,87.8,19z"/>
</g>
<g>
	<path class="st0" d="M71.1,42h5l5.7,20.2c0.2,0.7,0.2,1.2,0.2,1.6h0.5c0-0.4,0.1-0.9,0.3-1.6L88.7,42H93l5.9,20.2
		c0.2,0.7,0.3,1.2,0.3,1.6h0.5c0-0.4,0-0.9,0.2-1.6l5.7-20.2h4.8l-8.9,28.6h-4.7l-5.6-19.1c-0.2-0.7-0.3-1.3-0.3-1.7h-0.5
		c0,0.4,0,1-0.2,1.7l-5.6,19.1h-4.7L71.1,42z"/>
	<path class="st0" d="M110.3,61c0-5.5,4.4-10,10.3-10c6,0,10.3,4.5,10.3,10c0,5.6-4.3,10.1-10.3,10.1C114.7,71,110.3,66.5,110.3,61z
		 M126.1,61c0-3.2-2.3-5.7-5.5-5.7c-3.2,0-5.5,2.5-5.5,5.7c0,3.3,2.3,5.8,5.5,5.8C123.8,66.7,126.1,64.2,126.1,61z"/>
	<path class="st0" d="M135.4,70.6V51.4h4.7V52c0,0.5-0.2,0.8-0.5,1.1l0.4,0.4c1.8-1.9,3.3-2.5,5.3-2.5c0.3,0,0.6,0,0.8,0.1v4.9
		c-0.4-0.1-0.9-0.2-1.8-0.2c-2.8,0-4.2,2-4.2,4.7v10.2H135.4z"/>
	<path class="st0" d="M150.6,42h4.7v28.6h-4.7V42z"/>
	<path class="st0" d="M159.8,61c0-5.7,4.3-10,9.8-10.1c2.5,0,4.3,0.7,5.9,2.1l0.4-0.4c-0.3-0.3-0.4-0.6-0.4-1V42h4.7v28.6h-4.8v-0.2
		c0-0.6,0.2-0.8,0.5-1.1l-0.4-0.4c-1.6,1.4-3.4,2.1-5.9,2.1C164.1,71,159.8,66.5,159.8,61z M175.6,61c0-3.3-2.2-5.8-5.5-5.8
		c-3.2,0-5.5,2.6-5.5,5.8c0,3.2,2.3,5.7,5.5,5.7C173.3,66.7,175.6,64.3,175.6,61z"/>
</g>
<g>
	<path class="st0" d="M0,84.6h9.8c9,0,15.6,5.6,15.6,14.3c0,8.7-6.8,14.3-15.6,14.3H0V84.6z M5.5,108.8h4c5.9,0,11.1-2.9,11.1-9.9
		c0-7.2-5.5-9.9-11-9.9H5.5c-0.3,0-0.6-0.2-0.8-0.4L4.4,89c0.2,0.2,0.3,0.4,0.3,0.9v18.1c0,0.5-0.2,0.6-0.3,0.9l0.4,0.4
		C4.9,109,5.2,108.8,5.5,108.8z"/>
	<path class="st0" d="M29.7,86.9c0-1.7,1.3-3,3-3c1.7,0,3,1.3,3,3s-1.3,3-3,3C31,89.9,29.7,88.6,29.7,86.9z M30.3,113.2V94H35v19.2
		H30.3z"/>
	<path class="st0" d="M49.2,118.5c3.5,0,5.9-1.4,5.9-5.1V113c0-0.6,0.2-0.8,0.5-1.1l-0.4-0.4c-1.7,1.5-3.4,2.1-5.8,2.1
		c-5.5,0-9.9-4.5-9.9-10c0-5.7,4.4-10,9.9-10.1c2.4,0,4.2,0.7,5.8,2.1l0.4-0.4c-0.3-0.3-0.4-0.6-0.4-1V94h4.7v18.4
		c0,7.3-4.2,10.6-10.6,10.6L49.2,118.5z M55.3,103.6c0-3.3-2.3-5.8-5.5-5.8c-3.3,0-5.5,2.6-5.5,5.8c0,3.2,2.2,5.7,5.5,5.7
		C53,109.3,55.3,106.9,55.3,103.6z"/>
	<path class="st0" d="M65,86.9c0-1.7,1.3-3,3-3c1.7,0,3,1.3,3,3s-1.3,3-3,3C66.3,89.9,65,88.6,65,86.9z M65.6,113.2V94h4.7v19.2
		H65.6z"/>
	<path class="st0" d="M78.7,99.3c0-0.4,0.1-0.6,0.4-0.8L78.7,98c-0.3,0.3-0.5,0.4-0.8,0.4h-3.1V94h3.1c0.3,0,0.5,0.1,0.8,0.4
		l0.4-0.4c-0.2-0.2-0.4-0.4-0.4-0.8v-5.7h4.7v5.7c0,0.4-0.1,0.6-0.4,0.8l0.4,0.4c0.3-0.3,0.5-0.4,0.8-0.4h3.6v4.5h-3.6
		c-0.3,0-0.5-0.1-0.8-0.4L83,98.4c0.2,0.2,0.4,0.4,0.4,0.8v13.9h-4.7V99.3z"/>
	<path class="st0" d="M90.3,103.6c0-5.7,4.3-10,9.8-10.1c2.5,0,4.3,0.7,5.9,2.1l0.4-0.4c-0.3-0.3-0.4-0.6-0.4-1V94h4.7v19.2h-4.8
		V113c0-0.6,0.2-0.8,0.5-1.1l-0.4-0.4c-1.6,1.4-3.4,2.1-5.9,2.1C94.6,113.6,90.2,109.1,90.3,103.6z M106,103.6
		c0-3.3-2.2-5.8-5.5-5.8c-3.2,0-5.5,2.6-5.5,5.8c0,3.2,2.3,5.7,5.5,5.7C103.8,109.3,106,106.9,106,103.6z"/>
	<path class="st0" d="M116.4,84.6h4.7v28.6h-4.7V84.6z"/>
</g>
<rect y="42" transform="matrix(-1 -1.224647e-16 1.224647e-16 -1 17.1978 112.525)" class="st1" width="17.2" height="28.6"/>
<rect x="157.8" y="84.5" transform="matrix(-1 -1.224647e-16 1.224647e-16 -1 337.9989 197.7064)" class="st1" width="22.3" height="28.6"/>
</svg>
