<svg xmlns="http://www.w3.org/2000/svg" width="75.298" height="128" viewBox="0 0 75.298 128"><defs><style>.a{fill:#0060ff;}</style></defs><path class="a" d="M107.161,361.038a37.654,37.654,0,0,1-5.11-51.341,7.517,7.517,0,0,1-2.157-5.29v-5.623a7.537,7.537,0,0,1,7.511-7.549h48.979a7.512,7.512,0,0,1,7.51,7.549v5.623a7.519,7.519,0,0,1-2.17,5.29,37.618,37.618,0,0,1-5.11,51.341l2.465,7.382h4.814a3.762,3.762,0,0,1,0,7.523h-7.536a3.772,3.772,0,0,1-3.569-2.568l-2.606-7.819a37.695,37.695,0,0,1-36.59,0l-2.606,7.819a3.772,3.772,0,0,1-3.569,2.568H99.895a3.762,3.762,0,1,1,0-7.523h4.814Zm2.863-49.095a30.113,30.113,0,1,0,43.741,0Zm-2.619-13.172c.013,0,.013,1.875.013,5.636t48.966.013c-.026,0-.026-1.887-.026-5.636Q156.359,298.764,107.406,298.771Zm33.8,45.076a3.768,3.768,0,0,1,5.328,5.328,20.7,20.7,0,0,1-29.285,0,3.763,3.763,0,0,1,5.315-5.328A13.18,13.18,0,0,0,141.209,343.847Zm-20.619-11.2A5.649,5.649,0,1,1,126.24,327,5.646,5.646,0,0,1,120.591,332.652Zm22.6,0A5.649,5.649,0,1,1,148.835,327,5.649,5.649,0,0,1,143.186,332.652Zm7.523-62.125a11.292,11.292,0,1,1,11.3-11.285A11.284,11.284,0,0,1,150.71,270.526Zm0-7.523a3.768,3.768,0,1,0-3.762-3.762A3.77,3.77,0,0,0,150.71,263Zm-35.755,9.411a5.649,5.649,0,1,1,5.636-5.649A5.649,5.649,0,0,1,114.954,272.413Zm20.7,9.411a3.762,3.762,0,1,1,3.775-3.762A3.759,3.759,0,0,1,135.65,281.824Z" transform="translate(-94.246 -247.943)"/></svg>