<svg xmlns="http://www.w3.org/2000/svg" width="75.298" height="128" viewBox="0 0 75.298 128"><defs><style>.a{fill:#0060ff;}</style></defs><path class="a" d="M142.625,360.9a15.037,15.037,0,0,1-15.06,15.047H82.4A15.065,15.065,0,0,1,67.327,360.9V262.99A15.049,15.049,0,0,1,82.4,247.943h45.166a15.071,15.071,0,0,1,15.06,15.047ZM74.863,342.062H135.1V281.824H74.863Zm0,7.536v11.3a7.537,7.537,0,0,0,7.536,7.523h45.166A7.52,7.52,0,0,0,135.1,360.9V349.6Zm0-75.3H135.1V262.99a7.553,7.553,0,0,0-7.536-7.523H82.4a7.52,7.52,0,0,0-7.536,7.523Zm39.44,45.076a3.763,3.763,0,0,1,5.315,5.328,20.7,20.7,0,0,1-29.285,0,3.767,3.767,0,0,1,5.328-5.328A13.181,13.181,0,0,0,114.3,319.376Zm-20.619-11.2a5.649,5.649,0,1,1,5.649-5.649A5.649,5.649,0,0,1,93.684,308.181Zm22.6,0a5.649,5.649,0,1,1,5.636-5.649A5.649,5.649,0,0,1,116.28,308.181Zm-16.947-39.53a3.768,3.768,0,0,1,0-7.536h11.3a3.768,3.768,0,0,1,0,7.536Zm5.649,96.006a5.649,5.649,0,1,1,5.649-5.649A5.649,5.649,0,0,1,104.982,364.658Z" transform="translate(-67.327 -247.943)"/></svg>