<svg xmlns="http://www.w3.org/2000/svg" width="39" height="39" viewBox="0 0 39 39"><defs><style>.a{fill:#0060ff;}</style></defs><path class="a" d="M25.908,27.53l-1.294-1.293a14.911,14.911,0,1,1,1.623-1.623l1.293,1.294.91-.91a1.147,1.147,0,0,1,1.622,0l8.6,8.6a1.147,1.147,0,0,1,0,1.622l-3.441,3.441a1.147,1.147,0,0,1-1.622,0l-8.6-8.6a1.147,1.147,0,0,1,0-1.622Zm-11,0A12.618,12.618,0,1,0,2.294,14.912,12.618,12.618,0,0,0,14.912,27.53ZM27.431,29.25l6.981,6.981,1.819-1.819L29.25,27.431Zm-9.68-11.5a1.147,1.147,0,0,1,1.622,1.622,6.308,6.308,0,0,1-8.922,0,1.147,1.147,0,1,1,1.622-1.622A4.016,4.016,0,0,0,17.751,17.751Zm-7.427-3.986a1.721,1.721,0,1,1,1.721-1.721A1.72,1.72,0,0,1,10.324,13.765Zm9.177,0a1.721,1.721,0,1,1,1.721-1.721A1.72,1.72,0,0,1,19.5,13.765Z"/></svg>