<svg xmlns="http://www.w3.org/2000/svg" width="128" height="128" viewBox="0 0 128 128"><defs><style>.a{fill:#0060ff;}</style></defs><path class="a" d="M33.882,120.471V71.529a3.763,3.763,0,0,1,1.937-3.29L69.7,49.416a3.759,3.759,0,0,1,3.656,0L107.24,68.239a3.763,3.763,0,0,1,1.937,3.29v48.941h15.059a3.765,3.765,0,0,1,0,7.529H3.765a3.765,3.765,0,1,1,0-7.529Zm7.529-46.726v46.726h60.235V73.745L71.529,57.013ZM80.847,99.671a3.764,3.764,0,1,1,5.323,5.323,20.7,20.7,0,0,1-29.282,0,3.764,3.764,0,1,1,5.323-5.323A13.18,13.18,0,0,0,80.847,99.671ZM60.235,86.588a5.647,5.647,0,1,1,5.647-5.647A5.647,5.647,0,0,1,60.235,86.588Zm22.588,0a5.647,5.647,0,1,1,5.647-5.647A5.647,5.647,0,0,1,82.824,86.588ZM47.059,50.824A15.059,15.059,0,1,1,62.118,35.765,15.059,15.059,0,0,1,47.059,50.824Zm0-7.529a7.529,7.529,0,1,0-7.529-7.529A7.53,7.53,0,0,0,47.059,43.294ZM43.294,3.765a3.765,3.765,0,1,1,7.529,0v7.529a3.765,3.765,0,0,1-7.529,0ZM79.059,39.529H71.529c-5.02,0-5.02-7.529,0-7.529h7.529C84.079,32,84.079,39.529,79.059,39.529Zm-56.471,0H15.059c-5.02,0-5.02-7.529,0-7.529h7.529C27.608,32,27.608,39.529,22.588,39.529Zm50.539-24.51L67.8,20.344c-3.55,3.548-8.873-1.775-5.325-5.325L67.8,9.7C71.352,6.146,76.678,11.471,73.128,15.019ZM31.639,56.51l-5.325,5.323c-3.548,3.55-8.873-1.775-5.323-5.323l5.323-5.325C29.864,47.637,35.187,52.96,31.639,56.51ZM26.313,9.7l5.325,5.323c3.548,3.55-1.775,8.873-5.325,5.325L20.99,15.019C17.44,11.471,22.765,6.146,26.313,9.7Z"/></svg>