<svg xmlns="http://www.w3.org/2000/svg" width="128" height="97.881" viewBox="0 0 128 97.881"><defs><style>.a{fill:#0060ff;}</style></defs><path class="a" d="M109.414,250.289H229.89a3.759,3.759,0,0,1,3.762,3.762v90.357a3.759,3.759,0,0,1-3.762,3.762H109.414a3.767,3.767,0,0,1-3.762-3.762V254.051A3.767,3.767,0,0,1,109.414,250.289Zm116.715,22.583v-15.06H113.188v15.06Zm0,7.536H113.188v60.238h112.94Zm-43.163,37.784a3.763,3.763,0,0,1,5.328,5.315,26.346,26.346,0,0,1-37.27,0,3.763,3.763,0,0,1,5.328-5.315A18.83,18.83,0,0,0,182.966,318.192Zm-30.248-17.075a5.649,5.649,0,1,1,5.649-5.649A5.649,5.649,0,0,1,152.718,301.117Zm33.881,0a5.649,5.649,0,1,1,5.649-5.649A5.649,5.649,0,0,1,186.6,301.117Zm-64-32.006a3.762,3.762,0,1,1,3.762-3.761A3.759,3.759,0,0,1,122.6,269.11Zm13.172,0a3.762,3.762,0,1,1,3.762-3.761A3.759,3.759,0,0,1,135.771,269.11Zm13.185,0a3.762,3.762,0,1,1,3.762-3.761A3.77,3.77,0,0,1,148.956,269.11Z" transform="translate(-105.652 -250.289)"/></svg>